<?xml version="1.0" encoding="utf-8"?>
<!-- Generator: Adobe Illustrator 19.1.1, SVG Export Plug-In . SVG Version: 6.00 Build 0)  -->
<svg version="1.1" xmlns="http://www.w3.org/2000/svg" xmlns:xlink="http://www.w3.org/1999/xlink" x="0px" y="0px"
	 viewBox="0 0 32 32" style="enable-background:new 0 0 32 32;" xml:space="preserve">
<style type="text/css">
	.st0{fill:#96BC4F;}
	.st1{fill:#FFFFFF;}
	.st2{fill:#66B28E;}
	.st3{fill:#7E7E7C;}
</style>
<g id="Single_Olive_16x16">
</g>
<g id="Single_Olive_32x32">
</g>
<g id="Single_Olive_64x64">
</g>
<g id="Single_Olive_256x256">
</g>
<g id="Single_Teal_256x256">
</g>
<g id="Single_Charcoal_256x256">
</g>
<g id="Single_Teal_16x16">
</g>
<g id="Single_Teal_32x32">
	<path class="st2" d="M30,32H2c-1,0-2-1-2-2V2c0-0.9,1.2-2,2-2h28c1,0,2,1.1,2,2v28C32,31,31,32,30,32z"/>
	<path class="st1" d="M4.9,5.5c0,0,0.2,1.5,0.2,3c0,2-0.2,4.4-0.2,6.8c0,3.5,1,8.6,8.1,9.9v1.3h7.4v-1.4c6.9-1.5,7.5-7.4,7.5-10
		c0-0.8-0.3-4-0.3-6.5c0-1.5,0.3-3.1,0.3-3.1H4.9z"/>
	<g>
		<path class="st2" d="M23.7,10.1c-0.2-0.2-0.5-0.3-0.8-0.3h-5.8c-1.4,0-2.8,0-4.2,0c-0.1,0-0.2,0-0.4,0c-0.6,0.1-0.9,0.6-1.1,1.2
			c-0.5,2.2-1,4.4-1.5,6.5l-0.4,1.8c-0.1,0.4-0.1,0.7,0.1,1c0.2,0.2,0.5,0.4,0.8,0.5c0.1,0,0.2,0,0.3,0c0,0,0,0,0.1,0h9.6
			c0.9,0,1.5-0.5,1.7-1.4l0.5-2.3c0.4-1.6,0.7-3.2,1.1-4.9c0.1-0.4,0.2-0.9,0.2-1.4C24,10.6,23.9,10.3,23.7,10.1z M20.4,20h-9.7
			c-0.2,0-0.3,0-0.3-0.1c0,0,0-0.1,0-0.3c0.3-1.4,0.7-2.9,1-4.3l0.6-2.6c0.1-0.4,0.2-0.9,0.3-1.3c0.1-0.4,0.2-0.5,0.5-0.6
			c0.1,0,0.1,0,0.2,0l5,0h5c0.1,0,0.2,0,0.2,0c0,0,0,0,0,0.1c0,0.4-0.1,0.8-0.2,1.2c-0.4,1.8-0.8,3.5-1.2,5.3l-0.4,1.9
			C21.1,19.7,20.9,20,20.4,20z"/>
		<path class="st2" d="M17,15.2c-0.3-0.4-0.6-0.7-0.9-1c-0.6-0.6-1.1-1.2-1.7-1.8c-0.3-0.3-0.3-0.5-0.1-0.8c0.2-0.3,0.6-0.5,0.9-0.4
			c0.1,0,0.2,0.1,0.3,0.2c1.1,1.2,2.1,2.3,3.2,3.5c0.2,0.3,0.2,0.5-0.1,0.7c-1.7,1.2-3.3,2.4-5,3.6c-0.2,0.2-0.4,0.2-0.6,0.1
			c-0.2-0.1-0.4-0.3-0.4-0.6c0-0.1,0.1-0.3,0.2-0.4c1.2-0.9,2.4-1.7,3.5-2.6C16.6,15.5,16.8,15.4,17,15.2z"/>
		<path class="st2" d="M17.5,18c0.4,0,0.8,0,1.3,0c0.4,0,0.7,0.2,0.7,0.6c0,0.4-0.3,0.7-0.7,0.7c-0.9,0-1.7,0-2.6,0
			c-0.4,0-0.6-0.3-0.6-0.6c0-0.4,0.3-0.7,0.6-0.7C16.6,18,17.1,18,17.5,18z"/>
	</g>
</g>
<g id="Single_Teal_64x64">
</g>
<g id="Single_Charcoal_32x32">
</g>
<g id="Single_Charcoal_16x16">
</g>
<g id="Single_Charcoal_64x64">
</g>
<g id="Single_Charcoal_128x128">
</g>
<g id="Full_Olive_16x16">
</g>
<g id="Full_Olive_32x32">
</g>
<g id="Full_Olive_64x64">
</g>
<g id="Full_Olive_256x256">
</g>
<g id="Full_Teal_256x256">
</g>
<g id="Full_Teal_16x16">
</g>
<g id="Full_Teal_32x32">
</g>
<g id="Full_Teal_64x64">
</g>
</svg>
