<?xml version="1.0" encoding="iso-8859-1"?>
<!-- Generator: Adobe Illustrator 19.2.0, SVG Export Plug-In . SVG Version: 6.00 Build 0)  -->
<svg version="1.1" xmlns="http://www.w3.org/2000/svg" xmlns:xlink="http://www.w3.org/1999/xlink" x="0px" y="0px"
	 viewBox="0 0 128 128" style="enable-background:new 0 0 128 128;" xml:space="preserve">
<g id="Single_Charcoal_16x16">
</g>
<g id="Single_Charcoal_32x32">
</g>
<g id="Single_Charcoal_64x64">
</g>
<g id="Single_Charcoal_128x128">
</g>
<g id="Single_Charcoal_256x256">
</g>
<g id="Single_Olive_16x16">
</g>
<g id="Single_Olive_32x32">
</g>
<g id="Single_Olive_64x64">
</g>
<g id="Single_Olive_128x128">
</g>
<g id="Single_Olive_256x256">
</g>
<g id="Single_Teal_256x256">
</g>
<g id="Single_Teal_16x16">
</g>
<g id="Single_Teal_32x32">
</g>
<g id="Single_Teal_64x64">
</g>
<g id="Single_Teal_16x16_1_">
</g>
<g id="Full_Olive_16x16">
</g>
<g id="Full_Olive_32x32">
</g>
<g id="Full_Olive_64x64">
</g>
<g id="Full_Olive_128x128">
	<path style="fill:#96BC4F;" d="M120.03,128H8.002C4.001,128,0,123.999,0,120.03V8.002C0,4.334,4.801,0,8.002,0H120.03
		c3.969,0,7.97,4.504,7.97,8.002V120.03C128,123.999,124.081,128,120.03,128z"/>
	<path style="fill:#7E7E7C;" d="M70.589,12.505c2.398,0,20.731,0,24.721,0c3.771,0,3.826,1.657,3.826,2.779
		c0,7.859-7.227,11.477-7.227,17.233c0,2.616,6.817,21.135,10.283,42.782c3.466,21.647,1.423,34.911,1.423,36.873
		c0,8.698-40.809,10.398-40.809-0.981c0-3.008-0.85-20.404,1.177-35.773c2.474-18.755,10.66-39.305,10.66-42.836
		c0-4.578-6.736-9.483-6.736-17.331C67.908,13.878,68.191,12.505,70.589,12.505z"/>
	<g>
		<path style="fill:#FFFFFF;" d="M74.25,64c0,0-0.025,1.235-0.212,2.471c-0.251,1.659-0.71,3.627-1,5.546
			c-0.44,2.907-0.223,7.188,5.438,9.115l-0.165,1.094l6.089,0.921l0.176-1.162c5.83-0.413,7.036-5.117,7.359-7.249
			c0.102-0.675,0.245-3.296,0.56-5.382c0.19-1.259,0.632-2.5,0.632-2.5L74.25,64z"/>
		<g>
			<g>
				<path style="fill:#66B28E;" d="M87.817,70.809c-0.1-0.148-0.27-0.241-0.505-0.276l-3.83-0.579
					c-0.91-0.138-1.818-0.275-2.727-0.411c-0.075-0.011-0.164-0.022-0.255-0.013c-0.386,0.037-0.668,0.272-0.839,0.701
					c-0.549,1.381-1.096,2.764-1.642,4.147l-0.439,1.111c-0.098,0.248-0.104,0.465-0.018,0.647c0.086,0.18,0.256,0.311,0.507,0.391
					c0.049,0.015,0.101,0.025,0.17,0.035c0.012,0.002,0.026,0.004,0.039,0.006l6.296,0.952c0.576,0.087,1.029-0.177,1.241-0.723
					l0.573-1.471c0.4-1.026,0.8-2.052,1.197-3.079c0.106-0.275,0.227-0.588,0.301-0.905C87.937,71.13,87.913,70.951,87.817,70.809z
					 M84.666,76.933l-6.354-0.961c-0.127-0.023-0.187-0.058-0.2-0.083c-0.013-0.024-0.011-0.09,0.034-0.205
					c0.357-0.906,0.715-1.811,1.074-2.716l0.656-1.66c0.112-0.285,0.224-0.57,0.34-0.854c0.096-0.233,0.192-0.324,0.354-0.333
					c0.038-0.002,0.082,0.004,0.117,0.009l3.258,0.491l3.258,0.493c0.09,0.014,0.117,0.032,0.118,0.029
					c0.001,0.006,0.004,0.032-0.013,0.096c-0.068,0.255-0.167,0.512-0.277,0.794c-0.431,1.114-0.865,2.227-1.298,3.341l-0.475,1.22
					C85.153,76.863,84.954,76.977,84.666,76.933z"/>
				<path style="fill:#66B28E;" d="M82.883,73.471c-0.173-0.262-0.331-0.503-0.49-0.743c-0.302-0.456-0.606-0.911-0.908-1.367
					c-0.148-0.224-0.15-0.384-0.011-0.55c0.155-0.184,0.443-0.267,0.641-0.172c0.063,0.03,0.123,0.087,0.162,0.146
					c0.58,0.865,1.157,1.732,1.734,2.6c0.131,0.198,0.088,0.367-0.124,0.478c-1.205,0.632-2.411,1.262-3.616,1.895
					c-0.151,0.079-0.293,0.08-0.428-0.027c-0.14-0.111-0.231-0.256-0.171-0.433c0.032-0.092,0.113-0.192,0.199-0.238
					c0.856-0.458,1.718-0.906,2.578-1.357C82.588,73.628,82.726,73.554,82.883,73.471z"/>
				<path style="fill:#66B28E;" d="M82.955,75.329c0.276,0.042,0.553,0.082,0.829,0.126c0.261,0.041,0.415,0.222,0.379,0.444
					c-0.039,0.241-0.271,0.418-0.512,0.382c-0.566-0.084-1.132-0.169-1.698-0.257c-0.23-0.036-0.368-0.225-0.337-0.45
					c0.034-0.239,0.239-0.407,0.469-0.375C82.376,75.239,82.665,75.285,82.955,75.329z"/>
			</g>
		</g>
	</g>
	<g>
		<path style="fill:#FFFFFF;" d="M73.726,80.597c0,0,0.377,1.176,0.602,2.406c0.301,1.65,0.506,3.661,0.855,5.57
			c0.528,2.892,2.123,6.871,8.103,6.855l0.199,1.088l6.058-1.107l-0.211-1.156c5.38-2.285,4.993-7.125,4.606-9.246
			c-0.123-0.672-0.839-3.197-1.218-5.272c-0.229-1.252-0.214-2.569-0.214-2.569L73.726,80.597z"/>
		<g>
			<path style="fill:#96BC4F;" d="M88.768,82.631c-0.143-0.107-0.334-0.14-0.567-0.097l-3.81,0.696
				c-0.905,0.165-1.809,0.33-2.712,0.497c-0.075,0.014-0.162,0.033-0.246,0.07c-0.353,0.16-0.544,0.475-0.565,0.935
				c-0.071,1.485-0.139,2.97-0.206,4.455l-0.055,1.194c-0.012,0.266,0.053,0.474,0.193,0.617c0.139,0.142,0.343,0.211,0.607,0.205
				c0.052-0.001,0.104-0.009,0.172-0.022c0.012-0.002,0.026-0.005,0.039-0.007l6.264-1.144c0.573-0.105,0.915-0.501,0.939-1.087
				l0.064-1.578c0.045-1.1,0.09-2.2,0.132-3.3c0.011-0.295,0.024-0.629-0.009-0.953C88.986,82.896,88.906,82.734,88.768,82.631z
				 M87.777,89.447l-6.322,1.155c-0.127,0.019-0.195,0.005-0.216-0.014c-0.02-0.018-0.04-0.082-0.035-0.205
				c0.044-0.972,0.089-1.945,0.133-2.918l0.082-1.783c0.013-0.306,0.026-0.612,0.044-0.918c0.015-0.252,0.076-0.368,0.227-0.43
				c0.035-0.014,0.079-0.023,0.113-0.029l3.241-0.594l3.241-0.592c0.089-0.016,0.121-0.008,0.121-0.011
				c0.003,0.005,0.014,0.029,0.019,0.095c0.019,0.263,0.008,0.539-0.004,0.841c-0.046,1.194-0.095,2.388-0.143,3.581l-0.053,1.308
				C88.215,89.222,88.064,89.395,87.777,89.447z"/>
			<path style="fill:#96BC4F;" d="M84.967,86.751c-0.248-0.192-0.476-0.368-0.705-0.544c-0.434-0.333-0.869-0.665-1.303-0.998
				c-0.213-0.163-0.267-0.314-0.189-0.516c0.087-0.224,0.332-0.396,0.55-0.371c0.07,0.008,0.144,0.042,0.201,0.085
				c0.83,0.63,1.657,1.263,2.484,1.896c0.188,0.144,0.202,0.319,0.038,0.492c-0.934,0.989-1.87,1.977-2.804,2.966
				c-0.117,0.124-0.251,0.171-0.414,0.113c-0.168-0.06-0.302-0.167-0.302-0.354c0-0.098,0.045-0.218,0.111-0.29
				c0.661-0.712,1.331-1.415,1.998-2.121C84.739,86.995,84.846,86.881,84.967,86.751z"/>
			<path style="fill:#96BC4F;" d="M85.638,88.485c0.275-0.05,0.55-0.102,0.825-0.15c0.26-0.046,0.464,0.075,0.503,0.296
				c0.042,0.241-0.121,0.483-0.36,0.528c-0.563,0.105-1.126,0.208-1.689,0.308c-0.229,0.041-0.421-0.093-0.465-0.317
				c-0.046-0.237,0.094-0.463,0.321-0.507C85.062,88.588,85.35,88.538,85.638,88.485z"/>
		</g>
	</g>
	<g>
		<path style="fill:#FFFFFF;" d="M75.044,92.151c0,0,0.16,1.225,0.16,2.475c0,1.678-0.16,3.692-0.16,5.633
			c0,2.94,0.854,7.141,6.74,8.199v1.106h6.158v-1.175c5.703-1.281,6.192-6.111,6.192-8.268c0-0.683-0.251-3.296-0.251-5.405
			c0-1.273,0.251-2.566,0.251-2.566H75.044z"/>
		<g>
			<path style="fill:#66B28E;" d="M89.476,96.855c-0.121-0.131-0.303-0.198-0.54-0.198h-3.873c-0.92,0-1.839,0-2.757,0.001
				c-0.076,0-0.166,0.003-0.254,0.025c-0.376,0.094-0.62,0.369-0.724,0.818c-0.337,1.448-0.67,2.897-1.004,4.346l-0.268,1.164
				c-0.06,0.259-0.033,0.476,0.079,0.642c0.112,0.165,0.3,0.27,0.56,0.311c0.051,0.008,0.104,0.009,0.173,0.009
				c0.013,0,0.026,0,0.04,0h6.368c0.583,0,0.991-0.328,1.119-0.9l0.347-1.54c0.242-1.074,0.484-2.148,0.723-3.223
				c0.064-0.288,0.136-0.615,0.162-0.939C89.643,97.154,89.592,96.981,89.476,96.855z M87.276,103.382H80.85
				c-0.129-0.004-0.193-0.03-0.21-0.052c-0.017-0.022-0.025-0.088,0.003-0.208c0.218-0.949,0.437-1.898,0.655-2.846l0.401-1.74
				c0.068-0.299,0.136-0.597,0.208-0.895c0.06-0.245,0.141-0.349,0.301-0.382c0.037-0.008,0.082-0.009,0.117-0.009l3.295-0.002
				h3.295c0.091,0,0.12,0.014,0.121,0.011c0.002,0.006,0.009,0.031,0.002,0.097c-0.029,0.262-0.089,0.531-0.155,0.826
				c-0.26,1.166-0.522,2.332-0.784,3.497l-0.287,1.278C87.747,103.239,87.568,103.382,87.276,103.382z"/>
			<path style="fill:#66B28E;" d="M84.996,100.225c-0.21-0.233-0.402-0.448-0.596-0.662c-0.367-0.406-0.735-0.81-1.102-1.216
				c-0.18-0.199-0.206-0.357-0.093-0.542c0.125-0.205,0.398-0.33,0.608-0.266c0.067,0.02,0.134,0.068,0.182,0.12
				c0.703,0.769,1.403,1.54,2.103,2.311c0.159,0.176,0.142,0.35-0.051,0.491c-1.097,0.805-2.195,1.609-3.292,2.414
				c-0.138,0.101-0.278,0.123-0.428,0.037c-0.155-0.089-0.267-0.218-0.234-0.403c0.017-0.096,0.083-0.207,0.161-0.265
				c0.778-0.581,1.563-1.153,2.346-1.728C84.728,100.424,84.854,100.33,84.996,100.225z"/>
			<path style="fill:#66B28E;" d="M85.345,102.051c0.28,0,0.559-0.001,0.839,0c0.264,0.001,0.443,0.157,0.441,0.382
				c-0.002,0.244-0.205,0.454-0.449,0.455c-0.572,0.002-1.145,0.002-1.717,0c-0.233-0.001-0.398-0.167-0.4-0.395
				c-0.002-0.242,0.176-0.438,0.407-0.441C84.759,102.049,85.052,102.051,85.345,102.051z"/>
		</g>
	</g>
</g>
<g id="Full_Olive_256x256">
</g>
<g id="Full_Teal_16x16">
</g>
<g id="Full_Teal_32x32">
</g>
<g id="Full_Teal_64x64">
</g>
<g id="Full_Teal_128x128">
</g>
<g id="Full_Teal_256x256">
</g>
</svg>
