<?xml version="1.0" encoding="iso-8859-1"?>
<!-- Generator: Adobe Illustrator 19.2.0, SVG Export Plug-In . SVG Version: 6.00 Build 0)  -->
<svg version="1.1" xmlns="http://www.w3.org/2000/svg" xmlns:xlink="http://www.w3.org/1999/xlink" x="0px" y="0px"
	 viewBox="0 0 16 16" style="enable-background:new 0 0 16 16;" xml:space="preserve">
<g id="Single_Charcoal_16x16">
</g>
<g id="Single_Charcoal_32x32">
</g>
<g id="Single_Charcoal_64x64">
</g>
<g id="Single_Charcoal_128x128">
</g>
<g id="Single_Charcoal_256x256">
</g>
<g id="Single_Olive_16x16">
</g>
<g id="Single_Olive_32x32">
</g>
<g id="Single_Olive_64x64">
</g>
<g id="Single_Olive_128x128">
</g>
<g id="Single_Olive_256x256">
</g>
<g id="Single_Teal_256x256">
</g>
<g id="Single_Teal_16x16">
	<path style="fill:#66B28E;" d="M15.002,15.998h-14c-0.5,0-1-0.5-1-0.996v-14c0-0.458,0.6-1,1-1h14c0.496,0,0.996,0.563,0.996,1v14
		C15.998,15.498,15.508,15.998,15.002,15.998z"/>
	<g>
		<path style="fill:#FFFFFF;" d="M6.403,9.296h2.981c0.135,0,0.218-0.066,0.248-0.197l0.133-0.593
			c0.122-0.541,0.243-1.082,0.364-1.622c0.031-0.137,0.058-0.261,0.072-0.383c0.003-0.03,0-0.042-0.001-0.045
			c0,0.001-0.014-0.005-0.056-0.005H8.615L7.087,6.452c-0.016,0-0.037,0.001-0.054,0.004C6.958,6.471,6.921,6.519,6.893,6.633
			C6.859,6.771,6.828,6.909,6.796,7.048L6.611,7.855c-0.102,0.44-0.203,0.88-0.304,1.32C6.294,9.231,6.297,9.261,6.305,9.271
			C6.313,9.282,6.343,9.294,6.403,9.296z M9.081,8.856c-0.001,0.113-0.095,0.21-0.208,0.211c-0.265,0.001-0.531,0.001-0.796,0
			c-0.108,0-0.185-0.078-0.186-0.183C7.89,8.771,7.973,8.68,8.08,8.679c0.136-0.002,0.272,0,0.407,0c0.13,0,0.259-0.001,0.389,0
			C8.999,8.679,9.082,8.752,9.081,8.856z M7.055,8.768c0.361-0.27,0.725-0.535,1.088-0.801C8.202,7.924,8.26,7.88,8.326,7.831
			C8.229,7.723,8.139,7.624,8.05,7.525C7.879,7.336,7.709,7.149,7.538,6.96C7.455,6.868,7.443,6.795,7.495,6.709
			C7.554,6.614,7.68,6.556,7.777,6.586C7.808,6.595,7.84,6.617,7.862,6.641c0.326,0.357,0.651,0.714,0.975,1.072
			c0.074,0.082,0.066,0.162-0.024,0.228c-0.509,0.373-1.018,0.746-1.527,1.12C7.223,9.108,7.158,9.118,7.089,9.078
			C7.017,9.037,6.965,8.977,6.98,8.891C6.988,8.846,7.019,8.795,7.055,8.768z"/>
		<path style="fill:#FFFFFF;" d="M6.836,11.65v0.513h2.856v-0.545c2.645-0.594,2.872-2.835,2.872-3.835
			c0-0.317-0.116-1.529-0.116-2.507c0-0.59,0.116-1.19,0.116-1.19H3.71c0,0,0.074,0.568,0.074,1.148
			c0,0.778-0.074,1.713-0.074,2.613C3.71,9.211,4.106,11.16,6.836,11.65z M6.034,9.124l0.124-0.54
			C6.313,7.912,6.468,7.24,6.624,6.568C6.672,6.36,6.785,6.232,6.96,6.189c0.041-0.01,0.083-0.011,0.118-0.011
			C7.504,6.176,7.93,6.177,8.357,6.177h1.797c0.11,0,0.194,0.031,0.251,0.092c0.054,0.058,0.077,0.139,0.069,0.239
			c-0.012,0.151-0.046,0.302-0.075,0.436c-0.111,0.499-0.223,0.997-0.335,1.495L9.902,9.153C9.843,9.418,9.653,9.57,9.383,9.57
			H6.429c-0.006,0-0.013,0-0.018,0c-0.032,0-0.057-0.001-0.08-0.004C6.21,9.547,6.122,9.498,6.071,9.422
			C6.019,9.345,6.006,9.244,6.034,9.124z"/>
	</g>
</g>
<g id="Single_Teal_32x32">
</g>
<g id="Single_Teal_64x64">
</g>
<g id="Single_Teal_16x16_1_">
</g>
<g id="Full_Olive_16x16">
</g>
<g id="Full_Olive_32x32">
</g>
<g id="Full_Olive_64x64">
</g>
<g id="Full_Olive_128x128">
</g>
<g id="Full_Olive_256x256">
</g>
<g id="Full_Teal_16x16">
</g>
<g id="Full_Teal_32x32">
</g>
<g id="Full_Teal_64x64">
</g>
<g id="Full_Teal_128x128">
</g>
<g id="Full_Teal_256x256">
</g>
</svg>
