<?xml version="1.0" encoding="iso-8859-1"?>
<!-- Generator: Adobe Illustrator 19.2.0, SVG Export Plug-In . SVG Version: 6.00 Build 0)  -->
<svg version="1.1" xmlns="http://www.w3.org/2000/svg" xmlns:xlink="http://www.w3.org/1999/xlink" x="0px" y="0px"
	 viewBox="0 0 32 32" style="enable-background:new 0 0 32 32;" xml:space="preserve">
<g id="Single_Charcoal_16x16">
</g>
<g id="Single_Charcoal_32x32">
</g>
<g id="Single_Charcoal_64x64">
</g>
<g id="Single_Charcoal_128x128">
</g>
<g id="Single_Charcoal_256x256">
</g>
<g id="Single_Olive_16x16">
</g>
<g id="Single_Olive_32x32">
</g>
<g id="Single_Olive_64x64">
</g>
<g id="Single_Olive_128x128">
</g>
<g id="Single_Olive_256x256">
</g>
<g id="Single_Teal_256x256">
</g>
<g id="Single_Teal_16x16">
</g>
<g id="Single_Teal_32x32">
</g>
<g id="Single_Teal_64x64">
</g>
<g id="Single_Teal_16x16_1_">
</g>
<g id="Full_Olive_16x16">
</g>
<g id="Full_Olive_32x32">
	<path style="fill:#96BC4F;" d="M30,31.992H2c-1,0-2-1-2-1.992V2c0-0.917,1.2-2,2-2h28c0.992,0,1.992,1.126,1.992,2v28
		C31.992,30.992,31.013,31.992,30,31.992z"/>
	<path style="fill:#7E7E7C;" d="M17.65,3.134c0.599,0,5.178,0,6.174,0c0.942,0,0.956,0.414,0.956,0.694
		c0,1.963-1.805,2.867-1.805,4.304c0,0.653,1.703,5.279,2.568,10.685s0.355,8.72,0.355,9.21c0,2.172-10.193,2.597-10.193-0.245
		c0-0.751-0.212-5.096,0.294-8.935c0.618-4.684,2.662-9.817,2.662-10.699c0-1.143-1.682-2.368-1.682-4.329
		C16.98,3.477,17.051,3.134,17.65,3.134z"/>
	<g>
		<path style="fill:#FFFFFF;" d="M18.564,15.996c0,0-0.006,0.308-0.053,0.617c-0.063,0.414-0.177,0.906-0.25,1.385
			c-0.11,0.726-0.056,1.795,1.358,2.277l-0.041,0.273l1.521,0.23l0.044-0.29c1.456-0.103,1.757-1.278,1.838-1.81
			c0.026-0.169,0.061-0.823,0.14-1.344c0.048-0.314,0.158-0.624,0.158-0.624L18.564,15.996z"/>
		<g>
			<g>
				<path style="fill:#66B28E;" d="M21.953,17.697c-0.025-0.037-0.067-0.06-0.126-0.069l-0.957-0.145
					c-0.227-0.034-0.454-0.069-0.681-0.103c-0.019-0.003-0.041-0.005-0.064-0.003c-0.096,0.009-0.167,0.068-0.209,0.175
					c-0.137,0.345-0.274,0.69-0.41,1.036l-0.11,0.278c-0.024,0.062-0.026,0.116-0.004,0.161c0.021,0.045,0.064,0.078,0.127,0.098
					c0.012,0.004,0.025,0.006,0.042,0.009c0.003,0,0.006,0.001,0.01,0.001l1.573,0.238c0.144,0.022,0.257-0.044,0.31-0.181
					l0.143-0.367c0.1-0.256,0.2-0.512,0.299-0.769c0.027-0.069,0.057-0.147,0.075-0.226C21.983,17.777,21.977,17.732,21.953,17.697z
					 M21.166,19.226l-1.587-0.24c-0.032-0.006-0.047-0.015-0.05-0.021c-0.003-0.006-0.003-0.023,0.008-0.051
					c0.089-0.226,0.179-0.452,0.268-0.678l0.164-0.415c0.028-0.071,0.056-0.142,0.085-0.213c0.024-0.058,0.048-0.081,0.089-0.083
					c0.009,0,0.021,0.001,0.029,0.002l0.814,0.123l0.814,0.123c0.022,0.003,0.029,0.008,0.029,0.007
					c0,0.001,0.001,0.008-0.003,0.024c-0.017,0.064-0.042,0.128-0.069,0.198c-0.108,0.278-0.216,0.556-0.324,0.834l-0.119,0.305
					C21.287,19.209,21.237,19.237,21.166,19.226z"/>
				<path style="fill:#66B28E;" d="M20.72,18.362c-0.043-0.065-0.083-0.126-0.122-0.186c-0.076-0.114-0.151-0.228-0.227-0.342
					c-0.037-0.056-0.038-0.096-0.003-0.137c0.039-0.046,0.111-0.067,0.16-0.043c0.016,0.008,0.031,0.022,0.041,0.036
					c0.145,0.216,0.289,0.433,0.433,0.649c0.033,0.049,0.022,0.092-0.031,0.119c-0.301,0.158-0.602,0.315-0.903,0.473
					c-0.038,0.02-0.073,0.02-0.107-0.007c-0.035-0.028-0.058-0.064-0.043-0.108c0.008-0.023,0.028-0.048,0.05-0.059
					c0.214-0.115,0.429-0.226,0.644-0.339C20.647,18.401,20.681,18.382,20.72,18.362z"/>
				<path style="fill:#66B28E;" d="M20.738,18.826c0.069,0.01,0.138,0.021,0.207,0.031c0.065,0.01,0.104,0.055,0.095,0.111
					c-0.01,0.06-0.068,0.104-0.128,0.096c-0.141-0.021-0.283-0.042-0.424-0.064c-0.058-0.009-0.092-0.056-0.084-0.112
					c0.008-0.06,0.06-0.102,0.117-0.094C20.594,18.803,20.666,18.815,20.738,18.826z"/>
			</g>
		</g>
	</g>
	<g>
		<path style="fill:#FFFFFF;" d="M18.433,20.141c0,0,0.094,0.294,0.15,0.601c0.075,0.412,0.126,0.914,0.214,1.391
			c0.132,0.722,0.53,1.716,2.024,1.712l0.05,0.272l1.513-0.276l-0.053-0.289c1.344-0.571,1.247-1.779,1.15-2.309
			c-0.031-0.168-0.21-0.798-0.304-1.317c-0.057-0.313-0.054-0.642-0.054-0.642L18.433,20.141z"/>
		<g>
			<path style="fill:#96BC4F;" d="M22.19,20.649c-0.036-0.027-0.083-0.035-0.142-0.024l-0.952,0.174
				c-0.226,0.041-0.452,0.082-0.677,0.124c-0.019,0.003-0.041,0.008-0.061,0.018c-0.088,0.04-0.136,0.119-0.141,0.234
				c-0.018,0.371-0.035,0.742-0.052,1.113l-0.014,0.298c-0.003,0.066,0.013,0.118,0.048,0.154c0.035,0.036,0.086,0.053,0.152,0.051
				c0.013,0,0.026-0.002,0.043-0.005c0.003-0.001,0.006-0.001,0.01-0.002l1.565-0.286c0.143-0.026,0.229-0.125,0.235-0.271
				l0.016-0.394c0.011-0.275,0.022-0.55,0.033-0.824c0.003-0.074,0.006-0.157-0.002-0.238C22.245,20.716,22.225,20.675,22.19,20.649
				z M21.943,22.352l-1.579,0.288c-0.032,0.005-0.049,0.001-0.054-0.003c-0.005-0.005-0.01-0.02-0.009-0.051
				c0.011-0.243,0.022-0.486,0.033-0.729l0.02-0.445c0.003-0.076,0.007-0.153,0.011-0.229c0.004-0.063,0.019-0.092,0.057-0.107
				c0.009-0.004,0.02-0.006,0.028-0.007l0.81-0.148l0.81-0.148c0.022-0.004,0.03-0.002,0.03-0.003
				c0.001,0.001,0.004,0.007,0.005,0.024c0.005,0.066,0.002,0.135-0.001,0.21c-0.012,0.298-0.024,0.596-0.036,0.895l-0.013,0.327
				C22.052,22.296,22.014,22.339,21.943,22.352z"/>
			<path style="fill:#96BC4F;" d="M21.241,21.679c-0.062-0.048-0.119-0.092-0.176-0.136c-0.108-0.083-0.217-0.166-0.325-0.249
				c-0.053-0.041-0.067-0.078-0.047-0.129c0.022-0.056,0.083-0.099,0.137-0.093c0.017,0.002,0.036,0.011,0.05,0.021
				c0.207,0.157,0.414,0.315,0.62,0.474c0.047,0.036,0.05,0.08,0.01,0.123c-0.233,0.247-0.467,0.494-0.7,0.741
				c-0.029,0.031-0.063,0.043-0.103,0.028c-0.042-0.015-0.075-0.042-0.075-0.089c0-0.024,0.011-0.055,0.028-0.072
				c0.165-0.178,0.332-0.353,0.499-0.53C21.184,21.739,21.211,21.711,21.241,21.679z"/>
			<path style="fill:#96BC4F;" d="M21.408,22.112c0.069-0.013,0.137-0.025,0.206-0.038c0.065-0.012,0.116,0.019,0.126,0.074
				c0.01,0.06-0.03,0.121-0.09,0.132c-0.141,0.026-0.281,0.052-0.422,0.077c-0.057,0.01-0.105-0.023-0.116-0.079
				c-0.011-0.059,0.024-0.116,0.08-0.127C21.264,22.137,21.336,22.125,21.408,22.112z"/>
		</g>
	</g>
	<g>
		<path style="fill:#FFFFFF;" d="M18.763,23.027c0,0,0.04,0.306,0.04,0.618c0,0.419-0.04,0.922-0.04,1.407
			c0,0.734,0.213,1.784,1.683,2.048v0.276h1.538v-0.293c1.424-0.32,1.547-1.526,1.547-2.065c0-0.171-0.063-0.823-0.063-1.35
			c0-0.318,0.063-0.641,0.063-0.641H18.763z"/>
		<g>
			<path style="fill:#66B28E;" d="M22.367,24.202c-0.03-0.033-0.076-0.049-0.135-0.049h-0.967c-0.23,0-0.459,0-0.689,0
				c-0.019,0-0.041,0.001-0.063,0.006c-0.094,0.023-0.155,0.092-0.181,0.204c-0.084,0.362-0.167,0.723-0.251,1.085l-0.067,0.291
				c-0.015,0.065-0.008,0.119,0.02,0.16c0.028,0.041,0.075,0.067,0.14,0.078c0.013,0.002,0.026,0.002,0.043,0.002
				c0.003,0,0.006,0,0.01,0h1.591c0.146,0,0.247-0.082,0.279-0.225l0.087-0.385c0.06-0.268,0.121-0.537,0.181-0.805
				c0.016-0.072,0.034-0.154,0.04-0.235C22.409,24.277,22.396,24.234,22.367,24.202z M21.818,25.832h-1.605
				c-0.032-0.001-0.048-0.007-0.053-0.013c-0.004-0.005-0.006-0.022,0.001-0.052c0.054-0.237,0.109-0.474,0.164-0.711l0.1-0.435
				c0.017-0.075,0.034-0.149,0.052-0.223c0.015-0.061,0.035-0.087,0.075-0.096c0.009-0.002,0.02-0.002,0.029-0.002l0.823,0h0.823
				c0.023,0,0.03,0.003,0.03,0.003c0,0.001,0.002,0.008,0,0.024c-0.007,0.066-0.022,0.133-0.039,0.206
				c-0.065,0.291-0.13,0.582-0.196,0.874l-0.072,0.319C21.935,25.797,21.89,25.832,21.818,25.832z"/>
			<path style="fill:#66B28E;" d="M21.248,25.044c-0.052-0.058-0.101-0.112-0.149-0.165c-0.092-0.101-0.184-0.202-0.275-0.304
				c-0.045-0.05-0.051-0.089-0.023-0.135c0.031-0.051,0.099-0.082,0.152-0.067c0.017,0.005,0.034,0.017,0.046,0.03
				c0.176,0.192,0.35,0.385,0.525,0.577c0.04,0.044,0.035,0.087-0.013,0.123c-0.274,0.201-0.548,0.402-0.822,0.603
				c-0.034,0.025-0.069,0.031-0.107,0.009c-0.039-0.022-0.067-0.055-0.058-0.101c0.004-0.024,0.021-0.052,0.04-0.066
				c0.194-0.145,0.39-0.288,0.586-0.432C21.181,25.094,21.213,25.07,21.248,25.044z"/>
			<path style="fill:#66B28E;" d="M21.335,25.5c0.07,0,0.14,0,0.21,0c0.066,0,0.111,0.039,0.11,0.095
				c-0.001,0.061-0.051,0.113-0.112,0.114c-0.143,0-0.286,0-0.429,0c-0.058,0-0.099-0.042-0.1-0.099
				c-0.001-0.06,0.044-0.109,0.102-0.11C21.189,25.499,21.262,25.5,21.335,25.5z"/>
		</g>
	</g>
</g>
<g id="Full_Olive_64x64">
</g>
<g id="Full_Olive_128x128">
</g>
<g id="Full_Olive_256x256">
</g>
<g id="Full_Teal_16x16">
</g>
<g id="Full_Teal_32x32">
</g>
<g id="Full_Teal_64x64">
</g>
<g id="Full_Teal_128x128">
</g>
<g id="Full_Teal_256x256">
</g>
</svg>
