<?xml version="1.0" encoding="iso-8859-1"?>
<!-- Generator: Adobe Illustrator 19.2.0, SVG Export Plug-In . SVG Version: 6.00 Build 0)  -->
<svg version="1.1" xmlns="http://www.w3.org/2000/svg" xmlns:xlink="http://www.w3.org/1999/xlink" x="0px" y="0px"
	 viewBox="0 0 128 128" style="enable-background:new 0 0 128 128;" xml:space="preserve">
<g id="Single_Charcoal_16x16">
</g>
<g id="Single_Charcoal_32x32">
</g>
<g id="Single_Charcoal_64x64">
</g>
<g id="Single_Charcoal_128x128">
	<path style="fill:#7E7E7C;" d="M120.034,127.996H8.002c-4.001,0-8.002-4.001-8.002-7.97V8.002C0,4.334,4.801,0,8.002,0h112.031
		c3.969,0,7.97,4.504,7.97,8.002v112.024C128.004,123.995,124.085,127.996,120.034,127.996z"/>
	<g>
		<path style="fill:#FFFFFF;" d="M50.226,74.366h23.851c1.081,0,1.748-0.53,1.983-1.574l1.066-4.742
			c0.973-4.327,1.946-8.654,2.911-12.981c0.244-1.094,0.468-2.092,0.574-3.067c0.027-0.243,0-0.338-0.007-0.359
			c-0.003,0.01-0.112-0.042-0.449-0.042H67.927l-12.23,0.006c-0.13,0-0.295,0.004-0.433,0.032c-0.592,0.126-0.895,0.511-1.116,1.42
			c-0.269,1.104-0.521,2.212-0.773,3.321l-1.487,6.457c-0.812,3.52-1.625,7.042-2.433,10.563c-0.102,0.447-0.072,0.691-0.01,0.772
			C49.509,74.256,49.748,74.351,50.226,74.366z M71.66,70.845c-0.007,0.906-0.763,1.684-1.665,1.687
			c-2.124,0.007-4.248,0.007-6.373,0c-0.865-0.003-1.476-0.62-1.485-1.466c-0.009-0.896,0.653-1.626,1.512-1.636
			c1.086-0.012,2.173-0.003,3.259-0.003c1.038,0,2.076-0.004,3.113,0.001C71.003,69.432,71.667,70.012,71.66,70.845z M55.444,70.144
			c2.888-2.158,5.802-4.279,8.709-6.412c0.468-0.343,0.934-0.691,1.462-1.082c-0.779-0.866-1.493-1.663-2.212-2.456
			c-1.363-1.506-2.728-3.008-4.09-4.514c-0.668-0.739-0.765-1.325-0.345-2.011c0.465-0.759,1.477-1.224,2.255-0.988
			c0.249,0.076,0.499,0.251,0.677,0.445c2.609,2.853,5.208,5.715,7.806,8.579c0.591,0.652,0.526,1.298-0.188,1.822
			c-4.071,2.988-8.147,5.97-12.217,8.96c-0.511,0.375-1.032,0.455-1.587,0.137c-0.575-0.33-0.991-0.811-0.867-1.496
			C54.91,70.771,55.154,70.36,55.444,70.144z"/>
		<path style="fill:#FFFFFF;" d="M53.693,93.207v4.106h22.856v-4.36C97.715,88.2,99.531,70.271,99.531,62.268
			c0-2.534-0.931-12.231-0.931-20.062c0-4.724,0.931-9.523,0.931-9.523H28.679c0,0,0.593,4.547,0.593,9.185
			c0,6.227-0.593,13.704-0.593,20.909C28.679,73.688,31.849,89.28,53.693,93.207z M47.275,72.991l0.995-4.321
			c1.237-5.378,2.475-10.755,3.725-16.128c0.387-1.667,1.291-2.688,2.688-3.037c0.329-0.081,0.662-0.092,0.944-0.092
			c3.41-0.006,6.819-0.004,10.234-0.004h14.375c0.881,0,1.556,0.247,2.006,0.734c0.432,0.468,0.619,1.111,0.556,1.914
			c-0.096,1.205-0.364,2.417-0.602,3.487c-0.887,3.989-1.785,7.976-2.683,11.962l-1.286,5.717c-0.477,2.123-1.99,3.342-4.153,3.342
			H50.439c-0.052,0-0.101,0-0.148,0c-0.259,0-0.454-0.006-0.643-0.035c-0.966-0.154-1.665-0.542-2.079-1.154
			C47.152,74.757,47.053,73.954,47.275,72.991z"/>
	</g>
</g>
<g id="Single_Charcoal_256x256">
</g>
<g id="Single_Olive_16x16">
</g>
<g id="Single_Olive_32x32">
</g>
<g id="Single_Olive_64x64">
</g>
<g id="Single_Olive_128x128">
</g>
<g id="Single_Olive_256x256">
</g>
<g id="Single_Teal_256x256">
</g>
<g id="Single_Teal_16x16">
</g>
<g id="Single_Teal_32x32">
</g>
<g id="Single_Teal_64x64">
</g>
<g id="Single_Teal_16x16_1_">
</g>
<g id="Full_Olive_16x16">
</g>
<g id="Full_Olive_32x32">
</g>
<g id="Full_Olive_64x64">
</g>
<g id="Full_Olive_128x128">
</g>
<g id="Full_Olive_256x256">
</g>
<g id="Full_Teal_16x16">
</g>
<g id="Full_Teal_32x32">
</g>
<g id="Full_Teal_64x64">
</g>
<g id="Full_Teal_128x128">
</g>
<g id="Full_Teal_256x256">
</g>
</svg>
