<?xml version="1.0" encoding="iso-8859-1"?>
<!-- Generator: Adobe Illustrator 19.2.0, SVG Export Plug-In . SVG Version: 6.00 Build 0)  -->
<svg version="1.1" xmlns="http://www.w3.org/2000/svg" xmlns:xlink="http://www.w3.org/1999/xlink" x="0px" y="0px"
	 viewBox="0 0 64 64" style="enable-background:new 0 0 64 64;" xml:space="preserve">
<g id="Single_Charcoal_16x16">
</g>
<g id="Single_Charcoal_32x32">
</g>
<g id="Single_Charcoal_64x64">
</g>
<g id="Single_Charcoal_128x128">
</g>
<g id="Single_Charcoal_256x256">
</g>
<g id="Single_Olive_16x16">
</g>
<g id="Single_Olive_32x32">
</g>
<g id="Single_Olive_64x64">
</g>
<g id="Single_Olive_128x128">
</g>
<g id="Single_Olive_256x256">
</g>
<g id="Single_Teal_256x256">
</g>
<g id="Single_Teal_16x16">
</g>
<g id="Single_Teal_32x32">
</g>
<g id="Single_Teal_64x64">
</g>
<g id="Single_Teal_16x16_1_">
</g>
<g id="Full_Olive_16x16">
</g>
<g id="Full_Olive_32x32">
</g>
<g id="Full_Olive_64x64">
	<path style="fill:#96BC4F;" d="M60.007,63.996H4c-2,0-4-2-4-3.985V4.004c0-1.834,2.4-4,4-4h56.007c1.984,0,3.985,2.252,3.985,4
		v56.007C63.992,61.996,62.033,63.996,60.007,63.996z"/>
	<path style="fill:#7E7E7C;" d="M35.288,6.273c1.198,0,10.357,0,12.35,0c1.884,0,1.911,0.828,1.911,1.389
		c0,3.926-3.61,5.734-3.61,8.609c0,1.307,3.406,10.559,5.137,21.374c1.732,10.815,0.711,17.442,0.711,18.422
		c0,4.345-20.388,5.195-20.388-0.49c0-1.503-0.425-10.194,0.588-17.872c1.236-9.37,5.326-19.636,5.326-21.401
		c0-2.287-3.365-4.738-3.365-8.658C33.948,6.959,34.09,6.273,35.288,6.273z"/>
	<g>
		<path style="fill:#FFFFFF;" d="M37.117,32c0,0-0.013,0.617-0.106,1.234c-0.125,0.829-0.355,1.812-0.5,2.771
			c-0.22,1.452-0.112,3.591,2.717,4.554l-0.083,0.547l3.042,0.46l0.088-0.58c2.913-0.207,3.515-2.556,3.676-3.621
			c0.051-0.337,0.122-1.647,0.28-2.689c0.095-0.629,0.316-1.249,0.316-1.249L37.117,32z"/>
		<g>
			<g>
				<path style="fill:#66B28E;" d="M43.895,35.402c-0.05-0.074-0.135-0.12-0.252-0.138l-1.913-0.289
					c-0.454-0.069-0.908-0.138-1.362-0.205c-0.038-0.006-0.082-0.011-0.127-0.007c-0.193,0.018-0.334,0.136-0.419,0.35
					c-0.274,0.69-0.547,1.381-0.82,2.072l-0.219,0.555c-0.049,0.124-0.052,0.233-0.009,0.323c0.043,0.09,0.128,0.156,0.253,0.195
					c0.025,0.008,0.05,0.012,0.085,0.018c0.006,0.001,0.013,0.002,0.02,0.003l3.146,0.476c0.288,0.044,0.514-0.088,0.62-0.361
					l0.286-0.735c0.2-0.513,0.399-1.025,0.598-1.538c0.053-0.138,0.113-0.294,0.15-0.452C43.955,35.562,43.943,35.473,43.895,35.402
					z M42.32,38.461l-3.174-0.48c-0.063-0.012-0.093-0.029-0.1-0.042c-0.007-0.012-0.006-0.045,0.017-0.103
					c0.178-0.452,0.357-0.905,0.536-1.357l0.328-0.829c0.056-0.142,0.112-0.285,0.17-0.426c0.048-0.116,0.096-0.162,0.177-0.166
					c0.019-0.001,0.041,0.002,0.058,0.004l1.628,0.245l1.628,0.246c0.045,0.007,0.058,0.016,0.059,0.015
					c0.001,0.003,0.002,0.016-0.006,0.048c-0.034,0.128-0.084,0.256-0.138,0.397c-0.216,0.556-0.432,1.113-0.649,1.669l-0.237,0.61
					C42.564,38.426,42.464,38.483,42.32,38.461z"/>
				<path style="fill:#66B28E;" d="M41.43,36.732c-0.086-0.131-0.165-0.251-0.245-0.371c-0.151-0.228-0.303-0.455-0.454-0.683
					c-0.074-0.112-0.075-0.192-0.005-0.275c0.077-0.092,0.221-0.133,0.32-0.086c0.032,0.015,0.061,0.043,0.081,0.073
					c0.29,0.432,0.578,0.865,0.866,1.299c0.066,0.099,0.044,0.183-0.062,0.239c-0.602,0.316-1.204,0.631-1.806,0.947
					c-0.076,0.04-0.147,0.04-0.214-0.014c-0.07-0.055-0.116-0.128-0.085-0.217c0.016-0.046,0.056-0.096,0.099-0.119
					c0.428-0.229,0.858-0.453,1.288-0.678C41.283,36.81,41.352,36.773,41.43,36.732z"/>
				<path style="fill:#66B28E;" d="M41.466,37.66c0.138,0.021,0.276,0.041,0.414,0.063c0.131,0.02,0.207,0.111,0.19,0.222
					c-0.019,0.12-0.135,0.209-0.256,0.191c-0.283-0.042-0.566-0.085-0.848-0.128c-0.115-0.018-0.184-0.112-0.168-0.225
					c0.017-0.119,0.12-0.203,0.234-0.187C41.177,37.615,41.321,37.638,41.466,37.66z"/>
			</g>
		</g>
	</g>
	<g>
		<path style="fill:#FFFFFF;" d="M36.855,40.292c0,0,0.188,0.588,0.301,1.202c0.151,0.825,0.253,1.829,0.427,2.783
			c0.264,1.445,1.061,3.433,4.048,3.424l0.099,0.544l3.026-0.553l-0.105-0.577c2.688-1.141,2.495-3.559,2.301-4.619
			c-0.061-0.336-0.419-1.597-0.609-2.634c-0.114-0.626-0.107-1.284-0.107-1.284L36.855,40.292z"/>
		<g>
			<path style="fill:#96BC4F;" d="M44.37,41.308c-0.071-0.054-0.167-0.07-0.283-0.049l-1.904,0.348
				c-0.452,0.083-0.904,0.165-1.355,0.248c-0.037,0.007-0.081,0.016-0.123,0.035c-0.177,0.08-0.272,0.237-0.283,0.467
				c-0.035,0.742-0.069,1.484-0.103,2.226l-0.027,0.596c-0.006,0.133,0.026,0.237,0.096,0.308c0.07,0.071,0.172,0.106,0.303,0.103
				c0.026-0.001,0.052-0.005,0.086-0.011c0.006-0.001,0.013-0.002,0.02-0.004l3.13-0.572c0.286-0.052,0.457-0.25,0.469-0.543
				l0.032-0.788c0.022-0.55,0.045-1.099,0.066-1.649c0.006-0.147,0.012-0.314-0.005-0.476C44.479,41.44,44.439,41.36,44.37,41.308z
				 M43.875,44.713l-3.158,0.577c-0.064,0.01-0.098,0.003-0.108-0.007c-0.01-0.009-0.02-0.041-0.017-0.102
				c0.022-0.486,0.044-0.972,0.067-1.458l0.041-0.891c0.007-0.153,0.013-0.306,0.022-0.458c0.007-0.126,0.038-0.184,0.113-0.215
				c0.018-0.007,0.039-0.012,0.057-0.015l1.619-0.297l1.619-0.296c0.045-0.008,0.06-0.004,0.06-0.005
				c0.001,0.003,0.007,0.015,0.01,0.047c0.009,0.132,0.004,0.269-0.002,0.42c-0.023,0.596-0.047,1.193-0.071,1.789L44.1,44.457
				C44.094,44.601,44.018,44.687,43.875,44.713z"/>
			<path style="fill:#96BC4F;" d="M42.471,43.366c-0.124-0.096-0.238-0.184-0.352-0.272c-0.217-0.166-0.434-0.332-0.651-0.499
				c-0.106-0.082-0.133-0.157-0.094-0.258c0.043-0.112,0.166-0.198,0.275-0.185c0.035,0.004,0.072,0.021,0.1,0.043
				c0.415,0.315,0.828,0.631,1.241,0.947c0.094,0.072,0.101,0.159,0.019,0.246c-0.467,0.494-0.934,0.988-1.401,1.482
				c-0.059,0.062-0.126,0.085-0.207,0.057c-0.084-0.03-0.151-0.083-0.151-0.177c0-0.049,0.022-0.109,0.055-0.145
				c0.33-0.356,0.665-0.707,0.998-1.06C42.357,43.488,42.411,43.431,42.471,43.366z"/>
			<path style="fill:#96BC4F;" d="M42.806,44.233c0.137-0.025,0.275-0.051,0.412-0.075c0.13-0.023,0.232,0.038,0.251,0.148
				c0.021,0.12-0.06,0.241-0.18,0.264c-0.281,0.052-0.562,0.104-0.844,0.154c-0.115,0.021-0.211-0.046-0.232-0.158
				c-0.023-0.118,0.047-0.231,0.161-0.253C42.518,44.284,42.662,44.259,42.806,44.233z"/>
		</g>
	</g>
	<g>
		<path style="fill:#FFFFFF;" d="M37.514,46.064c0,0,0.08,0.612,0.08,1.236c0,0.838-0.08,1.845-0.08,2.814
			c0,1.469,0.427,3.568,3.367,4.096v0.553h3.077v-0.587c2.849-0.64,3.094-3.053,3.094-4.13c0-0.341-0.125-1.646-0.125-2.701
			c0-0.636,0.125-1.282,0.125-1.282H37.514z"/>
		<g>
			<path style="fill:#66B28E;" d="M44.724,48.414c-0.061-0.066-0.151-0.099-0.27-0.099h-1.935c-0.46,0-0.919,0-1.378,0.001
				c-0.038,0-0.083,0.002-0.127,0.012c-0.188,0.047-0.31,0.185-0.362,0.409c-0.168,0.723-0.335,1.447-0.501,2.171l-0.134,0.582
				c-0.03,0.13-0.017,0.238,0.039,0.321c0.056,0.082,0.15,0.135,0.28,0.155c0.026,0.004,0.052,0.005,0.087,0.005
				c0.006,0,0.013,0,0.02,0h3.181c0.291,0,0.495-0.164,0.559-0.45l0.173-0.77c0.121-0.537,0.242-1.073,0.361-1.61
				c0.032-0.144,0.068-0.307,0.081-0.469C44.807,48.564,44.782,48.477,44.724,48.414z M43.625,51.675h-3.211
				c-0.064-0.002-0.096-0.015-0.105-0.026c-0.008-0.011-0.012-0.044,0.001-0.104c0.109-0.474,0.218-0.948,0.327-1.422l0.2-0.869
				c0.034-0.149,0.068-0.298,0.104-0.447c0.03-0.122,0.071-0.174,0.15-0.191c0.019-0.004,0.041-0.004,0.058-0.004l1.646-0.001h1.646
				c0.045,0,0.06,0.007,0.06,0.006c0.001,0.003,0.005,0.016,0.001,0.048c-0.014,0.131-0.044,0.265-0.077,0.413
				c-0.13,0.582-0.261,1.165-0.392,1.747l-0.143,0.638C43.86,51.604,43.77,51.675,43.625,51.675z"/>
			<path style="fill:#66B28E;" d="M42.486,50.098c-0.105-0.117-0.201-0.224-0.298-0.331c-0.183-0.203-0.367-0.405-0.551-0.608
				c-0.09-0.099-0.103-0.178-0.046-0.271c0.063-0.102,0.199-0.165,0.304-0.133c0.034,0.01,0.067,0.034,0.091,0.06
				c0.351,0.384,0.701,0.769,1.051,1.155c0.08,0.088,0.071,0.175-0.025,0.245c-0.548,0.402-1.097,0.804-1.645,1.206
				c-0.069,0.051-0.139,0.061-0.214,0.018c-0.077-0.044-0.133-0.109-0.117-0.201c0.009-0.048,0.042-0.103,0.081-0.132
				c0.389-0.29,0.781-0.576,1.172-0.863C42.352,50.197,42.414,50.151,42.486,50.098z"/>
			<path style="fill:#66B28E;" d="M42.66,51.01c0.14,0,0.279-0.001,0.419,0c0.132,0.001,0.221,0.079,0.221,0.191
				c-0.001,0.122-0.103,0.227-0.224,0.227c-0.286,0.001-0.572,0.001-0.858,0c-0.116,0-0.199-0.083-0.2-0.197
				c-0.001-0.121,0.088-0.219,0.203-0.22C42.367,51.009,42.513,51.01,42.66,51.01z"/>
		</g>
	</g>
</g>
<g id="Full_Olive_128x128">
</g>
<g id="Full_Olive_256x256">
</g>
<g id="Full_Teal_16x16">
</g>
<g id="Full_Teal_32x32">
</g>
<g id="Full_Teal_64x64">
</g>
<g id="Full_Teal_128x128">
</g>
<g id="Full_Teal_256x256">
</g>
</svg>
