<?xml version="1.0" encoding="iso-8859-1"?>
<!-- Generator: Adobe Illustrator 19.2.0, SVG Export Plug-In . SVG Version: 6.00 Build 0)  -->
<svg version="1.1" xmlns="http://www.w3.org/2000/svg" xmlns:xlink="http://www.w3.org/1999/xlink" x="0px" y="0px"
	 viewBox="0 0 256 256" style="enable-background:new 0 0 256 256;" xml:space="preserve">
<g id="Single_Charcoal_16x16">
</g>
<g id="Single_Charcoal_32x32">
</g>
<g id="Single_Charcoal_64x64">
</g>
<g id="Single_Charcoal_128x128">
</g>
<g id="Single_Charcoal_256x256">
</g>
<g id="Single_Olive_16x16">
</g>
<g id="Single_Olive_32x32">
</g>
<g id="Single_Olive_64x64">
</g>
<g id="Single_Olive_128x128">
</g>
<g id="Single_Olive_256x256">
</g>
<g id="Single_Teal_256x256">
</g>
<g id="Single_Teal_16x16">
</g>
<g id="Single_Teal_32x32">
</g>
<g id="Single_Teal_64x64">
</g>
<g id="Single_Teal_16x16_1_">
</g>
<g id="Full_Olive_16x16">
</g>
<g id="Full_Olive_32x32">
</g>
<g id="Full_Olive_64x64">
</g>
<g id="Full_Olive_128x128">
</g>
<g id="Full_Olive_256x256">
	<path style="fill:#96BC4F;" d="M240.06,256H16.004C8.002,256,0,247.998,0,240.06V16.004C0,8.669,9.603,0,16.004,0H240.06
		C247.998,0,256,9.008,256,16.004V240.06C256,247.998,248.162,256,240.06,256z"/>
	<path style="fill:#7E7E7C;" d="M141.179,25.01c4.796,0,41.463,0,49.441,0c7.543,0,7.652,3.314,7.652,5.559
		c0,15.717-14.453,22.955-14.453,34.465c0,5.232,13.634,42.27,20.566,85.564c6.932,43.294,2.847,69.823,2.847,73.747
		c0,17.396-81.617,20.797-81.617-1.962c0-6.017-1.7-40.809,2.354-71.546c4.948-37.51,21.32-78.609,21.32-85.672
		c0-9.156-13.472-18.966-13.472-34.661C135.816,27.756,136.383,25.01,141.179,25.01z"/>
	<g>
		<path style="fill:#FFFFFF;" d="M148.501,128c0,0-0.051,2.47-0.424,4.941c-0.502,3.318-1.42,7.254-2,11.093
			c-0.879,5.814-0.447,14.377,10.876,18.229l-0.331,2.188l12.178,1.841l0.351-2.323c11.661-0.827,14.073-10.233,14.718-14.497
			c0.204-1.35,0.489-6.592,1.12-10.764c0.381-2.517,1.263-4.999,1.263-4.999L148.501,128z"/>
		<g>
			<g>
				<path style="fill:#66B28E;" d="M175.633,141.618c-0.201-0.296-0.54-0.482-1.01-0.553l-7.659-1.158
					c-1.819-0.275-3.636-0.551-5.453-0.822c-0.15-0.023-0.328-0.044-0.51-0.027c-0.773,0.073-1.337,0.545-1.677,1.402
					c-1.099,2.763-2.191,5.528-3.284,8.293l-0.878,2.222c-0.196,0.495-0.208,0.931-0.036,1.293c0.171,0.36,0.512,0.623,1.015,0.783
					c0.099,0.031,0.202,0.05,0.34,0.07c0.025,0.004,0.051,0.008,0.079,0.012l12.593,1.904c1.152,0.174,2.057-0.353,2.482-1.446
					l1.146-2.943c0.799-2.052,1.599-4.103,2.393-6.157c0.213-0.551,0.453-1.175,0.601-1.809
					C175.873,142.26,175.826,141.902,175.633,141.618z M169.331,153.867l-12.708-1.922c-0.253-0.047-0.373-0.117-0.4-0.166
					c-0.027-0.048-0.023-0.181,0.067-0.41c0.714-1.811,1.431-3.622,2.147-5.432l1.313-3.32c0.224-0.57,0.447-1.14,0.679-1.707
					c0.191-0.466,0.383-0.647,0.709-0.666c0.076-0.004,0.164,0.007,0.234,0.018l6.517,0.982l6.516,0.985
					c0.179,0.027,0.233,0.063,0.236,0.058c0.002,0.012,0.009,0.064-0.025,0.192c-0.135,0.51-0.335,1.024-0.553,1.588
					c-0.863,2.228-1.73,4.455-2.597,6.682l-0.95,2.44C170.305,153.725,169.907,153.954,169.331,153.867z"/>
				<path style="fill:#66B28E;" d="M165.766,146.942c-0.345-0.524-0.662-1.006-0.98-1.487c-0.605-0.912-1.211-1.823-1.816-2.735
					c-0.296-0.447-0.301-0.768-0.022-1.099c0.309-0.367,0.885-0.533,1.281-0.345c0.127,0.06,0.245,0.174,0.325,0.292
					c1.16,1.73,2.315,3.465,3.468,5.2c0.263,0.395,0.175,0.734-0.247,0.956c-2.41,1.264-4.822,2.524-7.231,3.789
					c-0.303,0.159-0.587,0.16-0.857-0.055c-0.28-0.222-0.463-0.512-0.341-0.867c0.063-0.185,0.226-0.384,0.398-0.476
					c1.713-0.917,3.436-1.813,5.157-2.715C165.177,147.256,165.453,147.108,165.766,146.942z"/>
				<path style="fill:#66B28E;" d="M165.909,150.658c0.553,0.084,1.106,0.165,1.659,0.251c0.522,0.082,0.83,0.444,0.759,0.887
					c-0.077,0.482-0.542,0.836-1.023,0.765c-1.132-0.167-2.264-0.338-3.395-0.514c-0.46-0.071-0.737-0.449-0.673-0.901
					c0.067-0.478,0.479-0.814,0.937-0.75C164.752,150.478,165.33,150.57,165.909,150.658z"/>
			</g>
		</g>
	</g>
	<g>
		<path style="fill:#FFFFFF;" d="M147.453,161.194c0,0,0.754,2.353,1.203,4.811c0.603,3.301,1.013,7.322,1.711,11.141
			c1.057,5.784,4.247,13.742,16.207,13.709l0.398,2.177l12.116-2.213l-0.422-2.311c10.76-4.569,9.987-14.249,9.212-18.491
			c-0.245-1.343-1.678-6.394-2.436-10.545c-0.457-2.504-0.429-5.138-0.429-5.138L147.453,161.194z"/>
		<g>
			<path style="fill:#96BC4F;" d="M177.537,165.262c-0.286-0.215-0.667-0.28-1.134-0.195l-7.62,1.392
				c-1.81,0.331-3.618,0.66-5.425,0.993c-0.149,0.027-0.325,0.065-0.491,0.14c-0.707,0.32-1.087,0.949-1.131,1.87
				c-0.142,2.97-0.278,5.94-0.413,8.91l-0.109,2.387c-0.024,0.532,0.105,0.948,0.386,1.235c0.279,0.285,0.687,0.423,1.214,0.411
				c0.103-0.003,0.207-0.019,0.344-0.044c0.025-0.005,0.051-0.009,0.078-0.014l12.529-2.289c1.146-0.209,1.831-1.002,1.878-2.173
				l0.128-3.155c0.09-2.2,0.18-4.4,0.264-6.601c0.022-0.59,0.047-1.259-0.019-1.907
				C177.973,165.792,177.811,165.469,177.537,165.262z M175.555,178.894l-12.643,2.31c-0.255,0.038-0.391,0.011-0.433-0.027
				c-0.041-0.037-0.08-0.163-0.07-0.41c0.087-1.945,0.177-3.89,0.267-5.835l0.163-3.567c0.026-0.612,0.052-1.224,0.088-1.835
				c0.029-0.503,0.153-0.737,0.454-0.861c0.071-0.028,0.158-0.046,0.227-0.059l6.482-1.187l6.483-1.184
				c0.178-0.033,0.241-0.016,0.242-0.021c0.006,0.01,0.029,0.058,0.038,0.189c0.038,0.527,0.016,1.077-0.008,1.681
				c-0.093,2.387-0.189,4.775-0.286,7.163l-0.106,2.617C176.43,178.444,176.128,178.789,175.555,178.894z"/>
			<path style="fill:#96BC4F;" d="M169.934,173.503c-0.497-0.383-0.953-0.737-1.41-1.088c-0.868-0.666-1.738-1.33-2.605-1.997
				c-0.425-0.327-0.534-0.629-0.377-1.033c0.173-0.448,0.664-0.792,1.1-0.742c0.139,0.016,0.289,0.085,0.402,0.171
				c1.659,1.26,3.314,2.525,4.968,3.792c0.377,0.288,0.404,0.637,0.077,0.984c-1.869,1.978-3.741,3.954-5.609,5.933
				c-0.235,0.249-0.503,0.341-0.828,0.226c-0.337-0.119-0.604-0.334-0.604-0.709c0-0.195,0.089-0.437,0.222-0.579
				c1.322-1.423,2.661-2.83,3.996-4.242C169.479,173.99,169.692,173.761,169.934,173.503z"/>
			<path style="fill:#96BC4F;" d="M171.276,176.97c0.55-0.101,1.1-0.203,1.65-0.301c0.521-0.092,0.929,0.15,1.006,0.593
				c0.084,0.481-0.241,0.967-0.719,1.056c-1.125,0.21-2.251,0.415-3.378,0.617c-0.459,0.082-0.843-0.186-0.929-0.633
				c-0.092-0.474,0.189-0.925,0.643-1.014C170.123,177.176,170.7,177.075,171.276,176.97z"/>
		</g>
	</g>
	<g>
		<path style="fill:#FFFFFF;" d="M150.089,184.302c0,0,0.319,2.45,0.319,4.949c0,3.355-0.319,7.385-0.319,11.267
			c0,5.88,1.708,14.282,13.479,16.398v2.213h12.316v-2.35c11.406-2.561,12.385-12.223,12.385-16.535
			c0-1.366-0.502-6.591-0.502-10.811c0-2.546,0.502-5.132,0.502-5.132H150.089z"/>
		<g>
			<path style="fill:#66B28E;" d="M178.952,193.71c-0.243-0.262-0.606-0.396-1.081-0.396h-7.746c-1.84,0-3.677-0.001-5.515,0.002
				c-0.152,0-0.331,0.006-0.508,0.05c-0.753,0.188-1.24,0.739-1.449,1.637c-0.673,2.896-1.34,5.793-2.007,8.691l-0.536,2.329
				c-0.12,0.519-0.067,0.951,0.158,1.284c0.223,0.33,0.6,0.539,1.12,0.622c0.102,0.016,0.207,0.019,0.347,0.019
				c0.025,0,0.052,0,0.08,0h12.736c1.165,0,1.981-0.657,2.238-1.801l0.693-3.081c0.484-2.148,0.968-4.296,1.446-6.446
				c0.128-0.576,0.273-1.23,0.324-1.879C179.286,194.309,179.185,193.962,178.952,193.71z M174.553,206.764H161.7
				c-0.258-0.008-0.386-0.059-0.421-0.105c-0.033-0.044-0.05-0.175,0.005-0.416c0.435-1.898,0.873-3.795,1.311-5.692l0.801-3.479
				c0.136-0.597,0.272-1.194,0.416-1.789c0.119-0.49,0.282-0.697,0.601-0.765c0.074-0.015,0.164-0.017,0.234-0.017l6.59-0.003h6.59
				c0.181,0,0.24,0.028,0.242,0.023c0.004,0.011,0.018,0.062,0.004,0.193c-0.058,0.525-0.178,1.063-0.31,1.652
				c-0.52,2.332-1.044,4.663-1.569,6.995l-0.574,2.555C175.495,206.478,175.135,206.764,174.553,206.764z"/>
			<path style="fill:#66B28E;" d="M169.992,200.45c-0.42-0.467-0.805-0.896-1.192-1.324c-0.734-0.811-1.47-1.621-2.204-2.433
				c-0.36-0.398-0.412-0.714-0.186-1.084c0.251-0.409,0.796-0.66,1.215-0.533c0.134,0.041,0.269,0.135,0.365,0.24
				c1.406,1.537,2.807,3.08,4.206,4.623c0.319,0.352,0.283,0.699-0.102,0.982c-2.194,1.61-4.39,3.217-6.584,4.828
				c-0.275,0.202-0.556,0.245-0.855,0.074c-0.31-0.178-0.534-0.437-0.467-0.806c0.035-0.192,0.166-0.413,0.322-0.53
				c1.556-1.163,3.127-2.306,4.693-3.455C169.457,200.848,169.707,200.661,169.992,200.45z"/>
			<path style="fill:#66B28E;" d="M170.689,204.102c0.559,0,1.118-0.002,1.678,0.001c0.529,0.003,0.887,0.315,0.883,0.764
				c-0.004,0.488-0.411,0.908-0.897,0.909c-1.145,0.004-2.289,0.004-3.434,0c-0.466-0.002-0.796-0.334-0.8-0.79
				c-0.005-0.483,0.352-0.876,0.815-0.882C169.518,204.097,170.104,204.102,170.689,204.102z"/>
		</g>
	</g>
</g>
<g id="Full_Teal_16x16">
</g>
<g id="Full_Teal_32x32">
</g>
<g id="Full_Teal_64x64">
</g>
<g id="Full_Teal_128x128">
</g>
<g id="Full_Teal_256x256">
</g>
</svg>
