<?xml version="1.0" encoding="iso-8859-1"?>
<!-- Generator: Adobe Illustrator 19.2.0, SVG Export Plug-In . SVG Version: 6.00 Build 0)  -->
<svg version="1.1" xmlns="http://www.w3.org/2000/svg" xmlns:xlink="http://www.w3.org/1999/xlink" x="0px" y="0px"
	 viewBox="0 0 64 64" style="enable-background:new 0 0 64 64;" xml:space="preserve">
<g id="Single_Charcoal_16x16">
</g>
<g id="Single_Charcoal_32x32">
</g>
<g id="Single_Charcoal_64x64">
</g>
<g id="Single_Charcoal_128x128">
</g>
<g id="Single_Charcoal_256x256">
</g>
<g id="Single_Olive_16x16">
</g>
<g id="Single_Olive_32x32">
</g>
<g id="Single_Olive_64x64">
	<path style="fill:#96BC4F;" d="M60.015,63.998H4.001c-2,0-4.001-2-4.001-3.985V4.003c0-1.834,2.401-4.001,4.001-4.001h56.014
		C62,0.002,64,2.254,64,4.003v56.01C64,61.998,62.04,63.998,60.015,63.998z"/>
	<g>
		<path style="fill:#FFFFFF;" d="M25.612,37.184h11.925c0.541,0,0.874-0.265,0.992-0.787l0.533-2.371
			c0.486-2.163,0.973-4.327,1.455-6.49c0.122-0.547,0.234-1.046,0.287-1.533c0.013-0.121,0-0.169-0.003-0.179
			c-0.002,0.005-0.056-0.021-0.224-0.021h-6.114l-6.115,0.003c-0.065,0-0.148,0.002-0.217,0.016
			c-0.296,0.063-0.447,0.255-0.558,0.71c-0.134,0.552-0.26,1.106-0.386,1.66l-0.744,3.228c-0.406,1.76-0.813,3.521-1.216,5.282
			c-0.051,0.223-0.036,0.345-0.005,0.386C25.254,37.129,25.373,37.176,25.612,37.184z M36.329,35.423
			c-0.004,0.453-0.381,0.842-0.833,0.844c-1.062,0.004-2.124,0.004-3.186,0c-0.432-0.001-0.738-0.31-0.742-0.733
			c-0.005-0.448,0.326-0.813,0.756-0.818c0.543-0.006,1.086-0.001,1.63-0.002c0.519,0,1.038-0.002,1.557,0
			C36,34.717,36.332,35.007,36.329,35.423z M28.221,35.073c1.444-1.079,2.901-2.14,4.354-3.206c0.234-0.172,0.467-0.345,0.731-0.541
			c-0.39-0.433-0.747-0.831-1.106-1.228c-0.681-0.753-1.364-1.504-2.045-2.257c-0.334-0.369-0.382-0.663-0.172-1.005
			c0.233-0.38,0.738-0.612,1.127-0.494c0.125,0.038,0.249,0.125,0.338,0.223c1.305,1.426,2.604,2.857,3.903,4.289
			c0.296,0.326,0.263,0.649-0.094,0.911c-2.036,1.494-4.073,2.985-6.109,4.48c-0.256,0.188-0.516,0.228-0.794,0.068
			c-0.287-0.165-0.495-0.405-0.433-0.748C27.954,35.386,28.076,35.181,28.221,35.073z"/>
		<path style="fill:#FFFFFF;" d="M27.346,46.604v2.053h11.427v-2.18c10.583-2.376,11.491-11.341,11.491-15.342
			c0-1.267-0.466-6.115-0.466-10.031c0-2.362,0.466-4.761,0.466-4.761H14.839c0,0,0.296,2.273,0.296,4.592
			c0,3.113-0.296,6.852-0.296,10.454C14.839,36.845,16.424,44.64,27.346,46.604z M24.137,36.496l0.498-2.161
			c0.619-2.689,1.238-5.377,1.862-8.064c0.193-0.833,0.646-1.344,1.344-1.519c0.164-0.04,0.331-0.046,0.472-0.046
			c1.705-0.003,3.409-0.002,5.117-0.002h7.187c0.44,0,0.778,0.123,1.003,0.367c0.216,0.234,0.31,0.556,0.278,0.957
			c-0.048,0.602-0.182,1.209-0.301,1.743c-0.443,1.995-0.893,3.988-1.341,5.981l-0.643,2.858c-0.238,1.061-0.995,1.671-2.076,1.671
			H25.719c-0.026,0-0.051,0-0.074,0c-0.129,0-0.227-0.003-0.322-0.017c-0.483-0.077-0.833-0.271-1.039-0.577
			C24.075,37.379,24.026,36.978,24.137,36.496z"/>
	</g>
</g>
<g id="Single_Olive_128x128">
</g>
<g id="Single_Olive_256x256">
</g>
<g id="Single_Teal_256x256">
</g>
<g id="Single_Teal_16x16">
</g>
<g id="Single_Teal_32x32">
</g>
<g id="Single_Teal_64x64">
</g>
<g id="Single_Teal_16x16_1_">
</g>
<g id="Full_Olive_16x16">
</g>
<g id="Full_Olive_32x32">
</g>
<g id="Full_Olive_64x64">
</g>
<g id="Full_Olive_128x128">
</g>
<g id="Full_Olive_256x256">
</g>
<g id="Full_Teal_16x16">
</g>
<g id="Full_Teal_32x32">
</g>
<g id="Full_Teal_64x64">
</g>
<g id="Full_Teal_128x128">
</g>
<g id="Full_Teal_256x256">
</g>
</svg>
