<?xml version="1.0" encoding="iso-8859-1"?>
<!-- Generator: Adobe Illustrator 19.2.0, SVG Export Plug-In . SVG Version: 6.00 Build 0)  -->
<svg version="1.1" xmlns="http://www.w3.org/2000/svg" xmlns:xlink="http://www.w3.org/1999/xlink" x="0px" y="0px"
	 viewBox="0 0 16 16" style="enable-background:new 0 0 16 16;" xml:space="preserve">
<g id="Single_Charcoal_16x16">
</g>
<g id="Single_Charcoal_32x32">
</g>
<g id="Single_Charcoal_64x64">
</g>
<g id="Single_Charcoal_128x128">
</g>
<g id="Single_Charcoal_256x256">
</g>
<g id="Single_Olive_16x16">
</g>
<g id="Single_Olive_32x32">
</g>
<g id="Single_Olive_64x64">
</g>
<g id="Single_Olive_128x128">
</g>
<g id="Single_Olive_256x256">
</g>
<g id="Single_Teal_256x256">
</g>
<g id="Single_Teal_16x16">
</g>
<g id="Single_Teal_32x32">
</g>
<g id="Single_Teal_64x64">
</g>
<g id="Single_Teal_16x16_1_">
</g>
<g id="Full_Olive_16x16">
	<path style="fill:#96BC4F;" d="M15,15.996H1c-0.5,0-1-0.5-1-0.996V1c0-0.458,0.6-1,1-1h14c0.496,0,0.996,0.563,0.996,1v14
		C15.996,15.496,15.506,15.996,15,15.996z"/>
	<path style="fill:#7E7E7C;" d="M8.821,1.567c0.299,0,2.589,0,3.087,0c0.471,0,0.478,0.207,0.478,0.347
		c0,0.981-0.902,1.433-0.902,2.152c0,0.327,0.851,2.639,1.284,5.343s0.178,4.36,0.178,4.605c0,1.086-5.096,1.299-5.096-0.123
		c0-0.376-0.106-2.548,0.147-4.467c0.309-2.342,1.331-4.908,1.331-5.349c0-0.572-0.841-1.184-0.841-2.164
		C8.486,1.739,8.521,1.567,8.821,1.567z"/>
	<g>
		<path style="fill:#FFFFFF;" d="M9.278,7.998c0,0-0.003,0.154-0.026,0.309C9.22,8.514,9.163,8.76,9.127,8.999
			c-0.055,0.363-0.028,0.898,0.679,1.138l-0.021,0.137l0.76,0.115l0.022-0.145c0.728-0.052,0.879-0.639,0.919-0.905
			c0.013-0.084,0.031-0.412,0.07-0.672c0.024-0.157,0.079-0.312,0.079-0.312L9.278,7.998z"/>
		<g>
			<g>
				<path style="fill:#66B28E;" d="M10.972,8.848c-0.013-0.018-0.034-0.03-0.063-0.035l-0.478-0.072
					c-0.114-0.017-0.227-0.034-0.34-0.051c-0.009-0.001-0.021-0.003-0.032-0.002C10.01,8.693,9.975,8.722,9.954,8.776
					C9.885,8.948,9.817,9.121,9.749,9.294L9.694,9.433C9.682,9.464,9.681,9.491,9.692,9.513c0.011,0.022,0.032,0.039,0.063,0.049
					c0.006,0.002,0.013,0.003,0.021,0.004c0.002,0,0.003,0,0.005,0.001l0.786,0.119c0.072,0.011,0.128-0.022,0.155-0.09l0.072-0.184
					c0.05-0.128,0.1-0.256,0.149-0.384c0.013-0.034,0.028-0.073,0.038-0.113C10.987,8.888,10.984,8.866,10.972,8.848z M10.579,9.613
					l-0.794-0.12C9.769,9.49,9.762,9.486,9.76,9.483C9.759,9.48,9.759,9.472,9.764,9.457c0.045-0.113,0.089-0.226,0.134-0.339
					l0.082-0.207c0.014-0.036,0.028-0.071,0.042-0.107c0.012-0.029,0.024-0.04,0.044-0.042c0.005,0,0.01,0,0.015,0.001l0.407,0.061
					l0.407,0.062C10.907,8.888,10.91,8.89,10.91,8.89c0,0.001,0.001,0.004-0.002,0.012c-0.008,0.032-0.021,0.064-0.035,0.099
					c-0.054,0.139-0.108,0.278-0.162,0.417l-0.059,0.152C10.64,9.604,10.615,9.619,10.579,9.613z"/>
				<path style="fill:#66B28E;" d="M10.356,9.181c-0.022-0.033-0.041-0.063-0.061-0.093c-0.038-0.057-0.076-0.114-0.113-0.171
					c-0.018-0.028-0.019-0.048-0.001-0.069c0.019-0.023,0.055-0.033,0.08-0.022c0.008,0.004,0.015,0.011,0.02,0.018
					c0.072,0.108,0.145,0.216,0.217,0.325c0.016,0.025,0.011,0.046-0.015,0.06c-0.15,0.079-0.301,0.158-0.452,0.237
					c-0.019,0.01-0.037,0.01-0.053-0.003C9.959,9.449,9.948,9.431,9.955,9.409c0.004-0.012,0.014-0.024,0.025-0.03
					c0.107-0.057,0.215-0.113,0.322-0.17C10.319,9.2,10.337,9.191,10.356,9.181z"/>
				<path style="fill:#66B28E;" d="M10.365,9.413c0.035,0.005,0.069,0.01,0.104,0.016c0.033,0.005,0.052,0.028,0.047,0.055
					c-0.005,0.03-0.034,0.052-0.064,0.048C10.381,9.521,10.311,9.51,10.24,9.5c-0.029-0.004-0.046-0.028-0.042-0.056
					c0.004-0.03,0.03-0.051,0.059-0.047C10.293,9.402,10.329,9.407,10.365,9.413z"/>
			</g>
		</g>
	</g>
	<g>
		<path style="fill:#FFFFFF;" d="M9.213,10.071c0,0,0.047,0.147,0.075,0.3c0.038,0.206,0.063,0.457,0.107,0.696
			c0.066,0.361,0.265,0.858,1.012,0.856l0.025,0.136l0.757-0.138l-0.026-0.144c0.672-0.285,0.624-0.89,0.575-1.155
			c-0.015-0.084-0.105-0.399-0.152-0.658c-0.029-0.156-0.027-0.321-0.027-0.321L9.213,10.071z"/>
		<g>
			<path style="fill:#96BC4F;" d="M11.091,10.325c-0.018-0.013-0.042-0.017-0.071-0.012l-0.476,0.087
				c-0.113,0.021-0.226,0.041-0.339,0.062c-0.009,0.002-0.02,0.004-0.031,0.009c-0.044,0.02-0.068,0.059-0.071,0.117
				c-0.009,0.185-0.017,0.371-0.026,0.556l-0.007,0.149c-0.002,0.033,0.007,0.059,0.024,0.077c0.017,0.018,0.043,0.026,0.076,0.026
				c0.006,0,0.013-0.001,0.022-0.003c0.002,0,0.003-0.001,0.005-0.001l0.782-0.143c0.072-0.013,0.114-0.063,0.117-0.136l0.008-0.197
				c0.006-0.137,0.011-0.275,0.016-0.412c0.001-0.037,0.003-0.079-0.001-0.119C11.118,10.358,11.108,10.338,11.091,10.325z
				 M10.967,11.176l-0.789,0.144c-0.016,0.002-0.024,0.001-0.027-0.002c-0.003-0.002-0.005-0.01-0.004-0.026
				c0.005-0.121,0.011-0.243,0.017-0.364l0.01-0.223c0.002-0.038,0.003-0.076,0.005-0.115c0.002-0.031,0.01-0.046,0.028-0.054
				c0.004-0.002,0.01-0.003,0.014-0.004l0.405-0.074l0.405-0.074c0.011-0.002,0.015-0.001,0.015-0.001
				c0,0.001,0.002,0.004,0.002,0.012c0.002,0.033,0.001,0.067,0,0.105c-0.006,0.149-0.012,0.298-0.018,0.447l-0.007,0.163
				C11.022,11.148,11.003,11.169,10.967,11.176z"/>
			<path style="fill:#96BC4F;" d="M10.616,10.839c-0.031-0.024-0.059-0.046-0.088-0.068c-0.054-0.042-0.109-0.083-0.163-0.125
				c-0.027-0.02-0.033-0.039-0.024-0.064c0.011-0.028,0.041-0.049,0.069-0.046c0.009,0.001,0.018,0.005,0.025,0.011
				c0.104,0.079,0.207,0.158,0.31,0.237c0.024,0.018,0.025,0.04,0.005,0.061c-0.117,0.124-0.234,0.247-0.35,0.37
				c-0.015,0.016-0.031,0.021-0.052,0.014c-0.021-0.007-0.038-0.021-0.038-0.044c0-0.012,0.006-0.027,0.014-0.036
				c0.083-0.089,0.166-0.177,0.249-0.265C10.588,10.87,10.601,10.855,10.616,10.839z"/>
			<path style="fill:#96BC4F;" d="M10.7,11.056c0.034-0.006,0.069-0.013,0.103-0.019c0.033-0.006,0.058,0.009,0.063,0.037
				c0.005,0.03-0.015,0.06-0.045,0.066c-0.07,0.013-0.141,0.026-0.211,0.039c-0.029,0.005-0.053-0.012-0.058-0.04
				c-0.006-0.03,0.012-0.058,0.04-0.063C10.628,11.069,10.664,11.062,10.7,11.056z"/>
		</g>
	</g>
	<g>
		<path style="fill:#FFFFFF;" d="M9.377,11.514c0,0,0.02,0.153,0.02,0.309c0,0.21-0.02,0.461-0.02,0.704
			c0,0.367,0.107,0.892,0.842,1.024v0.138h0.769v-0.147c0.712-0.16,0.773-0.763,0.773-1.032c0-0.085-0.031-0.412-0.031-0.675
			c0-0.159,0.031-0.32,0.031-0.32H9.377z"/>
		<g>
			<path style="fill:#66B28E;" d="M11.18,12.101c-0.015-0.016-0.038-0.025-0.067-0.025h-0.484c-0.115,0-0.23,0-0.344,0
				c-0.009,0-0.021,0-0.032,0.003c-0.047,0.012-0.077,0.046-0.09,0.102c-0.042,0.181-0.084,0.362-0.125,0.543l-0.033,0.145
				c-0.007,0.032-0.004,0.059,0.01,0.08c0.014,0.021,0.037,0.034,0.07,0.039c0.006,0.001,0.013,0.001,0.022,0.001
				c0.002,0,0.003,0,0.005,0h0.795c0.073,0,0.124-0.041,0.14-0.112l0.043-0.192c0.03-0.134,0.06-0.268,0.09-0.402
				c0.008-0.036,0.017-0.077,0.02-0.117C11.2,12.138,11.194,12.117,11.18,12.101z M10.905,12.916h-0.803
				c-0.016-0.001-0.024-0.004-0.026-0.007c-0.002-0.003-0.003-0.011,0-0.026c0.027-0.118,0.055-0.237,0.082-0.355l0.05-0.217
				c0.008-0.037,0.017-0.075,0.026-0.112c0.007-0.031,0.018-0.044,0.038-0.048c0.005-0.001,0.01-0.001,0.015-0.001l0.412,0h0.411
				c0.011,0,0.015,0.002,0.015,0.001c0,0.001,0.001,0.004,0,0.012c-0.004,0.033-0.011,0.066-0.019,0.103
				c-0.032,0.146-0.065,0.291-0.098,0.437l-0.036,0.16C10.964,12.898,10.941,12.916,10.905,12.916z"/>
			<path style="fill:#66B28E;" d="M10.62,12.522c-0.026-0.029-0.05-0.056-0.074-0.083c-0.046-0.051-0.092-0.101-0.138-0.152
				c-0.022-0.025-0.026-0.045-0.012-0.068c0.016-0.026,0.05-0.041,0.076-0.033c0.008,0.003,0.017,0.008,0.023,0.015
				c0.088,0.096,0.175,0.192,0.263,0.289c0.02,0.022,0.018,0.044-0.006,0.061c-0.137,0.101-0.274,0.201-0.411,0.301
				c-0.017,0.013-0.035,0.015-0.053,0.005c-0.019-0.011-0.033-0.027-0.029-0.05c0.002-0.012,0.01-0.026,0.02-0.033
				c0.097-0.073,0.195-0.144,0.293-0.216C10.587,12.547,10.602,12.535,10.62,12.522z"/>
			<path style="fill:#66B28E;" d="M10.664,12.75c0.035,0,0.07,0,0.105,0c0.033,0,0.055,0.02,0.055,0.048
				c0,0.031-0.026,0.057-0.056,0.057c-0.071,0-0.143,0-0.214,0c-0.029,0-0.05-0.021-0.05-0.049c0-0.03,0.022-0.055,0.051-0.055
				C10.59,12.75,10.627,12.75,10.664,12.75z"/>
		</g>
	</g>
</g>
<g id="Full_Olive_32x32">
</g>
<g id="Full_Olive_64x64">
</g>
<g id="Full_Olive_128x128">
</g>
<g id="Full_Olive_256x256">
</g>
<g id="Full_Teal_16x16">
</g>
<g id="Full_Teal_32x32">
</g>
<g id="Full_Teal_64x64">
</g>
<g id="Full_Teal_128x128">
</g>
<g id="Full_Teal_256x256">
</g>
</svg>
