<?xml version="1.0" encoding="iso-8859-1"?>
<!-- Generator: Adobe Illustrator 19.2.0, SVG Export Plug-In . SVG Version: 6.00 Build 0)  -->
<svg version="1.1" xmlns="http://www.w3.org/2000/svg" xmlns:xlink="http://www.w3.org/1999/xlink" x="0px" y="0px"
	 viewBox="0 0 16 16" style="enable-background:new 0 0 16 16;" xml:space="preserve">
<g id="Single_Charcoal_16x16">
</g>
<g id="Single_Charcoal_32x32">
</g>
<g id="Single_Charcoal_64x64">
</g>
<g id="Single_Charcoal_128x128">
</g>
<g id="Single_Charcoal_256x256">
</g>
<g id="Single_Olive_16x16">
	<path style="fill:#96BC4F;" d="M15.002,15.996h-14c-0.5,0-1-0.5-1-0.996V1c0-0.458,0.6-1,1-1h14c0.496,0,0.996,0.563,0.996,1v14
		C15.998,15.496,15.508,15.996,15.002,15.996z"/>
	<g>
		<path style="fill:#FFFFFF;" d="M6.403,9.259h2.981c0.135,0,0.218-0.066,0.248-0.197L9.765,8.47
			c0.122-0.541,0.243-1.082,0.364-1.622c0.031-0.137,0.058-0.261,0.072-0.383c0.003-0.03,0-0.042-0.001-0.045
			c0,0.001-0.014-0.005-0.056-0.005H8.615L7.087,6.415c-0.016,0-0.037,0.001-0.054,0.004C6.958,6.435,6.921,6.483,6.893,6.597
			C6.859,6.735,6.828,6.873,6.796,7.012L6.611,7.819c-0.102,0.44-0.203,0.88-0.304,1.32C6.294,9.195,6.297,9.225,6.305,9.235
			C6.313,9.246,6.343,9.257,6.403,9.259z M9.081,8.819C9.081,8.933,8.986,9.03,8.873,9.03c-0.265,0.001-0.531,0.001-0.796,0
			c-0.108,0-0.185-0.078-0.186-0.183C7.89,8.735,7.973,8.644,8.08,8.642c0.136-0.002,0.272,0,0.407,0c0.13,0,0.259-0.001,0.389,0
			C8.999,8.643,9.082,8.715,9.081,8.819z M7.055,8.732C7.416,8.462,7.78,8.197,8.143,7.93C8.202,7.887,8.26,7.844,8.326,7.795
			C8.229,7.687,8.139,7.587,8.05,7.488C7.879,7.3,7.709,7.112,7.538,6.924C7.455,6.832,7.443,6.758,7.495,6.673
			C7.554,6.578,7.68,6.52,7.777,6.549C7.808,6.559,7.84,6.581,7.862,6.605c0.326,0.357,0.651,0.714,0.975,1.072
			c0.074,0.082,0.066,0.162-0.024,0.228c-0.509,0.373-1.018,0.746-1.527,1.12C7.223,9.071,7.158,9.081,7.089,9.042
			C7.017,9,6.965,8.94,6.98,8.855C6.988,8.81,7.019,8.759,7.055,8.732z"/>
		<path style="fill:#FFFFFF;" d="M6.836,11.614v0.513h2.856v-0.545c2.645-0.594,2.872-2.835,2.872-3.835
			c0-0.317-0.116-1.529-0.116-2.507c0-0.59,0.116-1.19,0.116-1.19H3.71c0,0,0.074,0.568,0.074,1.148
			c0,0.778-0.074,1.713-0.074,2.613C3.71,9.175,4.106,11.123,6.836,11.614z M6.034,9.088l0.124-0.54
			c0.155-0.672,0.309-1.344,0.465-2.016c0.048-0.208,0.161-0.336,0.336-0.38c0.041-0.01,0.083-0.011,0.118-0.011
			C7.504,6.14,7.93,6.14,8.357,6.14h1.797c0.11,0,0.194,0.031,0.251,0.092c0.054,0.058,0.077,0.139,0.069,0.239
			c-0.012,0.151-0.046,0.302-0.075,0.436c-0.111,0.499-0.223,0.997-0.335,1.495L9.902,9.116c-0.06,0.265-0.249,0.418-0.519,0.418
			H6.429c-0.006,0-0.013,0-0.018,0c-0.032,0-0.057-0.001-0.08-0.004C6.21,9.51,6.122,9.462,6.071,9.385
			C6.019,9.308,6.006,9.208,6.034,9.088z"/>
	</g>
</g>
<g id="Single_Olive_32x32">
</g>
<g id="Single_Olive_64x64">
</g>
<g id="Single_Olive_128x128">
</g>
<g id="Single_Olive_256x256">
</g>
<g id="Single_Teal_256x256">
</g>
<g id="Single_Teal_16x16">
</g>
<g id="Single_Teal_32x32">
</g>
<g id="Single_Teal_64x64">
</g>
<g id="Single_Teal_16x16_1_">
</g>
<g id="Full_Olive_16x16">
</g>
<g id="Full_Olive_32x32">
</g>
<g id="Full_Olive_64x64">
</g>
<g id="Full_Olive_128x128">
</g>
<g id="Full_Olive_256x256">
</g>
<g id="Full_Teal_16x16">
</g>
<g id="Full_Teal_32x32">
</g>
<g id="Full_Teal_64x64">
</g>
<g id="Full_Teal_128x128">
</g>
<g id="Full_Teal_256x256">
</g>
</svg>
