<?xml version="1.0" encoding="utf-8"?>
<!-- Generator: Adobe Illustrator 19.1.1, SVG Export Plug-In . SVG Version: 6.00 Build 0)  -->
<svg version="1.1" xmlns="http://www.w3.org/2000/svg" xmlns:xlink="http://www.w3.org/1999/xlink" x="0px" y="0px"
	 viewBox="0 0 16 16" style="enable-background:new 0 0 16 16;" xml:space="preserve">
<style type="text/css">
	.st0{fill:#96BC4F;}
	.st1{fill:#FFFFFF;}
	.st2{fill:#66B28E;}
	.st3{fill:#7E7E7C;}
</style>
<g id="Single_Olive_16x16">
</g>
<g id="Single_Olive_32x32">
</g>
<g id="Single_Olive_64x64">
</g>
<g id="Single_Olive_256x256">
</g>
<g id="Single_Teal_256x256">
</g>
<g id="Single_Charcoal_256x256">
</g>
<g id="Single_Teal_16x16">
	<path class="st2" d="M15,16H1c-0.5,0-1-0.5-1-1V1c0-0.5,0.6-1,1-1h14c0.5,0,1,0.6,1,1v14C16,15.5,15.5,16,15,16z"/>
	<path class="st1" d="M2.3,2.9c0,0,0.1,0.7,0.1,1.5c0,1-0.1,2.2-0.1,3.3c0,1.7,0.5,4.2,4,4.9v0.7H10v-0.7c3.4-0.8,3.7-3.6,3.7-4.9
		c0-0.4-0.1-2-0.1-3.2c0-0.8,0.1-1.5,0.1-1.5H2.3z"/>
	<g>
		<path class="st2" d="M11.6,5.2c-0.1-0.1-0.2-0.1-0.4-0.1H8.3c-0.7,0-1.4,0-2,0c-0.1,0-0.1,0-0.2,0C5.8,5.2,5.6,5.4,5.5,5.7
			C5.3,6.8,5,7.8,4.8,8.9L4.6,9.8c0,0.2,0,0.4,0.1,0.5c0.1,0.1,0.2,0.2,0.4,0.2c0,0,0.1,0,0.1,0c0,0,0,0,0,0H10
			c0.4,0,0.7-0.2,0.8-0.7L11,8.7c0.2-0.8,0.4-1.6,0.5-2.4c0-0.2,0.1-0.5,0.1-0.7C11.7,5.4,11.7,5.3,11.6,5.2z M10,10.1H5.2
			C5.1,10,5,10,5,10c0,0,0-0.1,0-0.2c0.2-0.7,0.3-1.4,0.5-2.1l0.3-1.3C5.9,6.2,5.9,6,6,5.8c0-0.2,0.1-0.3,0.2-0.3c0,0,0.1,0,0.1,0
			l2.4,0h2.4c0.1,0,0.1,0,0.1,0c0,0,0,0,0,0.1c0,0.2-0.1,0.4-0.1,0.6c-0.2,0.9-0.4,1.7-0.6,2.6l-0.2,0.9C10.3,9.9,10.2,10.1,10,10.1
			z"/>
		<path class="st2" d="M8.3,7.7C8.1,7.5,8,7.4,7.8,7.2C7.6,6.9,7.3,6.6,7,6.3C6.9,6.2,6.9,6.1,6.9,5.9C7,5.8,7.2,5.7,7.4,5.7
			c0,0,0.1,0.1,0.1,0.1c0.5,0.6,1,1.1,1.6,1.7c0.1,0.1,0.1,0.3,0,0.4C8.2,8.5,7.4,9.1,6.6,9.7c-0.1,0.1-0.2,0.1-0.3,0
			C6.2,9.6,6.1,9.5,6.1,9.4c0-0.1,0.1-0.2,0.1-0.2C6.8,8.8,7.4,8.4,8,7.9C8.1,7.9,8.2,7.8,8.3,7.7z"/>
		<path class="st2" d="M8.5,9.1c0.2,0,0.4,0,0.6,0c0.2,0,0.3,0.1,0.3,0.3c0,0.2-0.2,0.3-0.3,0.3c-0.4,0-0.8,0-1.3,0
			c-0.2,0-0.3-0.1-0.3-0.3c0-0.2,0.1-0.3,0.3-0.3C8.1,9.1,8.3,9.1,8.5,9.1z"/>
	</g>
</g>
<g id="Single_Teal_32x32">
</g>
<g id="Single_Teal_64x64">
</g>
<g id="Single_Charcoal_32x32">
</g>
<g id="Single_Charcoal_16x16">
</g>
<g id="Single_Charcoal_64x64">
</g>
<g id="Single_Charcoal_128x128">
</g>
<g id="Full_Olive_16x16">
</g>
<g id="Full_Olive_32x32">
</g>
<g id="Full_Olive_64x64">
</g>
<g id="Full_Olive_256x256">
</g>
<g id="Full_Teal_256x256">
</g>
<g id="Full_Teal_16x16">
</g>
<g id="Full_Teal_32x32">
</g>
<g id="Full_Teal_64x64">
</g>
</svg>
