<?xml version="1.0" encoding="utf-8"?>
<!-- Generator: Adobe Illustrator 19.1.1, SVG Export Plug-In . SVG Version: 6.00 Build 0)  -->
<svg version="1.1" xmlns="http://www.w3.org/2000/svg" xmlns:xlink="http://www.w3.org/1999/xlink" x="0px" y="0px"
	 viewBox="0 0 256 256" style="enable-background:new 0 0 256 256;" xml:space="preserve">
<style type="text/css">
	.st0{fill:#96BC4F;}
	.st1{fill:#FFFFFF;}
	.st2{fill:#66B28E;}
	.st3{fill:#7E7E7C;}
</style>
<g id="Single_Olive_16x16">
</g>
<g id="Single_Olive_32x32">
</g>
<g id="Single_Olive_64x64">
</g>
<g id="Single_Olive_256x256">
</g>
<g id="Single_Teal_256x256">
</g>
<g id="Single_Charcoal_256x256">
</g>
<g id="Single_Teal_16x16">
</g>
<g id="Single_Teal_32x32">
</g>
<g id="Single_Teal_64x64">
</g>
<g id="Single_Charcoal_32x32">
</g>
<g id="Single_Charcoal_16x16">
</g>
<g id="Single_Charcoal_64x64">
</g>
<g id="Single_Charcoal_128x128">
</g>
<g id="Full_Olive_16x16">
</g>
<g id="Full_Olive_32x32">
</g>
<g id="Full_Olive_64x64">
</g>
<g id="Full_Olive_256x256">
</g>
<g id="Full_Teal_256x256">
	<path class="st2" d="M240.1,256H16c-8,0-16-8-16-15.9V16C0,8.7,9.6,0,16,0h224.1C248,0,256,9,256,16v224.1
		C256,248,248.2,256,240.1,256z"/>
	<path class="st3" d="M141.2,25.6c4.8,0,41.4,0,49.4,0c7.5,0,7.6,3.3,7.6,5.6c0,15.7-14.4,22.9-14.4,34.4c0,5.2,13.6,42.2,20.6,85.5
		s2.8,69.8,2.8,73.7c0,17.4-81.6,20.8-81.6-2c0-6-1.7-40.8,2.4-71.5c4.9-37.5,21.3-78.6,21.3-85.6c0-9.1-13.5-19-13.5-34.6
		C135.8,28.4,136.4,25.6,141.2,25.6z"/>
	<g>
		<path class="st1" d="M148.5,126.5c0,0-0.1,2.5-0.4,4.9c-0.5,3.3-1.4,7.2-2,11.1c-0.9,5.8-0.4,14.4,10.9,18.2l-0.3,2.2l12.2,1.8
			l0.4-2.3c11.7-0.8,14.1-10.2,14.7-14.5c0.2-1.3,0.5-6.6,1.1-10.8c0.4-2.5,1.3-5,1.3-5L148.5,126.5z"/>
		<g>
			<path class="st0" d="M177.2,139.3c-0.2-0.3-0.6-0.6-1.2-0.6l-8.8-1.3c-2.1-0.3-4.2-0.6-6.3-0.9c-0.2,0-0.4-0.1-0.6,0
				c-0.9,0.1-1.5,0.6-1.9,1.6c-1.3,3.2-2.5,6.4-3.8,9.6l-1,2.6c-0.2,0.6-0.2,1.1,0,1.5c0.2,0.4,0.6,0.7,1.2,0.9
				c0.1,0,0.2,0.1,0.4,0.1c0,0,0.1,0,0.1,0l14.5,2.2c1.3,0.2,2.4-0.4,2.9-1.7l1.3-3.4c0.9-2.4,1.8-4.7,2.8-7.1
				c0.2-0.6,0.5-1.4,0.7-2.1C177.4,140.1,177.4,139.6,177.2,139.3z M169.9,153.4l-14.7-2.2c-0.3-0.1-0.4-0.1-0.5-0.2
				c0-0.1,0-0.2,0.1-0.5c0.8-2.1,1.6-4.2,2.5-6.3l1.5-3.8c0.3-0.7,0.5-1.3,0.8-2c0.2-0.5,0.4-0.7,0.8-0.8c0.1,0,0.2,0,0.3,0l7.5,1.1
				l7.5,1.1c0.2,0,0.3,0.1,0.3,0.1c0,0,0,0.1,0,0.2c-0.2,0.6-0.4,1.2-0.6,1.8c-1,2.6-2,5.1-3,7.7l-1.1,2.8
				C171,153.3,170.6,153.5,169.9,153.4z"/>
			<path class="st0" d="M165.8,145.4c-0.4-0.6-0.8-1.2-1.1-1.7c-0.7-1.1-1.4-2.1-2.1-3.2c-0.3-0.5-0.3-0.9,0-1.3
				c0.4-0.4,1-0.6,1.5-0.4c0.1,0.1,0.3,0.2,0.4,0.3c1.3,2,2.7,4,4,6c0.3,0.5,0.2,0.8-0.3,1.1c-2.8,1.5-5.6,2.9-8.3,4.4
				c-0.3,0.2-0.7,0.2-1-0.1c-0.3-0.3-0.5-0.6-0.4-1c0.1-0.2,0.3-0.4,0.5-0.5c2-1.1,4-2.1,5.9-3.1
				C165.1,145.8,165.4,145.6,165.8,145.4z"/>
			<path class="st0" d="M166,149.7c0.6,0.1,1.3,0.2,1.9,0.3c0.6,0.1,1,0.5,0.9,1c-0.1,0.6-0.6,1-1.2,0.9c-1.3-0.2-2.6-0.4-3.9-0.6
				c-0.5-0.1-0.8-0.5-0.8-1c0.1-0.6,0.6-0.9,1.1-0.9C164.6,149.5,165.3,149.6,166,149.7z"/>
		</g>
	</g>
	<g>
		<path class="st1" d="M147.4,159.7c0,0,0.8,2.4,1.2,4.8c0.6,3.3,1,7.3,1.7,11.1c1.1,5.8,4.2,13.7,16.2,13.7l0.4,2.2l12.1-2.2
			l-0.4-2.3c10.8-4.6,10-14.2,9.2-18.5c-0.2-1.3-1.7-6.4-2.4-10.5c-0.5-2.5-0.4-5.1-0.4-5.1L147.4,159.7z"/>
		<g>
			<path class="st2" d="M180.9,160.2c-0.4-0.3-1-0.4-1.6-0.3l-10.9,2c-2.6,0.5-5.2,0.9-7.7,1.4c-0.2,0-0.5,0.1-0.7,0.2
				c-1,0.5-1.5,1.4-1.6,2.7c-0.2,4.2-0.4,8.5-0.6,12.7l-0.2,3.4c0,0.8,0.2,1.4,0.6,1.8c0.4,0.4,1,0.6,1.7,0.6c0.1,0,0.3,0,0.5-0.1
				c0,0,0.1,0,0.1,0l17.8-3.3c1.6-0.3,2.6-1.4,2.7-3.1l0.2-4.5c0.1-3.1,0.3-6.3,0.4-9.4c0-0.8,0.1-1.8,0-2.7
				C181.5,160.9,181.3,160.5,180.9,160.2z M178,179.6l-18,3.3c-0.4,0.1-0.6,0-0.6,0c-0.1-0.1-0.1-0.2-0.1-0.6
				c0.1-2.8,0.3-5.5,0.4-8.3l0.2-5.1c0-0.9,0.1-1.7,0.1-2.6c0-0.7,0.2-1,0.6-1.2c0.1,0,0.2-0.1,0.3-0.1l9.2-1.7l9.2-1.7
				c0.3,0,0.3,0,0.3,0c0,0,0,0.1,0.1,0.3c0.1,0.8,0,1.5,0,2.4c-0.1,3.4-0.3,6.8-0.4,10.2l-0.2,3.7C179.3,179,178.9,179.4,178,179.6z
				"/>
			<path class="st2" d="M170,171.9c-0.7-0.5-1.4-1-2-1.5c-1.2-0.9-2.5-1.9-3.7-2.8c-0.6-0.5-0.8-0.9-0.5-1.5
				c0.2-0.6,0.9-1.1,1.6-1.1c0.2,0,0.4,0.1,0.6,0.2c2.4,1.8,4.7,3.6,7.1,5.4c0.5,0.4,0.6,0.9,0.1,1.4c-2.7,2.8-5.3,5.6-8,8.5
				c-0.3,0.4-0.7,0.5-1.2,0.3c-0.5-0.2-0.9-0.5-0.9-1c0-0.3,0.1-0.6,0.3-0.8c1.9-2,3.8-4,5.7-6C169.4,172.6,169.7,172.3,170,171.9z"
				/>
			<path class="st2" d="M171.9,176.9c0.8-0.1,1.6-0.3,2.4-0.4c0.7-0.1,1.3,0.2,1.4,0.8c0.1,0.7-0.3,1.4-1,1.5
				c-1.6,0.3-3.2,0.6-4.8,0.9c-0.7,0.1-1.2-0.3-1.3-0.9c-0.1-0.7,0.3-1.3,0.9-1.4C170.3,177.2,171.1,177,171.9,176.9z"/>
		</g>
	</g>
	<g>
		<path class="st1" d="M150.1,184.8c0,0,0.3,2.4,0.3,4.9c0,3.4-0.3,7.4-0.3,11.3c0,5.9,1.7,14.3,13.5,16.4v2.2h12.3v-2.3
			c11.4-2.6,12.4-12.2,12.4-16.5c0-1.4-0.5-6.6-0.5-10.8c0-2.5,0.5-5.1,0.5-5.1H150.1z"/>
		<g>
			<path class="st0" d="M181.2,192.5c-0.3-0.3-0.8-0.5-1.4-0.5h-9.7c-2.3,0-4.6,0-6.9,0c-0.2,0-0.4,0-0.6,0.1
				c-0.9,0.2-1.5,0.9-1.8,2c-0.8,3.6-1.7,7.2-2.5,10.9l-0.7,2.9c-0.1,0.6-0.1,1.2,0.2,1.6c0.3,0.4,0.7,0.7,1.4,0.8
				c0.1,0,0.3,0,0.4,0c0,0,0.1,0,0.1,0h15.9c1.5,0,2.5-0.8,2.8-2.2l0.9-3.8c0.6-2.7,1.2-5.4,1.8-8.1c0.2-0.7,0.3-1.5,0.4-2.3
				C181.7,193.2,181.5,192.8,181.2,192.5z M175.7,208.8h-16.1c-0.3,0-0.5-0.1-0.5-0.1c0-0.1-0.1-0.2,0-0.5c0.5-2.4,1.1-4.7,1.6-7.1
				l1-4.3c0.2-0.7,0.3-1.5,0.5-2.2c0.1-0.6,0.4-0.9,0.8-1c0.1,0,0.2,0,0.3,0l8.2,0h8.2c0.2,0,0.3,0,0.3,0c0,0,0,0.1,0,0.2
				c-0.1,0.7-0.2,1.3-0.4,2.1c-0.6,2.9-1.3,5.8-2,8.7l-0.7,3.2C176.9,208.4,176.5,208.8,175.7,208.8z"/>
			<path class="st0" d="M170,200.9c-0.5-0.6-1-1.1-1.5-1.7c-0.9-1-1.8-2-2.8-3c-0.4-0.5-0.5-0.9-0.2-1.4c0.3-0.5,1-0.8,1.5-0.7
				c0.2,0.1,0.3,0.2,0.5,0.3c1.8,1.9,3.5,3.8,5.3,5.8c0.4,0.4,0.4,0.9-0.1,1.2c-2.7,2-5.5,4-8.2,6c-0.3,0.3-0.7,0.3-1.1,0.1
				c-0.4-0.2-0.7-0.5-0.6-1c0-0.2,0.2-0.5,0.4-0.7c1.9-1.5,3.9-2.9,5.9-4.3C169.4,201.4,169.7,201.2,170,200.9z"/>
			<path class="st0" d="M170.9,205.5c0.7,0,1.4,0,2.1,0c0.7,0,1.1,0.4,1.1,1c0,0.6-0.5,1.1-1.1,1.1c-1.4,0-2.9,0-4.3,0
				c-0.6,0-1-0.4-1-1c0-0.6,0.4-1.1,1-1.1C169.5,205.5,170.2,205.5,170.9,205.5z"/>
		</g>
	</g>
</g>
<g id="Full_Teal_16x16">
</g>
<g id="Full_Teal_32x32">
</g>
<g id="Full_Teal_64x64">
</g>
</svg>
