<?xml version="1.0" encoding="utf-8"?>
<!-- Generator: Adobe Illustrator 19.1.1, SVG Export Plug-In . SVG Version: 6.00 Build 0)  -->
<svg version="1.1" xmlns="http://www.w3.org/2000/svg" xmlns:xlink="http://www.w3.org/1999/xlink" x="0px" y="0px"
	 viewBox="0 0 128 128" style="enable-background:new 0 0 128 128;" xml:space="preserve">
<style type="text/css">
	.st0{fill:#96BC4F;}
	.st1{fill:#FFFFFF;}
	.st2{fill:#66B28E;}
	.st3{fill:#7E7E7C;}
</style>
<g id="Single_Olive_16x16">
</g>
<g id="Single_Olive_32x32">
</g>
<g id="Single_Olive_64x64">
	<path class="st0" d="M120,128H8c-4,0-8-4-8-8V8c0-3.7,4.8-8,8-8h112c4,0,8,4.5,8,8v112C128,124,124.1,128,120,128z"/>
	<path class="st1" d="M18.7,21.7c0,0,0.8,5.9,0.8,11.9c0,8.1-0.8,17.8-0.8,27.2c0,14.2,4.1,34.4,32.5,39.5v5.3h29.7v-5.7
		c27.5-6.2,29.8-29.5,29.8-39.8c0-3.3-1.2-15.9-1.2-26.1c0-6.1,1.2-12.4,1.2-12.4H18.7z"/>
	<g>
		<path class="st0" d="M93.9,42.4c-0.7-0.8-1.8-1.2-3.3-1.2H67.3c-5.5,0-11.1,0-16.6,0c-0.5,0-1,0-1.5,0.1c-2.3,0.6-3.7,2.2-4.4,4.9
			c-2,8.7-4,17.4-6,26.2l-1.6,7c-0.4,1.6-0.2,2.9,0.5,3.9c0.7,1,1.8,1.6,3.4,1.9c0.3,0,0.6,0.1,1,0.1c0.1,0,0.2,0,0.2,0h38.3
			c3.5,0,6-2,6.7-5.4l2.1-9.3c1.5-6.5,2.9-12.9,4.4-19.4c0.4-1.7,0.8-3.7,1-5.7C94.9,44.2,94.6,43.2,93.9,42.4z M80.6,81.7H41.9
			c-0.8,0-1.2-0.2-1.3-0.3c-0.1-0.1-0.1-0.5,0-1.3c1.3-5.7,2.6-11.4,3.9-17.1L47,52.5c0.4-1.8,0.8-3.6,1.3-5.4
			c0.4-1.5,0.9-2.1,1.8-2.3c0.2,0,0.5-0.1,0.7-0.1l19.8,0h19.8c0.5,0,0.7,0.1,0.7,0.1c0,0,0.1,0.2,0,0.6c-0.2,1.6-0.5,3.2-0.9,5
			c-1.6,7-3.1,14-4.7,21.1l-1.7,7.7C83.5,80.8,82.4,81.7,80.6,81.7z"/>
		<path class="st0" d="M66.9,62.7c-1.3-1.4-2.4-2.7-3.6-4c-2.2-2.4-4.4-4.9-6.6-7.3c-1.1-1.2-1.2-2.2-0.6-3.3c0.8-1.2,2.4-2,3.7-1.6
			c0.4,0.1,0.8,0.4,1.1,0.7c4.2,4.6,8.4,9.3,12.7,13.9c1,1.1,0.9,2.1-0.3,3C66.6,69,60,73.8,53.4,78.7c-0.8,0.6-1.7,0.7-2.6,0.2
			c-0.9-0.5-1.6-1.3-1.4-2.4c0.1-0.6,0.5-1.2,1-1.6c4.7-3.5,9.4-6.9,14.1-10.4C65.3,63.9,66,63.3,66.9,62.7z"/>
		<path class="st0" d="M69,73.7c1.7,0,3.4,0,5.1,0c1.6,0,2.7,0.9,2.7,2.3c0,1.5-1.2,2.7-2.7,2.7c-3.4,0-6.9,0-10.3,0
			c-1.4,0-2.4-1-2.4-2.4c0-1.5,1.1-2.6,2.5-2.7C65.5,73.7,67.2,73.7,69,73.7z"/>
	</g>
</g>
<g id="Single_Olive_256x256">
</g>
<g id="Single_Teal_256x256">
</g>
<g id="Single_Charcoal_256x256">
</g>
<g id="Single_Teal_16x16">
</g>
<g id="Single_Teal_32x32">
</g>
<g id="Single_Teal_64x64">
</g>
<g id="Single_Charcoal_32x32">
</g>
<g id="Single_Charcoal_16x16">
</g>
<g id="Single_Charcoal_64x64">
</g>
<g id="Single_Charcoal_128x128">
</g>
<g id="Full_Olive_16x16">
</g>
<g id="Full_Olive_32x32">
</g>
<g id="Full_Olive_64x64">
</g>
<g id="Full_Olive_256x256">
</g>
<g id="Full_Teal_256x256">
</g>
<g id="Full_Teal_16x16">
</g>
<g id="Full_Teal_32x32">
</g>
<g id="Full_Teal_64x64">
</g>
</svg>
