<?xml version="1.0" encoding="utf-8"?>
<!-- Generator: Adobe Illustrator 19.1.1, SVG Export Plug-In . SVG Version: 6.00 Build 0)  -->
<svg version="1.1" xmlns="http://www.w3.org/2000/svg" xmlns:xlink="http://www.w3.org/1999/xlink" x="0px" y="0px"
	 viewBox="0 0 32 32" style="enable-background:new 0 0 32 32;" xml:space="preserve">
<style type="text/css">
	.st0{fill:#96BC4F;}
	.st1{fill:#FFFFFF;}
	.st2{fill:#66B28E;}
	.st3{fill:#7E7E7C;}
</style>
<g id="Single_Olive_16x16">
</g>
<g id="Single_Olive_32x32">
</g>
<g id="Single_Olive_64x64">
</g>
<g id="Single_Olive_256x256">
</g>
<g id="Single_Teal_256x256">
</g>
<g id="Single_Charcoal_256x256">
</g>
<g id="Single_Teal_16x16">
</g>
<g id="Single_Teal_32x32">
</g>
<g id="Single_Teal_64x64">
</g>
<g id="Single_Charcoal_32x32">
</g>
<g id="Single_Charcoal_16x16">
</g>
<g id="Single_Charcoal_64x64">
</g>
<g id="Single_Charcoal_128x128">
</g>
<g id="Full_Olive_16x16">
</g>
<g id="Full_Olive_32x32">
	<path class="st0" d="M30,32H2c-1,0-2-1-2-2V2c0-0.9,1.2-2,2-2h28c1,0,2,1.1,2,2v28C32,31,31,32,30,32z"/>
	<path class="st3" d="M17.6,3.2c0.6,0,5.2,0,6.2,0c0.9,0,1,0.4,1,0.7c0,2-1.8,2.9-1.8,4.3c0,0.7,1.7,5.3,2.6,10.7
		c0.9,5.4,0.4,8.7,0.4,9.2c0,2.2-10.2,2.6-10.2-0.2c0-0.8-0.2-5.1,0.3-8.9c0.6-4.7,2.7-9.8,2.7-10.7c0-1.1-1.7-2.4-1.7-4.3
		C17,3.5,17,3.2,17.6,3.2z"/>
	<g>
		<path class="st1" d="M18.6,15.8c0,0,0,0.3-0.1,0.6c-0.1,0.4-0.2,0.9-0.2,1.4c-0.1,0.7-0.1,1.8,1.4,2.3l0,0.3l1.5,0.2l0-0.3
			c1.5-0.1,1.8-1.3,1.8-1.8c0-0.2,0.1-0.8,0.1-1.3c0-0.3,0.2-0.6,0.2-0.6L18.6,15.8z"/>
		<g>
			<path class="st2" d="M22.1,17.4c0,0-0.1-0.1-0.1-0.1l-1.1-0.2c-0.3,0-0.5-0.1-0.8-0.1c0,0,0,0-0.1,0c-0.1,0-0.2,0.1-0.2,0.2
				c-0.2,0.4-0.3,0.8-0.5,1.2l-0.1,0.3c0,0.1,0,0.1,0,0.2c0,0.1,0.1,0.1,0.1,0.1c0,0,0,0,0,0c0,0,0,0,0,0l1.8,0.3
				c0.2,0,0.3-0.1,0.4-0.2l0.2-0.4c0.1-0.3,0.2-0.6,0.3-0.9c0-0.1,0.1-0.2,0.1-0.3C22.2,17.5,22.2,17.5,22.1,17.4z M21.2,19.2
				l-1.8-0.3c0,0-0.1,0-0.1,0c0,0,0,0,0-0.1c0.1-0.3,0.2-0.5,0.3-0.8l0.2-0.5c0-0.1,0.1-0.2,0.1-0.2c0-0.1,0.1-0.1,0.1-0.1
				c0,0,0,0,0,0l0.9,0.1l0.9,0.1c0,0,0,0,0,0c0,0,0,0,0,0c0,0.1,0,0.1-0.1,0.2c-0.1,0.3-0.2,0.6-0.4,1l-0.1,0.4
				C21.4,19.2,21.3,19.2,21.2,19.2z"/>
			<path class="st2" d="M20.7,18.2c0-0.1-0.1-0.1-0.1-0.2c-0.1-0.1-0.2-0.3-0.3-0.4c0-0.1,0-0.1,0-0.2c0-0.1,0.1-0.1,0.2,0
				c0,0,0,0,0,0c0.2,0.2,0.3,0.5,0.5,0.7c0,0.1,0,0.1,0,0.1c-0.3,0.2-0.7,0.4-1,0.5c0,0-0.1,0-0.1,0c0,0-0.1-0.1,0-0.1
				c0,0,0-0.1,0.1-0.1c0.2-0.1,0.5-0.3,0.7-0.4C20.6,18.2,20.7,18.2,20.7,18.2z"/>
			<path class="st2" d="M20.7,18.7c0.1,0,0.2,0,0.2,0c0.1,0,0.1,0.1,0.1,0.1c0,0.1-0.1,0.1-0.1,0.1c-0.2,0-0.3,0-0.5-0.1
				c-0.1,0-0.1-0.1-0.1-0.1c0-0.1,0.1-0.1,0.1-0.1C20.6,18.7,20.7,18.7,20.7,18.7z"/>
		</g>
	</g>
	<g>
		<path class="st1" d="M18.4,20c0,0,0.1,0.3,0.2,0.6c0.1,0.4,0.1,0.9,0.2,1.4c0.1,0.7,0.5,1.7,2,1.7l0,0.3l1.5-0.3l-0.1-0.3
			c1.3-0.6,1.2-1.8,1.2-2.3c0-0.2-0.2-0.8-0.3-1.3c-0.1-0.3-0.1-0.6-0.1-0.6L18.4,20z"/>
		<g>
			<path class="st0" d="M22.6,20c-0.1,0-0.1,0-0.2,0l-1.4,0.2c-0.3,0.1-0.6,0.1-1,0.2c0,0-0.1,0-0.1,0c-0.1,0.1-0.2,0.2-0.2,0.3
				c0,0.5,0,1.1-0.1,1.6l0,0.4c0,0.1,0,0.2,0.1,0.2c0,0.1,0.1,0.1,0.2,0.1c0,0,0,0,0.1,0c0,0,0,0,0,0l2.2-0.4c0.2,0,0.3-0.2,0.3-0.4
				l0-0.6c0-0.4,0-0.8,0-1.2c0-0.1,0-0.2,0-0.3C22.7,20.1,22.7,20.1,22.6,20z M22.3,22.4L20,22.9c0,0-0.1,0-0.1,0c0,0,0,0,0-0.1
				c0-0.3,0-0.7,0-1l0-0.6c0-0.1,0-0.2,0-0.3c0-0.1,0-0.1,0.1-0.2c0,0,0,0,0,0l1.2-0.2l1.2-0.2c0,0,0,0,0,0c0,0,0,0,0,0
				c0,0.1,0,0.2,0,0.3c0,0.4,0,0.9-0.1,1.3l0,0.5C22.4,22.4,22.4,22.4,22.3,22.4z"/>
			<path class="st0" d="M21.3,21.5c-0.1-0.1-0.2-0.1-0.3-0.2c-0.2-0.1-0.3-0.2-0.5-0.4c-0.1-0.1-0.1-0.1-0.1-0.2
				c0-0.1,0.1-0.1,0.2-0.1c0,0,0.1,0,0.1,0c0.3,0.2,0.6,0.4,0.9,0.7c0.1,0.1,0.1,0.1,0,0.2c-0.3,0.4-0.7,0.7-1,1.1
				c0,0-0.1,0.1-0.1,0c-0.1,0-0.1-0.1-0.1-0.1c0,0,0-0.1,0-0.1c0.2-0.3,0.5-0.5,0.7-0.8C21.2,21.6,21.2,21.5,21.3,21.5z"/>
			<path class="st0" d="M21.5,22.1c0.1,0,0.2,0,0.3-0.1c0.1,0,0.2,0,0.2,0.1c0,0.1,0,0.2-0.1,0.2c-0.2,0-0.4,0.1-0.6,0.1
				c-0.1,0-0.2,0-0.2-0.1c0-0.1,0-0.2,0.1-0.2C21.3,22.1,21.4,22.1,21.5,22.1z"/>
		</g>
	</g>
	<g>
		<path class="st1" d="M18.8,23.1c0,0,0,0.3,0,0.6c0,0.4,0,0.9,0,1.4c0,0.7,0.2,1.8,1.7,2v0.3H22v-0.3c1.4-0.3,1.5-1.5,1.5-2.1
			c0-0.2-0.1-0.8-0.1-1.4c0-0.3,0.1-0.6,0.1-0.6H18.8z"/>
		<g>
			<path class="st2" d="M22.7,24.1c0,0-0.1-0.1-0.2-0.1h-1.2c-0.3,0-0.6,0-0.9,0c0,0-0.1,0-0.1,0c-0.1,0-0.2,0.1-0.2,0.3
				c-0.1,0.5-0.2,0.9-0.3,1.4L19.7,26c0,0.1,0,0.1,0,0.2c0,0.1,0.1,0.1,0.2,0.1c0,0,0,0,0.1,0c0,0,0,0,0,0h2c0.2,0,0.3-0.1,0.3-0.3
				l0.1-0.5c0.1-0.3,0.2-0.7,0.2-1c0-0.1,0-0.2,0.1-0.3C22.7,24.2,22.7,24.1,22.7,24.1z M22,26.1h-2c0,0-0.1,0-0.1,0c0,0,0,0,0-0.1
				c0.1-0.3,0.1-0.6,0.2-0.9l0.1-0.5c0-0.1,0-0.2,0.1-0.3c0-0.1,0-0.1,0.1-0.1c0,0,0,0,0,0l1,0h1c0,0,0,0,0,0c0,0,0,0,0,0
				c0,0.1,0,0.2,0,0.3c-0.1,0.4-0.2,0.7-0.2,1.1L22.1,26C22.1,26.1,22.1,26.1,22,26.1z"/>
			<path class="st2" d="M21.3,25.1c-0.1-0.1-0.1-0.1-0.2-0.2c-0.1-0.1-0.2-0.3-0.3-0.4c-0.1-0.1-0.1-0.1,0-0.2
				c0-0.1,0.1-0.1,0.2-0.1c0,0,0,0,0.1,0c0.2,0.2,0.4,0.5,0.7,0.7c0,0.1,0,0.1,0,0.2c-0.3,0.3-0.7,0.5-1,0.8c0,0-0.1,0-0.1,0
				c0,0-0.1-0.1-0.1-0.1c0,0,0-0.1,0.1-0.1c0.2-0.2,0.5-0.4,0.7-0.5C21.2,25.2,21.2,25.1,21.3,25.1z"/>
			<path class="st2" d="M21.4,25.7c0.1,0,0.2,0,0.3,0c0.1,0,0.1,0,0.1,0.1c0,0.1-0.1,0.1-0.1,0.1c-0.2,0-0.4,0-0.5,0
				c-0.1,0-0.1-0.1-0.1-0.1c0-0.1,0.1-0.1,0.1-0.1C21.2,25.7,21.3,25.7,21.4,25.7z"/>
		</g>
	</g>
</g>
<g id="Full_Olive_64x64">
</g>
<g id="Full_Olive_256x256">
</g>
<g id="Full_Teal_256x256">
</g>
<g id="Full_Teal_16x16">
</g>
<g id="Full_Teal_32x32">
</g>
<g id="Full_Teal_64x64">
</g>
</svg>
