<?xml version="1.0" encoding="iso-8859-1"?>
<!-- Generator: Adobe Illustrator 19.2.0, SVG Export Plug-In . SVG Version: 6.00 Build 0)  -->
<svg version="1.1" xmlns="http://www.w3.org/2000/svg" xmlns:xlink="http://www.w3.org/1999/xlink" x="0px" y="0px"
	 viewBox="0 0 16 16" style="enable-background:new 0 0 16 16;" xml:space="preserve">
<g id="Single_Charcoal_16x16">
</g>
<g id="Single_Charcoal_32x32">
</g>
<g id="Single_Charcoal_64x64">
</g>
<g id="Single_Charcoal_128x128">
</g>
<g id="Single_Charcoal_256x256">
</g>
<g id="Single_Olive_16x16">
</g>
<g id="Single_Olive_32x32">
</g>
<g id="Single_Olive_64x64">
</g>
<g id="Single_Olive_128x128">
</g>
<g id="Single_Olive_256x256">
</g>
<g id="Single_Teal_256x256">
</g>
<g id="Single_Teal_16x16">
</g>
<g id="Single_Teal_32x32">
</g>
<g id="Single_Teal_64x64">
</g>
<g id="Single_Teal_16x16_1_">
</g>
<g id="Full_Olive_16x16">
</g>
<g id="Full_Olive_32x32">
</g>
<g id="Full_Olive_64x64">
</g>
<g id="Full_Olive_128x128">
</g>
<g id="Full_Olive_256x256">
</g>
<g id="Full_Teal_16x16">
	<path style="fill:#66B28E;" d="M15.002,15.998h-14c-0.5,0-1-0.5-1-0.996v-14c0-0.458,0.6-1,1-1h14c0.496,0,0.996,0.563,0.996,1v14
		C15.998,15.498,15.508,15.998,15.002,15.998z"/>
	<path style="fill:#7E7E7C;" d="M8.823,1.569c0.299,0,2.589,0,3.087,0c0.471,0,0.478,0.207,0.478,0.347
		c0,0.981-0.902,1.433-0.902,2.152c0,0.327,0.851,2.639,1.284,5.343s0.178,4.36,0.178,4.605c0,1.086-5.096,1.299-5.096-0.123
		c0-0.376-0.106-2.548,0.147-4.467c0.309-2.342,1.331-4.908,1.331-5.349c0-0.572-0.841-1.184-0.841-2.164
		C8.488,1.741,8.523,1.569,8.823,1.569z"/>
	<g>
		<path style="fill:#FFFFFF;" d="M9.28,8c0,0-0.003,0.154-0.026,0.309C9.222,8.516,9.165,8.761,9.129,9.001
			c-0.055,0.363-0.028,0.898,0.679,1.138l-0.021,0.137l0.76,0.115l0.022-0.145c0.728-0.052,0.879-0.639,0.919-0.905
			c0.013-0.084,0.031-0.412,0.07-0.672c0.024-0.157,0.079-0.312,0.079-0.312L9.28,8z"/>
		<g>
			<path style="fill:#96BC4F;" d="M10.974,8.85c-0.013-0.018-0.034-0.03-0.063-0.035l-0.478-0.072
				c-0.114-0.017-0.227-0.034-0.34-0.051c-0.009-0.001-0.021-0.003-0.032-0.002c-0.048,0.005-0.083,0.034-0.105,0.088
				C9.887,8.95,9.819,9.123,9.751,9.296L9.696,9.435C9.684,9.466,9.683,9.493,9.694,9.515c0.011,0.022,0.032,0.039,0.063,0.049
				C9.763,9.566,9.77,9.567,9.778,9.569c0.002,0,0.003,0,0.005,0.001l0.786,0.119c0.072,0.011,0.128-0.022,0.155-0.09l0.072-0.184
				c0.05-0.128,0.1-0.256,0.149-0.384c0.013-0.034,0.028-0.073,0.038-0.113C10.989,8.89,10.986,8.868,10.974,8.85z M10.581,9.615
				l-0.794-0.12c-0.016-0.003-0.023-0.007-0.025-0.01C9.761,9.482,9.761,9.474,9.766,9.459C9.811,9.346,9.856,9.233,9.901,9.12
				l0.082-0.207c0.014-0.036,0.028-0.071,0.042-0.107c0.012-0.029,0.024-0.04,0.044-0.042c0.005,0,0.01,0,0.015,0.001l0.407,0.061
				l0.407,0.062c0.011,0.002,0.015,0.004,0.015,0.004c0,0.001,0.001,0.004-0.002,0.012c-0.008,0.032-0.021,0.064-0.035,0.099
				c-0.054,0.139-0.108,0.278-0.162,0.417l-0.059,0.152C10.642,9.606,10.617,9.621,10.581,9.615z"/>
			<path style="fill:#96BC4F;" d="M10.358,9.183C10.337,9.15,10.317,9.12,10.297,9.09c-0.038-0.057-0.076-0.114-0.113-0.171
				c-0.018-0.028-0.019-0.048-0.001-0.069c0.019-0.023,0.055-0.033,0.08-0.022c0.008,0.004,0.015,0.011,0.02,0.018
				c0.072,0.108,0.145,0.216,0.217,0.325c0.016,0.025,0.011,0.046-0.015,0.06c-0.15,0.079-0.301,0.158-0.452,0.237
				c-0.019,0.01-0.037,0.01-0.053-0.003C9.961,9.451,9.95,9.433,9.957,9.411c0.004-0.012,0.014-0.024,0.025-0.03
				c0.107-0.057,0.215-0.113,0.322-0.17C10.321,9.202,10.339,9.193,10.358,9.183z"/>
			<path style="fill:#96BC4F;" d="M10.367,9.415c0.035,0.005,0.069,0.01,0.104,0.016c0.033,0.005,0.052,0.028,0.047,0.055
				c-0.005,0.03-0.034,0.052-0.064,0.048c-0.071-0.01-0.141-0.021-0.212-0.032c-0.029-0.004-0.046-0.028-0.042-0.056
				c0.004-0.03,0.03-0.051,0.059-0.047C10.295,9.404,10.331,9.409,10.367,9.415z"/>
		</g>
	</g>
	<g>
		<path style="fill:#FFFFFF;" d="M9.215,10.073c0,0,0.047,0.147,0.075,0.3c0.038,0.206,0.063,0.457,0.107,0.696
			c0.066,0.361,0.265,0.858,1.012,0.856l0.025,0.136l0.757-0.138l-0.026-0.144c0.672-0.285,0.624-0.89,0.575-1.155
			c-0.015-0.084-0.105-0.399-0.152-0.658c-0.029-0.156-0.027-0.321-0.027-0.321L9.215,10.073z"/>
		<g>
			<path style="fill:#66B28E;" d="M11.093,10.327c-0.018-0.013-0.042-0.017-0.071-0.012l-0.476,0.087
				c-0.113,0.021-0.226,0.041-0.339,0.062c-0.009,0.002-0.02,0.004-0.031,0.009c-0.044,0.02-0.068,0.059-0.071,0.117
				c-0.009,0.185-0.017,0.371-0.026,0.556l-0.007,0.149c-0.002,0.033,0.007,0.059,0.024,0.077c0.017,0.018,0.043,0.026,0.076,0.026
				c0.006,0,0.013-0.001,0.022-0.003c0.002,0,0.003-0.001,0.005-0.001l0.782-0.143c0.072-0.013,0.114-0.063,0.117-0.136l0.008-0.197
				c0.006-0.137,0.011-0.275,0.016-0.412c0.001-0.037,0.003-0.079-0.001-0.119C11.12,10.36,11.11,10.34,11.093,10.327z
				 M10.969,11.178l-0.789,0.144c-0.016,0.002-0.024,0.001-0.027-0.002c-0.003-0.002-0.005-0.01-0.004-0.026
				c0.005-0.121,0.011-0.243,0.017-0.364l0.01-0.223c0.002-0.038,0.003-0.076,0.005-0.115c0.002-0.031,0.01-0.046,0.028-0.054
				c0.004-0.002,0.01-0.003,0.014-0.004l0.405-0.074l0.405-0.074c0.011-0.002,0.015-0.001,0.015-0.001
				c0,0.001,0.002,0.004,0.002,0.012c0.002,0.033,0.001,0.067,0,0.105c-0.006,0.149-0.012,0.298-0.018,0.447l-0.007,0.163
				C11.024,11.15,11.005,11.171,10.969,11.178z"/>
			<path style="fill:#66B28E;" d="M10.618,10.841c-0.031-0.024-0.059-0.046-0.088-0.068c-0.054-0.042-0.109-0.083-0.163-0.125
				c-0.027-0.02-0.033-0.039-0.024-0.064c0.011-0.028,0.041-0.049,0.069-0.046c0.009,0.001,0.018,0.005,0.025,0.011
				c0.104,0.079,0.207,0.158,0.31,0.237c0.024,0.018,0.025,0.04,0.005,0.061c-0.117,0.124-0.234,0.247-0.35,0.37
				c-0.015,0.016-0.031,0.021-0.052,0.014c-0.021-0.007-0.038-0.021-0.038-0.044c0-0.012,0.006-0.027,0.014-0.036
				c0.083-0.089,0.166-0.177,0.249-0.265C10.59,10.872,10.603,10.857,10.618,10.841z"/>
			<path style="fill:#66B28E;" d="M10.702,11.058c0.034-0.006,0.069-0.013,0.103-0.019c0.033-0.006,0.058,0.009,0.063,0.037
				c0.005,0.03-0.015,0.06-0.045,0.066c-0.07,0.013-0.141,0.026-0.211,0.039c-0.029,0.005-0.053-0.012-0.058-0.04
				c-0.006-0.03,0.012-0.058,0.04-0.063C10.63,11.071,10.666,11.064,10.702,11.058z"/>
		</g>
	</g>
	<g>
		<path style="fill:#FFFFFF;" d="M9.379,11.516c0,0,0.02,0.153,0.02,0.309c0,0.21-0.02,0.461-0.02,0.704
			c0,0.367,0.107,0.892,0.842,1.024v0.138h0.769v-0.147c0.712-0.16,0.773-0.763,0.773-1.032c0-0.085-0.031-0.412-0.031-0.675
			c0-0.159,0.031-0.32,0.031-0.32H9.379z"/>
		<g>
			<path style="fill:#96BC4F;" d="M11.182,12.103c-0.015-0.016-0.038-0.025-0.067-0.025H10.63c-0.115,0-0.23,0-0.344,0
				c-0.009,0-0.021,0-0.032,0.003c-0.047,0.012-0.077,0.046-0.09,0.102c-0.042,0.181-0.084,0.362-0.125,0.543l-0.033,0.145
				c-0.007,0.032-0.004,0.059,0.01,0.08c0.014,0.021,0.037,0.034,0.07,0.039c0.006,0.001,0.013,0.001,0.022,0.001
				c0.002,0,0.003,0,0.005,0h0.795c0.073,0,0.124-0.041,0.14-0.112l0.043-0.192c0.03-0.134,0.06-0.268,0.09-0.402
				c0.008-0.036,0.017-0.077,0.02-0.117C11.202,12.14,11.196,12.119,11.182,12.103z M10.907,12.918h-0.803
				c-0.016-0.001-0.024-0.004-0.026-0.007c-0.002-0.003-0.003-0.011,0-0.026c0.027-0.118,0.055-0.237,0.082-0.355l0.05-0.217
				c0.008-0.037,0.017-0.075,0.026-0.112c0.007-0.031,0.018-0.044,0.038-0.048c0.005-0.001,0.01-0.001,0.015-0.001l0.412,0h0.411
				c0.011,0,0.015,0.002,0.015,0.001c0,0.001,0.001,0.004,0,0.012c-0.004,0.033-0.011,0.066-0.019,0.103
				c-0.032,0.146-0.065,0.291-0.098,0.437l-0.036,0.16C10.966,12.9,10.943,12.918,10.907,12.918z"/>
			<path style="fill:#96BC4F;" d="M10.622,12.524c-0.026-0.029-0.05-0.056-0.074-0.083c-0.046-0.051-0.092-0.101-0.138-0.152
				c-0.022-0.025-0.026-0.045-0.012-0.068c0.016-0.026,0.05-0.041,0.076-0.033c0.008,0.003,0.017,0.008,0.023,0.015
				c0.088,0.096,0.175,0.192,0.263,0.289c0.02,0.022,0.018,0.044-0.006,0.061c-0.137,0.101-0.274,0.201-0.411,0.301
				c-0.017,0.013-0.035,0.015-0.053,0.005c-0.019-0.011-0.033-0.027-0.029-0.05c0.002-0.012,0.01-0.026,0.02-0.033
				c0.097-0.073,0.195-0.144,0.293-0.216C10.589,12.549,10.604,12.537,10.622,12.524z"/>
			<path style="fill:#96BC4F;" d="M10.666,12.752c0.035,0,0.07,0,0.105,0c0.033,0,0.055,0.02,0.055,0.048
				c0,0.031-0.026,0.057-0.056,0.057c-0.071,0-0.143,0-0.214,0c-0.029,0-0.05-0.021-0.05-0.049c0-0.03,0.022-0.055,0.051-0.055
				C10.592,12.752,10.629,12.752,10.666,12.752z"/>
		</g>
	</g>
</g>
<g id="Full_Teal_32x32">
</g>
<g id="Full_Teal_64x64">
</g>
<g id="Full_Teal_128x128">
</g>
<g id="Full_Teal_256x256">
</g>
</svg>
