<?xml version="1.0" encoding="utf-8"?>
<!-- Generator: Adobe Illustrator 19.1.1, SVG Export Plug-In . SVG Version: 6.00 Build 0)  -->
<svg version="1.1" xmlns="http://www.w3.org/2000/svg" xmlns:xlink="http://www.w3.org/1999/xlink" x="0px" y="0px"
	 viewBox="0 0 256 256" style="enable-background:new 0 0 256 256;" xml:space="preserve">
<style type="text/css">
	.st0{fill:#7E7E7C;}
	.st1{fill:#FFFFFF;}
	.st2{fill:#66B28E;}
	.st3{fill:#96BC4F;}
</style>
<g id="Single_Charcoal_Rev_16x16">
</g>
<g id="Single_Charcoal_Rev_32x32">
</g>
<g id="Single_Charcoal_Rev_64x64">
</g>
<g id="Single_Charcoal_Rev_128x128">
</g>
<g id="Single_Charcoal_Rev_256x256">
</g>
<g id="Single_Teal_Rev_16x16">
</g>
<g id="Single_Teal_Rev_32x32">
</g>
<g id="Single_Teal_Rev_64x64_1_">
</g>
<g id="Single_Teal_Rev_128x128">
</g>
<g id="Single_Teal_Rev_256x256">
</g>
<g id="Single_Olive_Rev_16x16">
</g>
<g id="Single_Olive_Rev_32x32">
</g>
<g id="Single_Olive_Rev_64x64_1_">
</g>
<g id="Single_Olive_Rev_128x128">
</g>
<g id="Single_Olive_Rev_256x256">
	<path class="st3" d="M37.5,43.3c0,0,1.5,11.8,1.5,23.9c0,16.2-1.5,35.6-1.5,54.3c0,28.3,8.2,68.8,65,79v10.7h59.4v-11.3
		c55-12.3,59.7-58.9,59.7-79.7c0-6.6-2.4-31.8-2.4-52.1c0-12.3,2.4-24.7,2.4-24.7H37.5z"/>
	<g>
		<path class="st1" d="M187.7,84.8c-1.5-1.6-3.7-2.4-6.5-2.4h-46.6c-11.1,0-22.1,0-33.2,0c-0.9,0-2,0-3.1,0.3
			c-4.5,1.1-7.5,4.4-8.7,9.9c-4.1,17.4-8.1,34.9-12.1,52.3l-3.2,14c-0.7,3.1-0.4,5.7,1,7.7c1.3,2,3.6,3.2,6.7,3.7
			c0.6,0.1,1.2,0.1,2.1,0.1c0.2,0,0.3,0,0.5,0h76.7c7,0,11.9-4,13.5-10.8l4.2-18.6c2.9-12.9,5.8-25.9,8.7-38.8
			c0.8-3.5,1.6-7.4,2-11.3C189.8,88.4,189.2,86.3,187.7,84.8z M161.3,163.4H83.9c-1.6,0-2.3-0.4-2.5-0.6c-0.2-0.3-0.3-1.1,0-2.5
			c2.6-11.4,5.3-22.9,7.9-34.3l4.8-21c0.8-3.6,1.6-7.2,2.5-10.8c0.7-2.9,1.7-4.2,3.6-4.6c0.4-0.1,1-0.1,1.4-0.1l39.7,0H181
			c1.1,0,1.4,0.2,1.5,0.1c0,0.1,0.1,0.4,0,1.2c-0.3,3.2-1.1,6.4-1.9,9.9c-3.1,14-6.3,28.1-9.4,42.1l-3.5,15.4
			C166.9,161.7,164.8,163.4,161.3,163.4z"/>
		<path class="st1" d="M133.8,125.4c-2.5-2.8-4.8-5.4-7.2-8c-4.4-4.9-8.9-9.8-13.3-14.6c-2.2-2.4-2.5-4.3-1.1-6.5
			c1.5-2.5,4.8-4,7.3-3.2c0.8,0.2,1.6,0.8,2.2,1.4c8.5,9.3,16.9,18.5,25.3,27.8c1.9,2.1,1.7,4.2-0.6,5.9
			c-13.2,9.7-26.4,19.4-39.6,29.1c-1.7,1.2-3.3,1.5-5.2,0.4c-1.9-1.1-3.2-2.6-2.8-4.9c0.2-1.2,1-2.5,1.9-3.2
			c9.4-7,18.8-13.9,28.3-20.8C130.6,127.8,132.1,126.7,133.8,125.4z"/>
		<path class="st1" d="M138,147.4c3.4,0,6.7,0,10.1,0c3.2,0,5.3,1.9,5.3,4.6c0,2.9-2.5,5.5-5.4,5.5c-6.9,0-13.8,0-20.7,0
			c-2.8,0-4.8-2-4.8-4.8c0-2.9,2.1-5.3,4.9-5.3C130.9,147.4,134.5,147.4,138,147.4z"/>
	</g>
</g>
<g id="Single_Olive_16x16">
</g>
<g id="Single_Olive_32x32">
</g>
<g id="Single_Olive_64x64">
</g>
<g id="Single_Olive_128x128">
</g>
<g id="Single_Olive_256x256">
</g>
<g id="Single_Teal_256x256">
</g>
<g id="Single_Teal_16x16">
</g>
<g id="Single_Teal_32x32">
</g>
<g id="Single_Teal_64x64">
</g>
<g id="Single_Teal_128x128">
</g>
<g id="Single_Charcoal_32x32">
</g>
<g id="Single_Charcoal_16x16">
</g>
<g id="Single_Charcoal_64x64">
</g>
<g id="Single_Charcoal_128x128">
</g>
<g id="Single_Charcoal_256x256">
</g>
<g id="Full_Olive_16x16">
</g>
<g id="Full_Olive_32x32">
</g>
<g id="Full_Olive_64x64">
</g>
<g id="Full_Olive_128x128">
</g>
<g id="Full_Olive_256x256">
</g>
<g id="Full_Teal_16x16">
</g>
<g id="Full_Teal_32x32">
</g>
<g id="Full_Teal_64x64">
</g>
<g id="Full_Teal_128x128">
</g>
<g id="Full_Teal_256x256">
</g>
</svg>
