<?xml version="1.0" encoding="utf-8"?>
<!-- Generator: Adobe Illustrator 19.1.1, SVG Export Plug-In . SVG Version: 6.00 Build 0)  -->
<svg version="1.1" xmlns="http://www.w3.org/2000/svg" xmlns:xlink="http://www.w3.org/1999/xlink" x="0px" y="0px"
	 viewBox="0 0 16 16" style="enable-background:new 0 0 16 16;" xml:space="preserve">
<style type="text/css">
	.st0{fill:#96BC4F;}
	.st1{fill:#FFFFFF;}
	.st2{fill:#66B28E;}
	.st3{fill:#7E7E7C;}
</style>
<g id="Single_Olive_16x16">
</g>
<g id="Single_Olive_32x32">
</g>
<g id="Single_Olive_64x64">
</g>
<g id="Single_Olive_256x256">
</g>
<g id="Single_Teal_256x256">
</g>
<g id="Single_Charcoal_256x256">
</g>
<g id="Single_Teal_16x16">
</g>
<g id="Single_Teal_32x32">
</g>
<g id="Single_Teal_64x64">
</g>
<g id="Single_Charcoal_32x32">
</g>
<g id="Single_Charcoal_16x16">
</g>
<g id="Single_Charcoal_64x64">
</g>
<g id="Single_Charcoal_128x128">
</g>
<g id="Full_Olive_16x16">
</g>
<g id="Full_Olive_32x32">
</g>
<g id="Full_Olive_64x64">
</g>
<g id="Full_Olive_256x256">
</g>
<g id="Full_Teal_256x256">
</g>
<g id="Full_Teal_16x16">
	<path class="st2" d="M15,16H1c-0.5,0-1-0.5-1-1V1c0-0.5,0.6-1,1-1h14c0.5,0,1,0.6,1,1v14C16,15.5,15.5,16,15,16z"/>
	<path class="st3" d="M8.8,1.6c0.3,0,2.6,0,3.1,0c0.5,0,0.5,0.2,0.5,0.3c0,1-0.9,1.4-0.9,2.2c0,0.3,0.9,2.6,1.3,5.3s0.2,4.4,0.2,4.6
		c0,1.1-5.1,1.3-5.1-0.1c0-0.4-0.1-2.5,0.1-4.5c0.3-2.3,1.3-4.9,1.3-5.4c0-0.6-0.8-1.2-0.8-2.2C8.5,1.8,8.5,1.6,8.8,1.6z"/>
	<g>
		<path class="st1" d="M9.3,7.9c0,0,0,0.2,0,0.3c0,0.2-0.1,0.5-0.1,0.7c-0.1,0.4,0,0.9,0.7,1.1l0,0.1l0.8,0.1l0-0.1
			c0.7-0.1,0.9-0.6,0.9-0.9c0-0.1,0-0.4,0.1-0.7c0-0.2,0.1-0.3,0.1-0.3L9.3,7.9z"/>
		<g>
			<path class="st0" d="M11.1,8.7C11.1,8.7,11,8.7,11.1,8.7l-0.6-0.1c-0.1,0-0.3,0-0.4-0.1c0,0,0,0,0,0c-0.1,0-0.1,0-0.1,0.1
				C9.8,8.8,9.7,9,9.7,9.2L9.6,9.4c0,0,0,0.1,0,0.1c0,0,0,0,0.1,0.1c0,0,0,0,0,0c0,0,0,0,0,0l0.9,0.1c0.1,0,0.1,0,0.2-0.1l0.1-0.2
				C10.9,9.2,11,9.1,11,8.9C11.1,8.9,11.1,8.8,11.1,8.7C11.1,8.8,11.1,8.7,11.1,8.7z M10.6,9.6L9.7,9.5c0,0,0,0,0,0c0,0,0,0,0,0
				C9.7,9.3,9.8,9.1,9.8,9l0.1-0.2c0,0,0-0.1,0-0.1c0,0,0,0,0.1,0c0,0,0,0,0,0l0.5,0.1L11,8.8c0,0,0,0,0,0c0,0,0,0,0,0
				c0,0,0,0.1,0,0.1c-0.1,0.2-0.1,0.3-0.2,0.5L10.6,9.6C10.7,9.6,10.7,9.6,10.6,9.6z"/>
			<path class="st0" d="M10.4,9.1c0,0,0-0.1-0.1-0.1c0-0.1-0.1-0.1-0.1-0.2c0,0,0-0.1,0-0.1c0,0,0.1,0,0.1,0c0,0,0,0,0,0
				c0.1,0.1,0.2,0.2,0.2,0.4c0,0,0,0.1,0,0.1c-0.2,0.1-0.3,0.2-0.5,0.3c0,0,0,0-0.1,0c0,0,0,0,0-0.1c0,0,0,0,0,0
				C10.1,9.3,10.2,9.2,10.4,9.1C10.3,9.1,10.3,9.1,10.4,9.1z"/>
			<path class="st0" d="M10.4,9.4c0,0,0.1,0,0.1,0c0,0,0.1,0,0.1,0.1c0,0,0,0.1-0.1,0.1c-0.1,0-0.2,0-0.2,0c0,0-0.1,0,0-0.1
				c0,0,0-0.1,0.1-0.1C10.3,9.3,10.3,9.4,10.4,9.4z"/>
		</g>
	</g>
	<g>
		<path class="st1" d="M9.2,10c0,0,0,0.1,0.1,0.3c0,0.2,0.1,0.5,0.1,0.7c0.1,0.4,0.3,0.9,1,0.9l0,0.1l0.8-0.1l0-0.1
			c0.7-0.3,0.6-0.9,0.6-1.2c0-0.1-0.1-0.4-0.2-0.7c0-0.2,0-0.3,0-0.3L9.2,10z"/>
		<g>
			<path class="st2" d="M11.3,10c0,0-0.1,0-0.1,0l-0.7,0.1c-0.2,0-0.3,0.1-0.5,0.1c0,0,0,0,0,0c-0.1,0-0.1,0.1-0.1,0.2
				c0,0.3,0,0.5,0,0.8l0,0.2c0,0,0,0.1,0,0.1c0,0,0.1,0,0.1,0c0,0,0,0,0,0c0,0,0,0,0,0l1.1-0.2c0.1,0,0.2-0.1,0.2-0.2l0-0.3
				c0-0.2,0-0.4,0-0.6C11.4,10.2,11.4,10.2,11.3,10C11.3,10.1,11.3,10,11.3,10z M11.1,11.2L10,11.4c0,0,0,0,0,0c0,0,0,0,0,0
				c0-0.2,0-0.3,0-0.5l0-0.3c0-0.1,0-0.1,0-0.2c0,0,0-0.1,0-0.1c0,0,0,0,0,0l0.6-0.1l0.6-0.1c0,0,0,0,0,0c0,0,0,0,0,0
				c0,0,0,0.1,0,0.1c0,0.2,0,0.4,0,0.6L11.1,11.2C11.2,11.2,11.2,11.2,11.1,11.2z"/>
			<path class="st2" d="M10.6,10.7c0,0-0.1-0.1-0.1-0.1c-0.1-0.1-0.2-0.1-0.2-0.2c0,0,0-0.1,0-0.1c0,0,0.1-0.1,0.1-0.1c0,0,0,0,0,0
				c0.1,0.1,0.3,0.2,0.4,0.3c0,0,0,0.1,0,0.1c-0.2,0.2-0.3,0.4-0.5,0.5c0,0,0,0-0.1,0c0,0-0.1,0-0.1-0.1c0,0,0,0,0-0.1
				C10.3,11.1,10.4,10.9,10.6,10.7C10.6,10.8,10.6,10.8,10.6,10.7z"/>
			<path class="st2" d="M10.7,11.1c0,0,0.1,0,0.1,0c0,0,0.1,0,0.1,0.1c0,0,0,0.1-0.1,0.1c-0.1,0-0.2,0-0.3,0.1c0,0-0.1,0-0.1-0.1
				c0,0,0-0.1,0.1-0.1C10.6,11.1,10.7,11.1,10.7,11.1z"/>
		</g>
	</g>
	<g>
		<path class="st1" d="M9.4,11.6c0,0,0,0.2,0,0.3c0,0.2,0,0.5,0,0.7c0,0.4,0.1,0.9,0.8,1v0.1H11v-0.1c0.7-0.2,0.8-0.8,0.8-1
			c0-0.1,0-0.4,0-0.7c0-0.2,0-0.3,0-0.3H9.4z"/>
		<g>
			<path class="st0" d="M11.3,12C11.3,12,11.3,12,11.3,12l-0.7,0c-0.1,0-0.3,0-0.4,0c0,0,0,0,0,0c-0.1,0-0.1,0.1-0.1,0.1
				c-0.1,0.2-0.1,0.5-0.2,0.7l0,0.2c0,0,0,0.1,0,0.1c0,0,0,0,0.1,0c0,0,0,0,0,0c0,0,0,0,0,0h1c0.1,0,0.2-0.1,0.2-0.1l0.1-0.2
				c0-0.2,0.1-0.3,0.1-0.5C11.3,12.2,11.3,12.2,11.3,12C11.4,12.1,11.3,12,11.3,12z M11,13h-1c0,0,0,0,0,0c0,0,0,0,0,0
				c0-0.1,0.1-0.3,0.1-0.4l0.1-0.3c0,0,0-0.1,0-0.1c0,0,0-0.1,0-0.1c0,0,0,0,0,0l0.5,0h0.5c0,0,0,0,0,0c0,0,0,0,0,0c0,0,0,0.1,0,0.1
				c0,0.2-0.1,0.4-0.1,0.5L11,13C11.1,13,11,13,11,13z"/>
			<path class="st0" d="M10.6,12.6c0,0-0.1-0.1-0.1-0.1c-0.1-0.1-0.1-0.1-0.2-0.2c0,0,0-0.1,0-0.1c0,0,0.1-0.1,0.1,0c0,0,0,0,0,0
				c0.1,0.1,0.2,0.2,0.3,0.4c0,0,0,0.1,0,0.1c-0.2,0.1-0.3,0.3-0.5,0.4c0,0,0,0-0.1,0c0,0,0,0,0-0.1c0,0,0,0,0,0
				C10.3,12.8,10.4,12.7,10.6,12.6C10.6,12.6,10.6,12.6,10.6,12.6z"/>
			<path class="st0" d="M10.7,12.8c0,0,0.1,0,0.1,0c0,0,0.1,0,0.1,0.1c0,0,0,0.1-0.1,0.1c-0.1,0-0.2,0-0.3,0c0,0-0.1,0-0.1-0.1
				c0,0,0-0.1,0.1-0.1C10.6,12.8,10.6,12.8,10.7,12.8z"/>
		</g>
	</g>
</g>
<g id="Full_Teal_32x32">
</g>
<g id="Full_Teal_64x64">
</g>
</svg>
