<?xml version="1.0" encoding="utf-8"?>
<!-- Generator: Adobe Illustrator 19.1.1, SVG Export Plug-In . SVG Version: 6.00 Build 0)  -->
<svg version="1.1" xmlns="http://www.w3.org/2000/svg" xmlns:xlink="http://www.w3.org/1999/xlink" x="0px" y="0px"
	 viewBox="0 0 64 64" style="enable-background:new 0 0 64 64;" xml:space="preserve">
<style type="text/css">
	.st0{fill:#96BC4F;}
	.st1{fill:#FFFFFF;}
	.st2{fill:#66B28E;}
	.st3{fill:#7E7E7C;}
</style>
<g id="Single_Olive_16x16">
</g>
<g id="Single_Olive_32x32">
</g>
<g id="Single_Olive_64x64">
</g>
<g id="Single_Olive_256x256">
</g>
<g id="Single_Teal_256x256">
</g>
<g id="Single_Charcoal_256x256">
</g>
<g id="Single_Teal_16x16">
</g>
<g id="Single_Teal_32x32">
</g>
<g id="Single_Teal_64x64">
</g>
<g id="Single_Charcoal_32x32">
</g>
<g id="Single_Charcoal_16x16">
</g>
<g id="Single_Charcoal_64x64">
</g>
<g id="Single_Charcoal_128x128">
</g>
<g id="Full_Olive_16x16">
</g>
<g id="Full_Olive_32x32">
</g>
<g id="Full_Olive_64x64">
</g>
<g id="Full_Olive_256x256">
</g>
<g id="Full_Teal_256x256">
</g>
<g id="Full_Teal_16x16">
</g>
<g id="Full_Teal_32x32">
</g>
<g id="Full_Teal_64x64">
	<path class="st2" d="M60,64H4c-2,0-4-2-4-4V4c0-1.8,2.4-4,4-4h56c2,0,4,2.3,4,4v56C64,62,62,64,60,64z"/>
	<path class="st3" d="M35.3,6.4c1.2,0,10.4,0,12.4,0c1.9,0,1.9,0.8,1.9,1.4c0,3.9-3.6,5.7-3.6,8.6c0,1.3,3.4,10.6,5.1,21.4
		c1.7,10.8,0.7,17.4,0.7,18.4c0,4.3-20.4,5.2-20.4-0.5c0-1.5-0.4-10.2,0.6-17.9c1.2-9.4,5.3-19.6,5.3-21.4c0-2.3-3.4-4.7-3.4-8.7
		C34,7.1,34.1,6.4,35.3,6.4z"/>
	<g>
		<path class="st1" d="M37.1,31.6c0,0,0,0.6-0.1,1.2c-0.1,0.8-0.4,1.8-0.5,2.8c-0.2,1.5-0.1,3.6,2.7,4.6l-0.1,0.5l3,0.5l0.1-0.6
			c2.9-0.2,3.5-2.6,3.7-3.6c0.1-0.3,0.1-1.6,0.3-2.7c0.1-0.6,0.3-1.2,0.3-1.2L37.1,31.6z"/>
		<g>
			<path class="st0" d="M44.3,34.8c-0.1-0.1-0.2-0.1-0.3-0.2l-2.2-0.3c-0.5-0.1-1-0.2-1.6-0.2c0,0-0.1,0-0.1,0
				c-0.2,0-0.4,0.2-0.5,0.4c-0.3,0.8-0.6,1.6-0.9,2.4l-0.3,0.6c-0.1,0.1-0.1,0.3,0,0.4c0,0.1,0.1,0.2,0.3,0.2c0,0,0.1,0,0.1,0
				c0,0,0,0,0,0l3.6,0.5c0.3,0.1,0.6-0.1,0.7-0.4l0.3-0.8c0.2-0.6,0.5-1.2,0.7-1.8c0.1-0.2,0.1-0.3,0.2-0.5
				C44.4,35,44.3,34.9,44.3,34.8z M42.5,38.4l-3.7-0.6c-0.1,0-0.1,0-0.1,0c0,0,0-0.1,0-0.1c0.2-0.5,0.4-1,0.6-1.6l0.4-1
				c0.1-0.2,0.1-0.3,0.2-0.5c0.1-0.1,0.1-0.2,0.2-0.2c0,0,0,0,0.1,0l1.9,0.3l1.9,0.3c0.1,0,0.1,0,0.1,0c0,0,0,0,0,0.1
				c0,0.1-0.1,0.3-0.2,0.5c-0.2,0.6-0.5,1.3-0.7,1.9l-0.3,0.7C42.8,38.3,42.6,38.4,42.5,38.4z"/>
			<path class="st0" d="M41.4,36.4c-0.1-0.2-0.2-0.3-0.3-0.4c-0.2-0.3-0.3-0.5-0.5-0.8c-0.1-0.1-0.1-0.2,0-0.3
				c0.1-0.1,0.3-0.2,0.4-0.1c0,0,0.1,0.1,0.1,0.1c0.3,0.5,0.7,1,1,1.5c0.1,0.1,0.1,0.2-0.1,0.3c-0.7,0.4-1.4,0.7-2.1,1.1
				c-0.1,0-0.2,0-0.2,0c-0.1-0.1-0.1-0.1-0.1-0.2c0-0.1,0.1-0.1,0.1-0.1c0.5-0.3,1-0.5,1.5-0.8C41.3,36.5,41.4,36.4,41.4,36.4z"/>
			<path class="st0" d="M41.5,37.4c0.2,0,0.3,0,0.5,0.1c0.2,0,0.2,0.1,0.2,0.3c0,0.1-0.2,0.2-0.3,0.2c-0.3,0-0.7-0.1-1-0.1
				c-0.1,0-0.2-0.1-0.2-0.3c0-0.1,0.1-0.2,0.3-0.2C41.2,37.4,41.3,37.4,41.5,37.4z"/>
		</g>
	</g>
	<g>
		<path class="st1" d="M36.9,39.9c0,0,0.2,0.6,0.3,1.2c0.2,0.8,0.3,1.8,0.4,2.8c0.3,1.4,1.1,3.4,4,3.4l0.1,0.5l3-0.6l-0.1-0.6
			c2.7-1.1,2.5-3.6,2.3-4.6c-0.1-0.3-0.4-1.6-0.6-2.6c-0.1-0.6-0.1-1.3-0.1-1.3L36.9,39.9z"/>
		<g>
			<path class="st2" d="M45.2,40C45.1,40,45,39.9,44.8,40l-2.7,0.5c-0.6,0.1-1.3,0.2-1.9,0.4c-0.1,0-0.1,0-0.2,0
				c-0.3,0.1-0.4,0.3-0.4,0.7c-0.1,1.1-0.1,2.1-0.1,3.2l0,0.9c0,0.2,0,0.3,0.1,0.4c0.1,0.1,0.2,0.2,0.4,0.1c0,0,0.1,0,0.1,0
				c0,0,0,0,0,0l4.5-0.8c0.4-0.1,0.7-0.4,0.7-0.8l0-1.1c0-0.8,0.1-1.6,0.1-2.4c0-0.2,0-0.4,0-0.7C45.4,40.2,45.3,40.1,45.2,40z
				 M44.5,44.9L40,45.7c-0.1,0-0.1,0-0.2,0c0,0,0-0.1,0-0.1c0-0.7,0.1-1.4,0.1-2.1l0.1-1.3c0-0.2,0-0.4,0-0.7c0-0.2,0.1-0.3,0.2-0.3
				c0,0,0.1,0,0.1,0l2.3-0.4l2.3-0.4c0.1,0,0.1,0,0.1,0c0,0,0,0,0,0.1c0,0.2,0,0.4,0,0.6c0,0.9-0.1,1.7-0.1,2.6l0,0.9
				C44.8,44.7,44.7,44.9,44.5,44.9z"/>
			<path class="st2" d="M42.5,43c-0.2-0.1-0.3-0.3-0.5-0.4c-0.3-0.2-0.6-0.5-0.9-0.7c-0.2-0.1-0.2-0.2-0.1-0.4
				c0.1-0.2,0.2-0.3,0.4-0.3c0,0,0.1,0,0.1,0.1c0.6,0.4,1.2,0.9,1.8,1.4c0.1,0.1,0.1,0.2,0,0.4c-0.7,0.7-1.3,1.4-2,2.1
				c-0.1,0.1-0.2,0.1-0.3,0.1c-0.1,0-0.2-0.1-0.2-0.3c0-0.1,0-0.2,0.1-0.2c0.5-0.5,0.9-1,1.4-1.5C42.3,43.2,42.4,43.1,42.5,43z"/>
			<path class="st2" d="M43,44.2c0.2,0,0.4-0.1,0.6-0.1c0.2,0,0.3,0.1,0.4,0.2c0,0.2-0.1,0.3-0.3,0.4c-0.4,0.1-0.8,0.1-1.2,0.2
				c-0.2,0-0.3-0.1-0.3-0.2c0-0.2,0.1-0.3,0.2-0.4C42.6,44.3,42.8,44.3,43,44.2z"/>
		</g>
	</g>
	<g>
		<path class="st1" d="M37.5,46.2c0,0,0.1,0.6,0.1,1.2c0,0.8-0.1,1.8-0.1,2.8c0,1.5,0.4,3.6,3.4,4.1v0.6H44v-0.6
			c2.8-0.6,3.1-3.1,3.1-4.1c0-0.3-0.1-1.6-0.1-2.7c0-0.6,0.1-1.3,0.1-1.3H37.5z"/>
		<g>
			<path class="st0" d="M45.3,48.1C45.2,48,45.1,48,45,48h-2.4c-0.6,0-1.1,0-1.7,0c0,0-0.1,0-0.2,0c-0.2,0.1-0.4,0.2-0.5,0.5
				c-0.2,0.9-0.4,1.8-0.6,2.7L39.4,52c0,0.2,0,0.3,0,0.4c0.1,0.1,0.2,0.2,0.3,0.2c0,0,0.1,0,0.1,0c0,0,0,0,0,0h4
				c0.4,0,0.6-0.2,0.7-0.6l0.2-1c0.2-0.7,0.3-1.3,0.5-2c0-0.2,0.1-0.4,0.1-0.6C45.4,48.3,45.4,48.2,45.3,48.1z M43.9,52.2h-4
				c-0.1,0-0.1,0-0.1,0c0,0,0-0.1,0-0.1c0.1-0.6,0.3-1.2,0.4-1.8l0.3-1.1c0-0.2,0.1-0.4,0.1-0.6c0-0.2,0.1-0.2,0.2-0.2
				c0,0,0.1,0,0.1,0l2.1,0H45c0.1,0,0.1,0,0.1,0c0,0,0,0,0,0.1c0,0.2-0.1,0.3-0.1,0.5c-0.2,0.7-0.3,1.5-0.5,2.2l-0.2,0.8
				C44.2,52.1,44.1,52.2,43.9,52.2z"/>
			<path class="st0" d="M42.5,50.2c-0.1-0.1-0.3-0.3-0.4-0.4c-0.2-0.3-0.5-0.5-0.7-0.8c-0.1-0.1-0.1-0.2-0.1-0.3
				c0.1-0.1,0.2-0.2,0.4-0.2c0,0,0.1,0,0.1,0.1c0.4,0.5,0.9,1,1.3,1.4c0.1,0.1,0.1,0.2,0,0.3c-0.7,0.5-1.4,1-2.1,1.5
				c-0.1,0.1-0.2,0.1-0.3,0c-0.1-0.1-0.2-0.1-0.1-0.3c0-0.1,0.1-0.1,0.1-0.2c0.5-0.4,1-0.7,1.5-1.1C42.3,50.3,42.4,50.3,42.5,50.2z"
				/>
			<path class="st0" d="M42.7,51.4c0.2,0,0.3,0,0.5,0c0.2,0,0.3,0.1,0.3,0.2c0,0.2-0.1,0.3-0.3,0.3c-0.4,0-0.7,0-1.1,0
				c-0.1,0-0.2-0.1-0.2-0.2c0-0.2,0.1-0.3,0.3-0.3C42.4,51.4,42.5,51.4,42.7,51.4z"/>
		</g>
	</g>
</g>
</svg>
