<?xml version="1.0" encoding="utf-8"?>
<!-- Generator: Adobe Illustrator 19.1.1, SVG Export Plug-In . SVG Version: 6.00 Build 0)  -->
<svg version="1.1" xmlns="http://www.w3.org/2000/svg" xmlns:xlink="http://www.w3.org/1999/xlink" x="0px" y="0px"
	 viewBox="0 0 128 128" style="enable-background:new 0 0 128 128;" xml:space="preserve">
<style type="text/css">
	.st0{fill:#96BC4F;}
	.st1{fill:#FFFFFF;}
	.st2{fill:#66B28E;}
	.st3{fill:#7E7E7C;}
</style>
<g id="Single_Olive_16x16">
</g>
<g id="Single_Olive_32x32">
</g>
<g id="Single_Olive_64x64">
</g>
<g id="Single_Olive_256x256">
</g>
<g id="Single_Teal_256x256">
</g>
<g id="Single_Charcoal_256x256">
</g>
<g id="Single_Teal_16x16">
</g>
<g id="Single_Teal_32x32">
</g>
<g id="Single_Teal_64x64">
</g>
<g id="Single_Charcoal_32x32">
</g>
<g id="Single_Charcoal_16x16">
</g>
<g id="Single_Charcoal_64x64">
</g>
<g id="Single_Charcoal_128x128">
</g>
<g id="Full_Olive_16x16">
</g>
<g id="Full_Olive_32x32">
</g>
<g id="Full_Olive_64x64">
	<path class="st0" d="M120,128H8c-4,0-8-4-8-8V8c0-3.7,4.8-8,8-8h112c4,0,8,4.5,8,8v112C128,124,124.1,128,120,128z"/>
	<path class="st3" d="M70.6,12.8c2.4,0,20.7,0,24.7,0c3.8,0,3.8,1.7,3.8,2.8c0,7.9-7.2,11.5-7.2,17.2c0,2.6,6.8,21.1,10.3,42.7
		s1.4,34.9,1.4,36.8c0,8.7-40.8,10.4-40.8-1c0-3-0.8-20.4,1.2-35.7c2.5-18.7,10.7-39.3,10.7-42.8c0-4.6-6.7-9.5-6.7-17.3
		C67.9,14.2,68.2,12.8,70.6,12.8z"/>
	<g>
		<path class="st1" d="M74.2,63.3c0,0,0,1.2-0.2,2.5c-0.3,1.7-0.7,3.6-1,5.5c-0.4,2.9-0.2,7.2,5.4,9.1l-0.2,1.1l6.1,0.9l0.2-1.2
			c5.8-0.4,7-5.1,7.4-7.2c0.1-0.7,0.2-3.3,0.6-5.4c0.2-1.3,0.6-2.5,0.6-2.5L74.2,63.3z"/>
		<g>
			<path class="st2" d="M88.6,69.7c-0.1-0.2-0.3-0.3-0.6-0.3l-4.4-0.7c-1-0.2-2.1-0.3-3.1-0.5c-0.1,0-0.2,0-0.3,0
				c-0.4,0-0.8,0.3-1,0.8c-0.6,1.6-1.3,3.2-1.9,4.8L76.8,75c-0.1,0.3-0.1,0.5,0,0.7c0.1,0.2,0.3,0.4,0.6,0.5c0.1,0,0.1,0,0.2,0
				c0,0,0,0,0,0l7.3,1.1c0.7,0.1,1.2-0.2,1.4-0.8l0.7-1.7c0.5-1.2,0.9-2.4,1.4-3.5c0.1-0.3,0.3-0.7,0.3-1
				C88.7,70,88.7,69.8,88.6,69.7z M85,76.7l-7.3-1.1c-0.1,0-0.2-0.1-0.2-0.1c0,0,0-0.1,0-0.2c0.4-1,0.8-2.1,1.2-3.1l0.8-1.9
				c0.1-0.3,0.3-0.7,0.4-1c0.1-0.3,0.2-0.4,0.4-0.4c0,0,0.1,0,0.1,0l3.8,0.6l3.8,0.6c0.1,0,0.1,0,0.1,0c0,0,0,0,0,0.1
				c-0.1,0.3-0.2,0.6-0.3,0.9c-0.5,1.3-1,2.6-1.5,3.9l-0.5,1.4C85.5,76.6,85.3,76.8,85,76.7z"/>
			<path class="st2" d="M82.9,72.7c-0.2-0.3-0.4-0.6-0.6-0.9c-0.3-0.5-0.7-1.1-1-1.6c-0.2-0.3-0.2-0.4,0-0.6
				c0.2-0.2,0.5-0.3,0.7-0.2c0.1,0,0.1,0.1,0.2,0.2c0.7,1,1.3,2,2,3c0.2,0.2,0.1,0.4-0.1,0.6c-1.4,0.7-2.8,1.5-4.2,2.2
				c-0.2,0.1-0.3,0.1-0.5,0c-0.2-0.1-0.3-0.3-0.2-0.5c0-0.1,0.1-0.2,0.2-0.3c1-0.5,2-1,3-1.6C82.6,72.9,82.7,72.8,82.9,72.7z"/>
			<path class="st2" d="M83,74.9c0.3,0,0.6,0.1,1,0.1c0.3,0,0.5,0.3,0.4,0.5c0,0.3-0.3,0.5-0.6,0.4c-0.7-0.1-1.3-0.2-2-0.3
				c-0.3,0-0.4-0.3-0.4-0.5c0-0.3,0.3-0.5,0.5-0.4C82.3,74.8,82.6,74.8,83,74.9z"/>
		</g>
	</g>
	<g>
		<path class="st1" d="M73.7,79.9c0,0,0.4,1.2,0.6,2.4c0.3,1.6,0.5,3.7,0.9,5.6c0.5,2.9,2.1,6.9,8.1,6.8l0.2,1.1l6.1-1.1l-0.2-1.2
			c5.4-2.3,5-7.1,4.6-9.2c-0.1-0.7-0.8-3.2-1.2-5.3c-0.2-1.3-0.2-2.6-0.2-2.6L73.7,79.9z"/>
		<g>
			<path class="st0" d="M90.4,80.1c-0.2-0.2-0.5-0.2-0.8-0.1l-5.4,1c-1.3,0.2-2.6,0.5-3.9,0.7c-0.1,0-0.2,0-0.3,0.1
				c-0.5,0.2-0.8,0.7-0.8,1.3c-0.1,2.1-0.2,4.2-0.3,6.3l-0.1,1.7c0,0.4,0.1,0.7,0.3,0.9c0.2,0.2,0.5,0.3,0.9,0.3c0.1,0,0.1,0,0.2,0
				c0,0,0,0,0.1,0l8.9-1.6c0.8-0.1,1.3-0.7,1.3-1.5l0.1-2.2c0.1-1.6,0.1-3.1,0.2-4.7c0-0.4,0-0.9,0-1.4
				C90.7,80.5,90.6,80.2,90.4,80.1z M89,89.8l-9,1.6c-0.2,0-0.3,0-0.3,0c0,0-0.1-0.1,0-0.3c0.1-1.4,0.1-2.8,0.2-4.2l0.1-2.5
				c0-0.4,0-0.9,0.1-1.3c0-0.4,0.1-0.5,0.3-0.6c0.1,0,0.1,0,0.2,0l4.6-0.8l4.6-0.8c0.1,0,0.2,0,0.2,0c0,0,0,0,0,0.1
				c0,0.4,0,0.8,0,1.2c-0.1,1.7-0.1,3.4-0.2,5.1l-0.1,1.9C89.6,89.5,89.4,89.7,89,89.8z"/>
			<path class="st0" d="M85,86c-0.4-0.3-0.7-0.5-1-0.8c-0.6-0.5-1.2-0.9-1.9-1.4c-0.3-0.2-0.4-0.4-0.3-0.7c0.1-0.3,0.5-0.6,0.8-0.5
				c0.1,0,0.2,0.1,0.3,0.1c1.2,0.9,2.4,1.8,3.5,2.7c0.3,0.2,0.3,0.5,0.1,0.7c-1.3,1.4-2.7,2.8-4,4.2c-0.2,0.2-0.4,0.2-0.6,0.2
				c-0.2-0.1-0.4-0.2-0.4-0.5c0-0.1,0.1-0.3,0.2-0.4c0.9-1,1.9-2,2.8-3C84.7,86.3,84.8,86.1,85,86z"/>
			<path class="st0" d="M86,88.4c0.4-0.1,0.8-0.1,1.2-0.2c0.4-0.1,0.7,0.1,0.7,0.4c0.1,0.3-0.2,0.7-0.5,0.8
				c-0.8,0.1-1.6,0.3-2.4,0.4c-0.3,0.1-0.6-0.1-0.7-0.5c-0.1-0.3,0.1-0.7,0.5-0.7C85.1,88.6,85.6,88.5,86,88.4z"/>
		</g>
	</g>
	<g>
		<path class="st1" d="M75,92.4c0,0,0.2,1.2,0.2,2.5c0,1.7-0.2,3.7-0.2,5.6c0,2.9,0.9,7.1,6.7,8.2v1.1h6.2v-1.2
			c5.7-1.3,6.2-6.1,6.2-8.3c0-0.7-0.3-3.3-0.3-5.4c0-1.3,0.3-2.6,0.3-2.6H75z"/>
		<g>
			<path class="st2" d="M90.6,96.2c-0.2-0.2-0.4-0.2-0.7-0.2h-4.8c-1.1,0-2.3,0-3.4,0c-0.1,0-0.2,0-0.3,0c-0.5,0.1-0.8,0.5-0.9,1
				c-0.4,1.8-0.8,3.6-1.3,5.4l-0.3,1.5c-0.1,0.3,0,0.6,0.1,0.8c0.1,0.2,0.4,0.3,0.7,0.4c0.1,0,0.1,0,0.2,0c0,0,0,0,0,0h8
				c0.7,0,1.2-0.4,1.4-1.1l0.4-1.9c0.3-1.3,0.6-2.7,0.9-4c0.1-0.4,0.2-0.8,0.2-1.2C90.8,96.6,90.8,96.4,90.6,96.2z M87.9,104.4h-8
				c-0.2,0-0.2,0-0.3-0.1c0,0,0-0.1,0-0.3c0.3-1.2,0.5-2.4,0.8-3.6l0.5-2.2c0.1-0.4,0.2-0.7,0.3-1.1c0.1-0.3,0.2-0.4,0.4-0.5
				c0,0,0.1,0,0.1,0l4.1,0h4.1c0.1,0,0.1,0,0.2,0c0,0,0,0,0,0.1c0,0.3-0.1,0.7-0.2,1c-0.3,1.5-0.7,2.9-1,4.4l-0.4,1.6
				C88.5,104.2,88.2,104.4,87.9,104.4z"/>
			<path class="st2" d="M85,100.4c-0.3-0.3-0.5-0.6-0.7-0.8c-0.5-0.5-0.9-1-1.4-1.5c-0.2-0.2-0.3-0.4-0.1-0.7
				c0.2-0.3,0.5-0.4,0.8-0.3c0.1,0,0.2,0.1,0.2,0.1c0.9,1,1.8,1.9,2.6,2.9c0.2,0.2,0.2,0.4-0.1,0.6c-1.4,1-2.7,2-4.1,3
				c-0.2,0.1-0.3,0.2-0.5,0c-0.2-0.1-0.3-0.3-0.3-0.5c0-0.1,0.1-0.3,0.2-0.3c1-0.7,2-1.4,2.9-2.2C84.7,100.7,84.8,100.6,85,100.4z"
				/>
			<path class="st2" d="M85.5,102.7c0.3,0,0.7,0,1,0c0.3,0,0.6,0.2,0.6,0.5c0,0.3-0.3,0.6-0.6,0.6c-0.7,0-1.4,0-2.1,0
				c-0.3,0-0.5-0.2-0.5-0.5c0-0.3,0.2-0.5,0.5-0.6C84.7,102.7,85.1,102.7,85.5,102.7z"/>
		</g>
	</g>
</g>
<g id="Full_Olive_256x256">
</g>
<g id="Full_Teal_256x256">
</g>
<g id="Full_Teal_16x16">
</g>
<g id="Full_Teal_32x32">
</g>
<g id="Full_Teal_64x64">
</g>
</svg>
