<?xml version="1.0" encoding="utf-8"?>
<!-- Generator: Adobe Illustrator 19.1.1, SVG Export Plug-In . SVG Version: 6.00 Build 0)  -->
<svg version="1.1" xmlns="http://www.w3.org/2000/svg" xmlns:xlink="http://www.w3.org/1999/xlink" x="0px" y="0px"
	 viewBox="0 0 64 64" style="enable-background:new 0 0 64 64;" xml:space="preserve">
<style type="text/css">
	.st0{fill:#96BC4F;}
	.st1{fill:#FFFFFF;}
	.st2{fill:#66B28E;}
	.st3{fill:#7E7E7C;}
</style>
<g id="Single_Olive_16x16">
</g>
<g id="Single_Olive_32x32">
</g>
<g id="Single_Olive_64x64">
</g>
<g id="Single_Olive_256x256">
</g>
<g id="Single_Teal_256x256">
</g>
<g id="Single_Charcoal_256x256">
</g>
<g id="Single_Teal_16x16">
</g>
<g id="Single_Teal_32x32">
</g>
<g id="Single_Teal_64x64">
</g>
<g id="Single_Charcoal_32x32">
</g>
<g id="Single_Charcoal_16x16">
</g>
<g id="Single_Charcoal_64x64">
	<path class="st3" d="M60,64H4c-2,0-4-2-4-4V4c0-1.8,2.4-4,4-4h56c2,0,4,2.3,4,4v56C64,62,62,64,60,64z"/>
	<path class="st1" d="M9.4,10.8c0,0,0.4,3,0.4,6c0,4-0.4,8.9-0.4,13.6c0,7.1,2.1,17.2,16.2,19.8v2.7h14.8V50
		C54.2,46.9,55.4,35.2,55.4,30c0-1.6-0.6-7.9-0.6-13c0-3.1,0.6-6.2,0.6-6.2H9.4z"/>
	<g>
		<g>
			<path class="st3" d="M46.9,20.1c-0.4-0.4-0.9-0.6-1.6-0.6H33.6c-2.8,0-5.5,0-8.3,0c-0.2,0-0.5,0-0.8,0.1
				c-1.1,0.3-1.9,1.1-2.2,2.5c-1,4.4-2,8.7-3,13.1l-0.8,3.5c-0.2,0.8-0.1,1.4,0.2,1.9c0.3,0.5,0.9,0.8,1.7,0.9c0.2,0,0.3,0,0.5,0
				c0,0,0.1,0,0.1,0h19.2c1.8,0,3-1,3.4-2.7l1-4.6c0.7-3.2,1.5-6.5,2.2-9.7c0.2-0.9,0.4-1.9,0.5-2.8C47.4,21,47.3,20.5,46.9,20.1z
				 M40.3,39.7H21c-0.4,0-0.6-0.1-0.6-0.2c-0.1-0.1-0.1-0.3,0-0.6c0.7-2.9,1.3-5.7,2-8.6l1.2-5.2c0.2-0.9,0.4-1.8,0.6-2.7
				c0.2-0.7,0.4-1,0.9-1.2c0.1,0,0.2,0,0.4,0l9.9,0h9.9c0.3,0,0.4,0,0.4,0c0,0,0,0.1,0,0.3c-0.1,0.8-0.3,1.6-0.5,2.5
				c-0.8,3.5-1.6,7-2.4,10.5l-0.9,3.8C41.7,39.3,41.2,39.7,40.3,39.7z"/>
			<path class="st3" d="M33.4,30.2c-0.6-0.7-1.2-1.3-1.8-2c-1.1-1.2-2.2-2.4-3.3-3.7c-0.5-0.6-0.6-1.1-0.3-1.6
				c0.4-0.6,1.2-1,1.8-0.8c0.2,0.1,0.4,0.2,0.5,0.4c2.1,2.3,4.2,4.6,6.3,7c0.5,0.5,0.4,1.1-0.2,1.5c-3.3,2.4-6.6,4.8-9.9,7.3
				c-0.4,0.3-0.8,0.4-1.3,0.1c-0.5-0.3-0.8-0.7-0.7-1.2c0.1-0.3,0.3-0.6,0.5-0.8c2.3-1.8,4.7-3.5,7.1-5.2
				C32.6,30.8,33,30.6,33.4,30.2z"/>
			<path class="st3" d="M34.5,35.7c0.8,0,1.7,0,2.5,0c0.8,0,1.3,0.5,1.3,1.1c0,0.7-0.6,1.4-1.4,1.4c-1.7,0-3.4,0-5.2,0
				c-0.7,0-1.2-0.5-1.2-1.2c0-0.7,0.5-1.3,1.2-1.3C32.7,35.7,33.6,35.7,34.5,35.7z"/>
		</g>
	</g>
</g>
<g id="Single_Charcoal_128x128">
</g>
<g id="Full_Olive_16x16">
</g>
<g id="Full_Olive_32x32">
</g>
<g id="Full_Olive_64x64">
</g>
<g id="Full_Olive_256x256">
</g>
<g id="Full_Teal_256x256">
</g>
<g id="Full_Teal_16x16">
</g>
<g id="Full_Teal_32x32">
</g>
<g id="Full_Teal_64x64">
</g>
</svg>
