<?xml version="1.0" encoding="iso-8859-1"?>
<!-- Generator: Adobe Illustrator 19.2.0, SVG Export Plug-In . SVG Version: 6.00 Build 0)  -->
<svg version="1.1" xmlns="http://www.w3.org/2000/svg" xmlns:xlink="http://www.w3.org/1999/xlink" x="0px" y="0px"
	 viewBox="0 0 128 128" style="enable-background:new 0 0 128 128;" xml:space="preserve">
<g id="Single_Charcoal_16x16">
</g>
<g id="Single_Charcoal_32x32">
</g>
<g id="Single_Charcoal_64x64">
</g>
<g id="Single_Charcoal_128x128">
</g>
<g id="Single_Charcoal_256x256">
</g>
<g id="Single_Olive_16x16">
</g>
<g id="Single_Olive_32x32">
</g>
<g id="Single_Olive_64x64">
</g>
<g id="Single_Olive_128x128">
</g>
<g id="Single_Olive_256x256">
</g>
<g id="Single_Teal_256x256">
</g>
<g id="Single_Teal_16x16">
</g>
<g id="Single_Teal_32x32">
</g>
<g id="Single_Teal_64x64">
	<path style="fill:#66B28E;" d="M120.03,128H8.002C4.001,128,0,123.999,0,120.03V8.002C0,4.334,4.801,0,8.002,0H120.03
		c3.969,0,7.97,4.504,7.97,8.002V120.03C128,123.999,124.081,128,120.03,128z"/>
	<g>
		<path style="fill:#FFFFFF;" d="M51.386,74.345h23.862c1.082,0,1.749-0.531,1.984-1.575l1.066-4.744
			c0.973-4.329,1.947-8.658,2.912-12.987c0.244-1.095,0.468-2.093,0.575-3.068c0.027-0.243,0-0.338-0.007-0.359
			c-0.003,0.01-0.112-0.042-0.449-0.042H69.095l-12.236,0.006c-0.13,0-0.295,0.004-0.434,0.032c-0.592,0.126-0.895,0.511-1.116,1.42
			c-0.269,1.104-0.521,2.213-0.773,3.322l-1.488,6.46c-0.813,3.522-1.626,7.045-2.434,10.568c-0.102,0.447-0.072,0.691-0.01,0.772
			C50.669,74.235,50.908,74.33,51.386,74.345z M72.83,70.823c-0.007,0.907-0.763,1.685-1.666,1.688c-2.125,0.007-4.25,0.007-6.376,0
			c-0.865-0.003-1.477-0.621-1.486-1.467c-0.009-0.897,0.653-1.627,1.512-1.637c1.087-0.012,2.174-0.003,3.261-0.003
			c1.038,0,2.077-0.004,3.115,0.001C72.172,69.41,72.837,69.989,72.83,70.823z M56.606,70.121c2.889-2.159,5.805-4.281,8.713-6.415
			c0.468-0.344,0.934-0.691,1.463-1.083c-0.78-0.866-1.494-1.663-2.213-2.457c-1.363-1.506-2.73-3.009-4.092-4.516
			c-0.668-0.739-0.765-1.326-0.345-2.012c0.466-0.76,1.477-1.225,2.256-0.989c0.249,0.076,0.499,0.251,0.677,0.446
			c2.611,2.854,5.211,5.718,7.809,8.583c0.592,0.653,0.526,1.299-0.188,1.823c-4.073,2.99-8.151,5.973-12.223,8.964
			c-0.511,0.376-1.032,0.456-1.588,0.137c-0.575-0.33-0.991-0.811-0.867-1.496C56.072,70.748,56.316,70.338,56.606,70.121z"/>
		<path style="fill:#FFFFFF;" d="M54.855,93.195v4.108h22.866v-4.362c21.176-4.755,22.993-22.692,22.993-30.699
			c0-2.535-0.932-12.237-0.932-20.071c0-4.726,0.932-9.528,0.932-9.528H29.829c0,0,0.593,4.549,0.593,9.189
			c0,6.23-0.593,13.71-0.593,20.918C29.829,73.667,33,89.266,54.855,93.195z M48.434,72.97l0.996-4.323
			c1.238-5.38,2.477-10.76,3.726-16.136c0.387-1.667,1.292-2.69,2.69-3.039c0.329-0.081,0.662-0.092,0.944-0.092
			c3.411-0.006,6.822-0.004,10.239-0.004H81.41c0.881,0,1.556,0.247,2.007,0.735c0.432,0.468,0.619,1.112,0.556,1.914
			c-0.096,1.205-0.364,2.419-0.602,3.488c-0.887,3.991-1.786,7.979-2.684,11.967L79.4,73.2c-0.477,2.124-1.991,3.343-4.155,3.343
			H51.599c-0.052,0-0.101,0-0.148,0c-0.259,0-0.454-0.006-0.644-0.035c-0.966-0.154-1.666-0.542-2.08-1.155
			C48.31,74.736,48.212,73.934,48.434,72.97z"/>
	</g>
</g>
<g id="Single_Teal_16x16_1_">
</g>
<g id="Full_Olive_16x16">
</g>
<g id="Full_Olive_32x32">
</g>
<g id="Full_Olive_64x64">
</g>
<g id="Full_Olive_128x128">
</g>
<g id="Full_Olive_256x256">
</g>
<g id="Full_Teal_16x16">
</g>
<g id="Full_Teal_32x32">
</g>
<g id="Full_Teal_64x64">
</g>
<g id="Full_Teal_128x128">
</g>
<g id="Full_Teal_256x256">
</g>
</svg>
