<?xml version="1.0" encoding="iso-8859-1"?>
<!-- Generator: Adobe Illustrator 19.2.0, SVG Export Plug-In . SVG Version: 6.00 Build 0)  -->
<svg version="1.1" xmlns="http://www.w3.org/2000/svg" xmlns:xlink="http://www.w3.org/1999/xlink" x="0px" y="0px"
	 viewBox="0 0 128 128" style="enable-background:new 0 0 128 128;" xml:space="preserve">
<g id="Single_Charcoal_16x16">
</g>
<g id="Single_Charcoal_32x32">
</g>
<g id="Single_Charcoal_64x64">
</g>
<g id="Single_Charcoal_128x128">
</g>
<g id="Single_Charcoal_256x256">
</g>
<g id="Single_Olive_16x16">
</g>
<g id="Single_Olive_32x32">
</g>
<g id="Single_Olive_64x64">
</g>
<g id="Single_Olive_128x128">
</g>
<g id="Single_Olive_256x256">
</g>
<g id="Single_Teal_256x256">
</g>
<g id="Single_Teal_16x16">
</g>
<g id="Single_Teal_32x32">
</g>
<g id="Single_Teal_64x64">
</g>
<g id="Single_Teal_16x16_1_">
</g>
<g id="Full_Olive_16x16">
</g>
<g id="Full_Olive_32x32">
</g>
<g id="Full_Olive_64x64">
</g>
<g id="Full_Olive_128x128">
</g>
<g id="Full_Olive_256x256">
</g>
<g id="Full_Teal_16x16">
</g>
<g id="Full_Teal_32x32">
</g>
<g id="Full_Teal_64x64">
</g>
<g id="Full_Teal_128x128">
	<path style="fill:#66B28E;" d="M120.026,127.992H8.005c-4.001,0-8.001-4.001-8.001-7.97V8.001C0.004,4.334,4.805,0,8.005,0h112.021
		c3.969,0,7.97,4.504,7.97,8.001v112.021C127.996,123.991,124.077,127.992,120.026,127.992z"/>
	<path style="fill:#7E7E7C;" d="M70.584,12.809c2.396,0,20.716,0,24.702,0c3.768,0,3.823,1.656,3.823,2.777
		c0,7.853-7.221,11.469-7.221,17.22c0,2.614,6.812,21.119,10.275,42.75s1.422,34.885,1.422,36.846
		c0,8.691-40.778,10.391-40.778-0.98c0-3.006-0.85-20.389,1.176-35.746C66.456,56.934,74.636,36.4,74.636,32.871
		c0-4.574-6.731-9.476-6.731-17.318C67.905,14.181,68.188,12.809,70.584,12.809z"/>
	<g>
		<path style="fill:#FFFFFF;" d="M74.243,64.265c0,0-0.025,1.234-0.212,2.469c-0.251,1.658-0.709,3.624-0.999,5.542
			c-0.439,2.905-0.223,7.183,5.434,9.108L78.3,82.477l6.084,0.92l0.176-1.161c5.826-0.413,7.031-5.113,7.353-7.243
			c0.102-0.675,0.244-3.294,0.56-5.378c0.19-1.258,0.631-2.498,0.631-2.498L74.243,64.265z"/>
		<g>
			<path style="fill:#96BC4F;" d="M87.799,71.069c-0.1-0.148-0.27-0.241-0.504-0.276l-3.827-0.579
				c-0.909-0.137-1.817-0.275-2.725-0.411c-0.075-0.011-0.164-0.022-0.255-0.013c-0.386,0.037-0.668,0.272-0.838,0.7
				c-0.549,1.38-1.095,2.762-1.641,4.144l-0.439,1.11c-0.098,0.247-0.104,0.465-0.018,0.646c0.086,0.18,0.256,0.311,0.507,0.391
				c0.049,0.015,0.101,0.025,0.17,0.035c0.012,0.002,0.026,0.004,0.039,0.006l6.292,0.951c0.576,0.087,1.028-0.176,1.24-0.722
				l0.573-1.47c0.399-1.025,0.799-2.05,1.196-3.076c0.106-0.275,0.227-0.587,0.3-0.904C87.919,71.39,87.895,71.211,87.799,71.069z
				 M84.65,77.189l-6.349-0.96c-0.127-0.023-0.186-0.058-0.2-0.083c-0.013-0.024-0.011-0.09,0.034-0.205
				c0.357-0.905,0.715-1.81,1.073-2.714l0.656-1.659c0.112-0.285,0.223-0.57,0.339-0.853c0.095-0.233,0.192-0.323,0.354-0.333
				c0.038-0.002,0.082,0.004,0.117,0.009l3.256,0.491l3.255,0.492c0.09,0.014,0.116,0.032,0.118,0.029
				c0.001,0.006,0.004,0.032-0.013,0.096c-0.068,0.255-0.167,0.512-0.276,0.793c-0.431,1.113-0.864,2.226-1.297,3.338l-0.475,1.219
				C85.137,77.118,84.938,77.233,84.65,77.189z"/>
			<path style="fill:#96BC4F;" d="M82.869,73.729c-0.173-0.262-0.331-0.503-0.49-0.743c-0.302-0.456-0.605-0.911-0.907-1.366
				c-0.148-0.223-0.15-0.384-0.011-0.549c0.154-0.183,0.442-0.267,0.64-0.172c0.063,0.03,0.123,0.087,0.162,0.146
				c0.58,0.864,1.156,1.731,1.733,2.598c0.131,0.197,0.088,0.367-0.123,0.477c-1.204,0.632-2.409,1.261-3.613,1.893
				c-0.151,0.079-0.293,0.08-0.428-0.027c-0.14-0.111-0.231-0.256-0.171-0.433c0.032-0.092,0.113-0.192,0.199-0.238
				c0.856-0.458,1.717-0.906,2.576-1.356C82.575,73.886,82.712,73.812,82.869,73.729z"/>
			<path style="fill:#96BC4F;" d="M82.94,75.586c0.276,0.042,0.553,0.082,0.829,0.126c0.261,0.041,0.415,0.222,0.379,0.443
				c-0.038,0.241-0.271,0.418-0.511,0.382c-0.566-0.084-1.131-0.169-1.696-0.257c-0.23-0.036-0.368-0.225-0.336-0.45
				c0.034-0.239,0.239-0.407,0.468-0.375C82.362,75.496,82.651,75.542,82.94,75.586z"/>
		</g>
	</g>
	<g>
		<path style="fill:#FFFFFF;" d="M73.719,80.85c0,0,0.377,1.176,0.601,2.404c0.301,1.649,0.506,3.658,0.855,5.566
			c0.528,2.89,2.122,6.866,8.097,6.849l0.199,1.088l6.053-1.106l-0.211-1.155c5.376-2.283,4.99-7.119,4.602-9.239
			c-0.123-0.671-0.838-3.194-1.217-5.268c-0.229-1.251-0.214-2.567-0.214-2.567L73.719,80.85z"/>
		<g>
			<path style="fill:#66B28E;" d="M88.75,82.883c-0.143-0.107-0.333-0.14-0.567-0.097l-3.807,0.695
				c-0.904,0.165-1.807,0.33-2.71,0.496c-0.075,0.014-0.162,0.033-0.245,0.07c-0.353,0.16-0.543,0.474-0.565,0.934
				c-0.071,1.484-0.139,2.968-0.206,4.452l-0.055,1.193c-0.012,0.266,0.053,0.474,0.193,0.617c0.139,0.142,0.343,0.211,0.606,0.205
				c0.052-0.001,0.104-0.009,0.172-0.022c0.012-0.002,0.026-0.005,0.039-0.007l6.26-1.143c0.573-0.105,0.915-0.501,0.938-1.086
				l0.064-1.576c0.045-1.099,0.09-2.198,0.132-3.298c0.011-0.295,0.024-0.629-0.009-0.953C88.968,83.147,88.887,82.986,88.75,82.883
				z M87.76,89.693l-6.317,1.154c-0.127,0.019-0.195,0.005-0.216-0.014c-0.02-0.018-0.04-0.082-0.035-0.205
				c0.043-0.972,0.088-1.944,0.133-2.915l0.081-1.782c0.013-0.306,0.026-0.611,0.044-0.917c0.015-0.251,0.076-0.368,0.227-0.43
				c0.035-0.014,0.079-0.023,0.113-0.029l3.239-0.593l3.239-0.592c0.089-0.016,0.12-0.008,0.121-0.011
				c0.003,0.005,0.014,0.029,0.019,0.095c0.019,0.263,0.008,0.538-0.004,0.84c-0.046,1.193-0.095,2.386-0.143,3.579l-0.053,1.307
				C88.197,89.468,88.046,89.641,87.76,89.693z"/>
			<path style="fill:#66B28E;" d="M84.951,87c-0.248-0.192-0.476-0.368-0.705-0.544c-0.434-0.333-0.868-0.665-1.302-0.998
				c-0.213-0.163-0.267-0.314-0.189-0.516c0.087-0.224,0.332-0.396,0.549-0.371c0.07,0.008,0.144,0.042,0.201,0.085
				c0.829,0.629,1.656,1.262,2.482,1.894c0.188,0.144,0.202,0.318,0.038,0.492c-0.934,0.988-1.869,1.975-2.802,2.964
				c-0.117,0.124-0.251,0.171-0.414,0.113c-0.168-0.06-0.302-0.167-0.302-0.354c0-0.098,0.045-0.218,0.111-0.289
				c0.66-0.711,1.33-1.414,1.996-2.12C84.724,87.243,84.83,87.129,84.951,87z"/>
			<path style="fill:#66B28E;" d="M85.622,88.732c0.275-0.05,0.55-0.102,0.825-0.15c0.26-0.046,0.464,0.075,0.503,0.296
				c0.042,0.24-0.12,0.483-0.359,0.527c-0.562,0.105-1.125,0.207-1.688,0.308c-0.229,0.041-0.421-0.093-0.464-0.316
				c-0.046-0.237,0.094-0.462,0.321-0.506C85.046,88.835,85.334,88.785,85.622,88.732z"/>
		</g>
	</g>
	<g>
		<path style="fill:#FFFFFF;" d="M75.036,92.395c0,0,0.16,1.224,0.16,2.473c0,1.676-0.16,3.69-0.16,5.629
			c0,2.938,0.853,7.136,6.735,8.193v1.106h6.153v-1.174c5.699-1.28,6.188-6.107,6.188-8.261c0-0.682-0.251-3.293-0.251-5.401
			c0-1.272,0.251-2.564,0.251-2.564H75.036z"/>
		<g>
			<path style="fill:#96BC4F;" d="M89.457,97.096c-0.121-0.131-0.303-0.198-0.54-0.198h-3.87c-0.919,0-1.837,0-2.755,0.001
				c-0.076,0-0.166,0.003-0.254,0.025c-0.376,0.094-0.62,0.369-0.724,0.818c-0.336,1.447-0.67,2.894-1.003,4.342l-0.268,1.163
				c-0.06,0.259-0.033,0.475,0.079,0.641c0.111,0.165,0.3,0.269,0.56,0.311c0.051,0.008,0.104,0.009,0.173,0.009
				c0.013,0,0.026,0,0.04,0h6.363c0.582,0,0.99-0.328,1.118-0.9l0.346-1.539c0.242-1.073,0.483-2.147,0.722-3.221
				c0.064-0.288,0.136-0.614,0.162-0.939C89.624,97.395,89.573,97.222,89.457,97.096z M87.259,103.618h-6.422
				c-0.129-0.004-0.193-0.03-0.21-0.052c-0.017-0.022-0.025-0.088,0.003-0.208c0.217-0.948,0.436-1.896,0.655-2.844l0.4-1.738
				c0.068-0.298,0.136-0.597,0.208-0.894c0.06-0.245,0.141-0.348,0.3-0.382c0.037-0.008,0.082-0.009,0.117-0.009l3.293-0.002h3.293
				c0.091,0,0.12,0.014,0.121,0.011c0.002,0.006,0.009,0.031,0.002,0.097c-0.029,0.262-0.089,0.531-0.155,0.826
				c-0.26,1.165-0.522,2.33-0.784,3.495l-0.287,1.277C87.73,103.475,87.55,103.618,87.259,103.618z"/>
			<path style="fill:#96BC4F;" d="M84.98,100.463c-0.21-0.233-0.402-0.448-0.595-0.661c-0.367-0.405-0.735-0.81-1.101-1.215
				c-0.18-0.199-0.206-0.357-0.093-0.541c0.125-0.204,0.398-0.33,0.607-0.266c0.067,0.02,0.134,0.068,0.182,0.12
				c0.703,0.768,1.402,1.539,2.102,2.31c0.159,0.176,0.141,0.349-0.051,0.491c-1.096,0.805-2.193,1.607-3.289,2.412
				c-0.138,0.101-0.278,0.123-0.427,0.037c-0.155-0.089-0.267-0.218-0.233-0.403c0.017-0.096,0.083-0.207,0.161-0.265
				c0.778-0.581,1.562-1.152,2.345-1.726C84.713,100.662,84.838,100.569,84.98,100.463z"/>
			<path style="fill:#96BC4F;" d="M85.329,102.288c0.279,0,0.559-0.001,0.838,0c0.264,0.001,0.443,0.157,0.441,0.382
				c-0.002,0.244-0.205,0.453-0.448,0.454c-0.572,0.002-1.144,0.002-1.716,0c-0.233-0.001-0.397-0.167-0.4-0.395
				c-0.002-0.241,0.176-0.438,0.407-0.44C84.744,102.285,85.036,102.288,85.329,102.288z"/>
		</g>
	</g>
</g>
<g id="Full_Teal_256x256">
</g>
</svg>
