<?xml version="1.0" encoding="iso-8859-1"?>
<!-- Generator: Adobe Illustrator 19.2.0, SVG Export Plug-In . SVG Version: 6.00 Build 0)  -->
<svg version="1.1" xmlns="http://www.w3.org/2000/svg" xmlns:xlink="http://www.w3.org/1999/xlink" x="0px" y="0px"
	 viewBox="0 0 256 256" style="enable-background:new 0 0 256 256;" xml:space="preserve">
<g id="Single_Charcoal_16x16">
</g>
<g id="Single_Charcoal_32x32">
</g>
<g id="Single_Charcoal_64x64">
</g>
<g id="Single_Charcoal_128x128">
</g>
<g id="Single_Charcoal_256x256">
</g>
<g id="Single_Olive_16x16">
</g>
<g id="Single_Olive_32x32">
</g>
<g id="Single_Olive_64x64">
</g>
<g id="Single_Olive_128x128">
</g>
<g id="Single_Olive_256x256">
	<path style="fill:#96BC4F;" d="M240.06,256H16.004C8.002,256,0,247.998,0,240.06V16.004C0,8.669,9.603,0,16.004,0H240.06
		C247.998,0,256,9.008,256,16.004V240.06C256,247.998,248.162,256,240.06,256z"/>
	<g>
		<path style="fill:#FFFFFF;" d="M103.757,148.725h47.745c2.164,0,3.5-1.062,3.97-3.152l2.133-9.491
			c1.947-8.662,3.895-17.323,5.827-25.985c0.489-2.191,0.936-4.188,1.15-6.138c0.053-0.486,0-0.676-0.014-0.718
			c-0.007,0.019-0.225-0.084-0.898-0.084h-24.48l-24.482,0.011c-0.26,0-0.591,0.008-0.868,0.064
			c-1.185,0.251-1.791,1.023-2.234,2.842c-0.538,2.21-1.042,4.428-1.547,6.647l-2.977,12.925c-1.626,7.047-3.254,14.096-4.87,21.146
			c-0.204,0.894-0.144,1.383-0.02,1.545C102.323,148.504,102.801,148.694,103.757,148.725z M146.663,141.676
			c-0.015,1.814-1.527,3.372-3.333,3.378c-4.252,0.014-8.505,0.015-12.757-0.001c-1.731-0.006-2.956-1.242-2.973-2.935
			c-0.018-1.794,1.307-3.256,3.026-3.275c2.174-0.025,4.35-0.006,6.524-0.006c2.077,0,4.155-0.008,6.232,0.002
			C145.348,138.849,146.677,140.008,146.663,141.676z M114.202,140.272c5.781-4.319,11.615-8.567,17.433-12.836
			c0.937-0.688,1.869-1.382,2.927-2.166c-1.56-1.733-2.99-3.328-4.427-4.917c-2.727-3.014-5.462-6.021-8.188-9.036
			c-1.337-1.478-1.531-2.653-0.69-4.025c0.932-1.52,2.956-2.451,4.514-1.978c0.499,0.151,0.998,0.502,1.355,0.892
			c5.223,5.711,10.426,11.44,15.625,17.173c1.184,1.306,1.052,2.598-0.377,3.647c-8.15,5.982-16.309,11.951-24.457,17.935
			c-1.023,0.752-2.065,0.912-3.177,0.274c-1.151-0.66-1.984-1.623-1.736-2.994C113.134,141.527,113.622,140.705,114.202,140.272z"/>
		<path style="fill:#FFFFFF;" d="M110.698,186.44v8.22h45.752v-8.729c42.371-9.514,46.006-45.404,46.006-61.424
			c0-5.073-1.864-24.484-1.864-40.16c0-9.457,1.864-19.063,1.864-19.063H60.625c0,0,1.186,9.101,1.186,18.385
			c0,12.465-1.186,27.433-1.186,41.855C60.625,147.367,66.97,178.578,110.698,186.44z M97.851,145.973l1.992-8.65
			c2.477-10.766,4.955-21.528,7.456-32.285c0.774-3.336,2.585-5.381,5.381-6.08c0.658-0.162,1.325-0.184,1.889-0.184
			c6.826-0.011,13.65-0.008,20.486-0.008h28.776c1.763,0,3.114,0.494,4.015,1.47c0.865,0.936,1.239,2.224,1.112,3.831
			c-0.192,2.411-0.729,4.839-1.204,6.98c-1.776,7.985-3.574,15.965-5.37,23.945l-2.575,11.444c-0.954,4.25-3.984,6.689-8.314,6.689
			h-47.312c-0.103,0-0.203,0-0.296,0c-0.518,0-0.908-0.011-1.288-0.07c-1.933-0.307-3.333-1.084-4.162-2.311
			C97.604,149.507,97.406,147.9,97.851,145.973z"/>
	</g>
</g>
<g id="Single_Teal_256x256">
</g>
<g id="Single_Teal_16x16">
</g>
<g id="Single_Teal_32x32">
</g>
<g id="Single_Teal_64x64">
</g>
<g id="Single_Teal_16x16_1_">
</g>
<g id="Full_Olive_16x16">
</g>
<g id="Full_Olive_32x32">
</g>
<g id="Full_Olive_64x64">
</g>
<g id="Full_Olive_128x128">
</g>
<g id="Full_Olive_256x256">
</g>
<g id="Full_Teal_16x16">
</g>
<g id="Full_Teal_32x32">
</g>
<g id="Full_Teal_64x64">
</g>
<g id="Full_Teal_128x128">
</g>
<g id="Full_Teal_256x256">
</g>
</svg>
