<?xml version="1.0" encoding="iso-8859-1"?>
<!-- Generator: Adobe Illustrator 19.2.0, SVG Export Plug-In . SVG Version: 6.00 Build 0)  -->
<svg version="1.1" xmlns="http://www.w3.org/2000/svg" xmlns:xlink="http://www.w3.org/1999/xlink" x="0px" y="0px"
	 viewBox="0 0 32 32" style="enable-background:new 0 0 32 32;" xml:space="preserve">
<g id="Single_Charcoal_16x16">
</g>
<g id="Single_Charcoal_32x32">
</g>
<g id="Single_Charcoal_64x64">
</g>
<g id="Single_Charcoal_128x128">
</g>
<g id="Single_Charcoal_256x256">
</g>
<g id="Single_Olive_16x16">
</g>
<g id="Single_Olive_32x32">
</g>
<g id="Single_Olive_64x64">
</g>
<g id="Single_Olive_128x128">
</g>
<g id="Single_Olive_256x256">
</g>
<g id="Single_Teal_256x256">
</g>
<g id="Single_Teal_16x16">
</g>
<g id="Single_Teal_32x32">
	<path style="fill:#66B28E;" d="M30.007,31.996H2.001c-1,0-2-1-2-1.992V2c0-0.917,1.2-2,2-2h28.005c0.992,0,1.992,1.126,1.992,2
		v28.003C31.999,30.996,31.019,31.996,30.007,31.996z"/>
	<g>
		<path style="fill:#FFFFFF;" d="M12.806,18.59h5.962c0.27,0,0.437-0.133,0.496-0.394l0.266-1.185
			c0.243-1.082,0.486-2.163,0.728-3.245c0.061-0.274,0.117-0.523,0.144-0.767c0.007-0.061,0-0.084-0.002-0.09
			c-0.001,0.002-0.028-0.01-0.112-0.01h-3.057l-3.057,0.001c-0.032,0-0.074,0.001-0.108,0.008c-0.148,0.031-0.224,0.128-0.279,0.355
			c-0.067,0.276-0.13,0.553-0.193,0.83l-0.372,1.614c-0.203,0.88-0.406,1.76-0.608,2.641c-0.025,0.112-0.018,0.173-0.002,0.193
			C12.627,18.562,12.687,18.586,12.806,18.59z M18.164,17.71c-0.002,0.227-0.191,0.421-0.416,0.422
			c-0.531,0.002-1.062,0.002-1.593,0c-0.216-0.001-0.369-0.155-0.371-0.366c-0.002-0.224,0.163-0.407,0.378-0.409
			c0.272-0.003,0.543-0.001,0.815-0.001c0.259,0,0.519-0.001,0.778,0C18,17.356,18.166,17.501,18.164,17.71z M14.111,17.534
			c0.722-0.539,1.45-1.07,2.177-1.603c0.117-0.086,0.233-0.173,0.366-0.27c-0.195-0.216-0.373-0.416-0.553-0.614
			c-0.341-0.376-0.682-0.752-1.022-1.128c-0.167-0.185-0.191-0.331-0.086-0.503c0.116-0.19,0.369-0.306,0.564-0.247
			c0.062,0.019,0.125,0.063,0.169,0.111c0.652,0.713,1.302,1.429,1.951,2.145c0.148,0.163,0.131,0.324-0.047,0.455
			c-1.018,0.747-2.037,1.492-3.054,2.24c-0.128,0.094-0.258,0.114-0.397,0.034c-0.144-0.082-0.248-0.203-0.217-0.374
			C13.977,17.691,14.038,17.588,14.111,17.534z"/>
		<path style="fill:#FFFFFF;" d="M13.673,23.3v1.027h5.713v-1.09c5.291-1.188,5.745-5.67,5.745-7.67
			c0-0.634-0.233-3.058-0.233-5.015c0-1.181,0.233-2.381,0.233-2.381H7.42c0,0,0.148,1.137,0.148,2.296
			c0,1.557-0.148,3.426-0.148,5.227C7.42,18.42,8.212,22.318,13.673,23.3z M12.069,18.246l0.249-1.08
			c0.309-1.344,0.619-2.688,0.931-4.032c0.097-0.417,0.323-0.672,0.672-0.759c0.082-0.02,0.165-0.023,0.236-0.023
			c0.852-0.001,1.705-0.001,2.558-0.001h3.593c0.22,0,0.389,0.062,0.501,0.184c0.108,0.117,0.155,0.278,0.139,0.478
			c-0.024,0.301-0.091,0.604-0.15,0.872c-0.222,0.997-0.446,1.994-0.671,2.99l-0.322,1.429c-0.119,0.531-0.498,0.835-1.038,0.835
			h-5.908c-0.013,0-0.025,0-0.037,0c-0.065,0-0.113-0.001-0.161-0.009c-0.241-0.038-0.416-0.135-0.52-0.289
			C12.038,18.687,12.013,18.487,12.069,18.246z"/>
	</g>
</g>
<g id="Single_Teal_64x64">
</g>
<g id="Single_Teal_16x16_1_">
</g>
<g id="Full_Olive_16x16">
</g>
<g id="Full_Olive_32x32">
</g>
<g id="Full_Olive_64x64">
</g>
<g id="Full_Olive_128x128">
</g>
<g id="Full_Olive_256x256">
</g>
<g id="Full_Teal_16x16">
</g>
<g id="Full_Teal_32x32">
</g>
<g id="Full_Teal_64x64">
</g>
<g id="Full_Teal_128x128">
</g>
<g id="Full_Teal_256x256">
</g>
</svg>
