<?xml version="1.0" encoding="iso-8859-1"?>
<!-- Generator: Adobe Illustrator 19.2.0, SVG Export Plug-In . SVG Version: 6.00 Build 0)  -->
<svg version="1.1" xmlns="http://www.w3.org/2000/svg" xmlns:xlink="http://www.w3.org/1999/xlink" x="0px" y="0px"
	 viewBox="0 0 128 128" style="enable-background:new 0 0 128 128;" xml:space="preserve">
<g id="Single_Charcoal_16x16">
</g>
<g id="Single_Charcoal_32x32">
</g>
<g id="Single_Charcoal_64x64">
</g>
<g id="Single_Charcoal_128x128">
</g>
<g id="Single_Charcoal_256x256">
</g>
<g id="Single_Olive_16x16">
</g>
<g id="Single_Olive_32x32">
</g>
<g id="Single_Olive_64x64">
</g>
<g id="Single_Olive_128x128">
	<path style="fill:#96BC4F;" d="M120.03,128.002H8.002c-4.001,0-8.002-4.001-8.002-7.97V8.004c0-3.668,4.801-8.002,8.002-8.002
		H120.03c3.969,0,7.97,4.504,7.97,8.002v112.028C128,124.001,124.081,128.002,120.03,128.002z"/>
	<g>
		<path style="fill:#FFFFFF;" d="M51.243,74.394h23.86c1.081,0,1.749-0.531,1.984-1.575l1.066-4.743
			c0.973-4.328,1.946-8.657,2.912-12.985c0.244-1.095,0.468-2.093,0.575-3.068c0.027-0.243,0-0.338-0.007-0.359
			c-0.003,0.01-0.112-0.042-0.449-0.042H68.95l-12.234,0.006c-0.13,0-0.295,0.004-0.434,0.032c-0.592,0.126-0.895,0.511-1.116,1.42
			c-0.269,1.104-0.521,2.213-0.773,3.322l-1.488,6.459c-0.813,3.521-1.626,7.044-2.434,10.567c-0.102,0.447-0.072,0.691-0.01,0.772
			C50.527,74.283,50.765,74.378,51.243,74.394z M72.685,70.871c-0.007,0.907-0.763,1.685-1.666,1.688
			c-2.125,0.007-4.25,0.007-6.375,0c-0.865-0.003-1.477-0.62-1.486-1.467c-0.009-0.897,0.653-1.627,1.512-1.637
			c1.087-0.012,2.174-0.003,3.26-0.003c1.038,0,2.076-0.004,3.114,0.001C72.027,69.458,72.692,70.038,72.685,70.871z M56.463,70.17
			c2.889-2.158,5.804-4.281,8.712-6.414c0.468-0.344,0.934-0.691,1.463-1.082c-0.779-0.866-1.494-1.663-2.212-2.457
			c-1.363-1.506-2.729-3.009-4.092-4.516c-0.668-0.739-0.765-1.326-0.345-2.011c0.466-0.76,1.477-1.225,2.256-0.989
			c0.249,0.076,0.499,0.251,0.677,0.446c2.61,2.854,5.21,5.717,7.808,8.582c0.592,0.653,0.526,1.298-0.188,1.823
			c-4.073,2.989-8.15,5.972-12.222,8.963c-0.511,0.376-1.032,0.456-1.588,0.137c-0.575-0.33-0.991-0.811-0.867-1.496
			C55.929,70.797,56.173,70.386,56.463,70.17z"/>
		<path style="fill:#FFFFFF;" d="M54.712,93.241v4.108h22.863v-4.362c21.174-4.755,22.99-22.69,22.99-30.695
			c0-2.535-0.931-12.236-0.931-20.069c0-4.726,0.931-9.526,0.931-9.526H29.689c0,0,0.593,4.548,0.593,9.188
			c0,6.229-0.593,13.709-0.593,20.916C29.689,73.715,32.86,89.312,54.712,93.241z M48.292,73.018l0.996-4.323
			c1.238-5.38,2.476-10.758,3.726-16.134c0.387-1.667,1.292-2.689,2.689-3.038c0.329-0.081,0.662-0.092,0.944-0.092
			c3.411-0.006,6.821-0.004,10.237-0.004h14.38c0.881,0,1.556,0.247,2.006,0.734c0.432,0.468,0.619,1.111,0.556,1.914
			c-0.096,1.205-0.364,2.418-0.602,3.488c-0.887,3.991-1.786,7.978-2.684,11.966l-1.287,5.719c-0.477,2.124-1.991,3.343-4.155,3.343
			H51.456c-0.052,0-0.101,0-0.148,0c-0.259,0-0.454-0.006-0.644-0.035c-0.966-0.154-1.666-0.542-2.08-1.155
			C48.168,74.785,48.07,73.982,48.292,73.018z"/>
	</g>
</g>
<g id="Single_Olive_256x256">
</g>
<g id="Single_Teal_256x256">
</g>
<g id="Single_Teal_16x16">
</g>
<g id="Single_Teal_32x32">
</g>
<g id="Single_Teal_64x64">
</g>
<g id="Single_Teal_16x16_1_">
</g>
<g id="Full_Olive_16x16">
</g>
<g id="Full_Olive_32x32">
</g>
<g id="Full_Olive_64x64">
</g>
<g id="Full_Olive_128x128">
</g>
<g id="Full_Olive_256x256">
</g>
<g id="Full_Teal_16x16">
</g>
<g id="Full_Teal_32x32">
</g>
<g id="Full_Teal_64x64">
</g>
<g id="Full_Teal_128x128">
</g>
<g id="Full_Teal_256x256">
</g>
</svg>
